<?xml version="1.0" standalone="no"?>
<!DOCTYPE svg PUBLIC "-//W3C//DTD SVG 1.1//EN" "http://www.w3.org/Graphics/SVG/1.1/DTD/svg11.dtd" >
<svg xmlns="http://www.w3.org/2000/svg" xmlns:xlink="http://www.w3.org/1999/xlink" version="1.1">
<metadata>
Created by FontForge 20190801 at Tue Nov 17 23:36:11 2015
 By Jimmy Wärting
Copyright (c) 2015 by Kostas Bartsokas. All rights reserved.
</metadata>
<defs>
<font id="Averta-Bold" horiz-adv-x="586" >
  <font-face 
    font-family="Averta Bold"
    font-weight="700"
    font-stretch="normal"
    units-per-em="1000"
    panose-1="0 0 8 0 0 0 0 0 0 0"
    ascent="772"
    descent="-228"
    x-height="488"
    cap-height="710"
    bbox="-241 -257 1430 989"
    underline-thickness="53"
    underline-position="-195"
    unicode-range="U+0020-2E18"
  />
<missing-glyph horiz-adv-x="449" 
 />
    <glyph glyph-name=".notdef" horiz-adv-x="449" 
 />
    <glyph glyph-name=".null" horiz-adv-x="0" 
 />
    <glyph glyph-name="nonmarkingreturn" horiz-adv-x="333" 
 />
    <glyph glyph-name="space" unicode=" " horiz-adv-x="263" 
 />
    <glyph glyph-name="exclam" unicode="!" horiz-adv-x="281" 
d="M94 233l-23 503h143l-24 -503h-96zM140 -8q-34 0 -57.5 23t-23.5 56t23.5 56.5t57.5 23.5q33 0 57 -23.5t24 -56.5t-24 -56t-57 -23z" />
    <glyph glyph-name="quotedbl" unicode="&#x22;" horiz-adv-x="415" 
d="M33 450l30 260h134l-63 -260h-101zM221 450l30 260h135l-64 -260h-101z" />
    <glyph glyph-name="numbersign" unicode="#" horiz-adv-x="645" 
d="M110 -44l30 188h-106v97h121l21 139h-117v97h132l28 179h89l-28 -179h137l28 179h89l-27 -179h109v-97h-124l-22 -139h121l-1 -97h-135l-28 -188h-90l29 188h-137l-29 -188h-90zM244 241h138l21 139h-137z" />
    <glyph glyph-name="dollar" unicode="$" horiz-adv-x="572" 
d="M533 195q0 -80 -49.5 -132t-135.5 -64v-112h-105v112q-115 17 -201 102l82 98q81 -77 178 -77q38 0 60.5 17t22.5 46q0 31 -25.5 49.5t-88.5 37.5q-41 13 -66.5 22.5t-56.5 26.5t-48.5 36t-29.5 48.5t-12 66.5q0 78 49 130.5t136 62.5v118h105v-124q98 -21 170 -78
l-79 -99q-80 56 -154 56q-38 0 -59 -15t-21 -42t24.5 -44t81.5 -35q59 -18 92.5 -31.5t67 -37t48 -57t14.5 -81.5z" />
    <glyph glyph-name="percent" unicode="%" horiz-adv-x="1019" 
d="M402 -23l-98 42l315 706l98 -42zM240 320q-85 0 -143 56t-58 144q0 83 56.5 140.5t144.5 57.5q86 0 144 -55t58 -143q0 -84 -56.5 -142t-145.5 -58zM241 413q44 0 71.5 30.5t27.5 75.5q0 46 -28.5 75.5t-70.5 29.5q-43 0 -70.5 -30.5t-27.5 -74.5q0 -46 28.5 -76
t69.5 -30zM777 -8q-84 0 -142.5 55.5t-58.5 143.5q0 83 56.5 141t144.5 58q86 0 144 -55.5t58 -143.5q0 -84 -56 -141.5t-146 -57.5zM778 85q44 0 71.5 30.5t27.5 74.5q0 46 -28.5 75.5t-70.5 29.5q-43 0 -70.5 -30.5t-27.5 -74.5q0 -46 28.5 -75.5t69.5 -29.5z" />
    <glyph glyph-name="ampersand" unicode="&#x26;" horiz-adv-x="667" 
d="M496 0l-39 50h-2q-70 -58 -181 -58q-99 0 -166 60.5t-67 156.5q0 133 129 208l-78 100q9 89 70.5 145.5t150.5 56.5q157 0 226 -147l-108 -40q-36 73 -105 73q-42 1 -65.5 -22t-28.5 -55l229 -294h1q23 54 23 106l123 3q0 -125 -62 -217l98 -126h-148zM172 217
q0 -48 32.5 -77t83.5 -29q53 0 97 28v3l-143 184q-70 -38 -70 -109z" />
    <glyph glyph-name="quotesingle" unicode="'" horiz-adv-x="227" 
d="M33 450l30 260h134l-63 -260h-101z" />
    <glyph glyph-name="parenleft" unicode="(" horiz-adv-x="311" 
d="M173 -157q-121 190 -121 452q0 268 123 453l96 -44q-100 -181 -100 -409q0 -219 99 -409z" />
    <glyph glyph-name="parenright" unicode=")" horiz-adv-x="311" 
d="M138 -157l-97 43q99 190 99 409q0 228 -100 409l96 44q123 -185 123 -453q0 -262 -121 -452z" />
    <glyph glyph-name="asterisk" unicode="*" horiz-adv-x="403" 
d="M162 383l5 103l-86 -54l-40 68l89 46l-90 48l41 69l86 -55l-5 102h79l-5 -102l87 54l40 -68l-91 -47l91 -47l-40 -69l-85 55l3 -103h-79z" />
    <glyph glyph-name="plus" unicode="+" horiz-adv-x="580" 
d="M232 41v179h-179v114h179v180h116v-180h179v-114h-179v-179h-116z" />
    <glyph glyph-name="comma" unicode="," horiz-adv-x="244" 
d="M25 -133l31 260h134l-69 -260h-96z" />
    <glyph glyph-name="hyphen" unicode="-" horiz-adv-x="400" 
d="M49 248v122h303v-122h-303z" />
    <glyph glyph-name="period" unicode="." horiz-adv-x="270" 
d="M135 -8q-34 0 -57.5 23t-23.5 56t23.5 56.5t57.5 23.5q33 0 57 -23.5t24 -56.5t-24 -56t-57 -23z" />
    <glyph glyph-name="slash" unicode="/" horiz-adv-x="438" 
d="M66 -112l-98 45l382 854l97 -45z" />
    <glyph glyph-name="zero" unicode="0" horiz-adv-x="631" 
d="M315 -8q-120 0 -193.5 93.5t-73.5 257.5q0 159 72 255.5t195 96.5q122 0 195 -94t73 -258q0 -159 -72 -255t-196 -96zM316 118q60 0 94 58.5t34 166.5q0 105 -34 165t-94 60t-94.5 -58.5t-34.5 -166.5q0 -104 34.5 -164.5t94.5 -60.5z" />
    <glyph glyph-name="one" unicode="1" horiz-adv-x="411" 
d="M194 0v523l-115 -86l-65 101l208 149h109v-687h-137z" />
    <glyph glyph-name="two" unicode="2" horiz-adv-x="531" 
d="M236 124h251v-124h-448l-2 89l214 226q47 51 69.5 87t22.5 74q0 40 -26 66.5t-66 26.5q-75 0 -119 -74l-98 70q71 130 228 130q90 0 154 -56t64 -148q0 -61 -24.5 -112.5t-89.5 -118.5l-130 -134v-2z" />
    <glyph glyph-name="three" unicode="3" horiz-adv-x="543" 
d="M390 355q109 -51 109 -168q0 -88 -65.5 -141.5t-166.5 -53.5q-89 0 -155 42t-91 109l118 49q29 -78 118 -78q43 0 72.5 25t29.5 67q0 39 -29.5 65t-83.5 26h-50v111h61q44 0 66.5 22.5t22.5 58.5q0 37 -26 60t-65 23q-67 0 -100 -57l-109 58q25 55 81.5 88.5t130.5 33.5
q95 0 158 -49t63 -135q0 -102 -89 -154v-2z" />
    <glyph glyph-name="four" unicode="4" horiz-adv-x="574" 
d="M316 0v112h-291v87l315 488h110v-458h92v-117h-92v-112h-134zM173 222h153v246z" />
    <glyph glyph-name="five" unicode="5" horiz-adv-x="554" 
d="M295 443q90 0 152 -61t62 -160q0 -101 -70.5 -165.5t-175.5 -64.5q-151 0 -237 108l98 79q48 -63 132 -63q49 0 82 31t33 77q0 51 -36 79.5t-82 28.5q-59 0 -103 -35l-72 27l21 363h375v-124h-257l-8 -135q48 15 86 15z" />
    <glyph glyph-name="six" unicode="6" 
d="M331 440q90 0 150.5 -59t60.5 -162q0 -100 -70.5 -163.5t-177.5 -63.5t-177 76.5t-70 198.5q0 167 100.5 288.5t262.5 151.5l39 -109q-191 -54 -246 -190h1q56 32 127 32zM298 114q48 0 79.5 31.5t31.5 76.5q0 46 -31 75t-82 29q-69 0 -119 -61v-10q0 -63 35 -102t86 -39
z" />
    <glyph glyph-name="seven" unicode="7" horiz-adv-x="488" 
d="M22 687h427v-89l-239 -613l-135 25l225 554h-278v123z" />
    <glyph glyph-name="eight" unicode="8" horiz-adv-x="573" 
d="M414 371q54 -20 88 -67t34 -114q0 -90 -71 -144t-179 -54t-178 55t-70 143q0 67 33.5 114t87.5 67v2q-34 14 -60 53.5t-26 89.5q0 84 60 131.5t153 47.5q95 0 154.5 -48t59.5 -131q0 -50 -25.5 -89.5t-60.5 -53.5v-2zM286 583q-38 0 -62.5 -23.5t-24.5 -56.5
q0 -34 24.5 -55.5t62.5 -21.5q39 0 63.5 21.5t24.5 55.5t-25 57t-63 23zM286 108q49 0 80 29t31 71q0 44 -31 72t-80 28t-80 -28t-31 -72q0 -43 32 -71.5t79 -28.5z" />
    <glyph glyph-name="nine" unicode="9" horiz-adv-x="582" 
d="M287 695q108 0 178 -76.5t70 -199.5q0 -168 -102 -290.5t-265 -153.5l-40 110q193 53 251 192l-1 1q-58 -32 -128 -32q-89 0 -149 59t-60 161q0 101 70 165t176 64zM174 464q0 -46 30 -75t82 -29q69 0 119 61v9q0 64 -33 103t-83 39q-51 0 -83 -31.5t-32 -76.5z" />
    <glyph glyph-name="colon" unicode=":" horiz-adv-x="271" 
d="M134 337q-34 0 -57.5 23t-23.5 56t23.5 56.5t57.5 23.5q33 0 57 -23.5t24 -56.5t-24 -56t-57 -23zM134 -8q-34 0 -57.5 23t-23.5 56t23.5 56.5t57.5 23.5q33 0 57 -23.5t24 -56.5t-24 -56t-57 -23z" />
    <glyph glyph-name="semicolon" unicode=";" horiz-adv-x="252" 
d="M121 336q-34 0 -57.5 23t-23.5 56t23.5 56.5t57.5 23.5q33 0 57 -23.5t24 -56.5t-24 -56t-57 -23zM25 -133l31 260h134l-69 -260h-96z" />
    <glyph glyph-name="less" unicode="&#x3c;" horiz-adv-x="580" 
d="M517 26l-464 200v94l464 203v-126l-295 -123l295 -125v-123z" />
    <glyph glyph-name="equal" unicode="=" horiz-adv-x="590" 
d="M64 335v114h474v-114h-474zM64 105v114h474v-114h-474z" />
    <glyph glyph-name="greater" unicode="&#x3e;" horiz-adv-x="580" 
d="M63 26v123l295 125l-295 123v126l464 -203v-94z" />
    <glyph glyph-name="question" unicode="?" horiz-adv-x="468" 
d="M140 231l-1 50q0 15 4 30.5t8 25.5t15.5 25.5t16.5 21t21.5 23t19.5 21.5q64 66 64 114q0 37 -22 57.5t-58 20.5q-61 0 -101 -54l-93 87q34 42 88.5 67t116.5 25q90 0 150.5 -50.5t60.5 -144.5q0 -53 -23.5 -93t-64.5 -80q-5 -5 -19.5 -18t-20 -18t-16 -16t-14.5 -18
t-8 -16t-5 -18l-3 -42h-116zM200 -8q-34 0 -57.5 23t-23.5 56t23.5 56.5t57.5 23.5q33 0 57 -23.5t24 -56.5t-24 -56t-57 -23z" />
    <glyph glyph-name="at" unicode="@" horiz-adv-x="898" 
d="M667 466l-28 -258q0 -5 -0.5 -13t-0.5 -11q0 -46 35 -46q38 0 62 52t24 102q0 117 -76.5 198t-200.5 81q-88 0 -156.5 -31.5t-107.5 -81.5t-58.5 -106.5t-19.5 -113.5q0 -122 82.5 -208.5t193.5 -86.5q102 0 204 52l41 -68q-113 -75 -245 -75q-160 0 -266.5 110
t-106.5 277q0 53 14 108.5t47.5 112.5t82.5 101t125.5 72t169.5 28q170 0 272 -104t102 -264q0 -31 -5.5 -62t-21.5 -66.5t-39.5 -62.5t-64.5 -44.5t-92 -17.5q-58 0 -91 34q-16 14 -23 42h-3q-19 -28 -55 -47t-70 -19q-74 0 -119.5 52t-45.5 138q0 34 10.5 72.5t31 75.5
t59 61.5t88.5 24.5q76 0 116 -65h1l7 57h128zM430 163q41 0 69.5 33t28.5 78q0 39 -21 63t-53 24q-42 0 -71 -32t-29 -78q0 -39 22 -63.5t54 -24.5z" />
    <glyph glyph-name="A" unicode="A" horiz-adv-x="698" 
d="M535 0l-48 142h-273l-48 -142h-147l263 710h135l265 -710h-147zM255 262h191l-95 279h-2z" />
    <glyph glyph-name="B" unicode="B" horiz-adv-x="644" 
d="M459 377q69 -17 106.5 -64t37.5 -117q0 -88 -59.5 -142t-171.5 -54h-294v710h256q113 0 172.5 -44t59.5 -129q0 -52 -26 -95t-81 -64v-1zM216 586v-167h101q45 0 76 21.5t31 62.5q0 83 -116 83h-92zM330 124q58 0 92 23t34 67q0 43 -31.5 67.5t-93.5 24.5h-115v-182h114z
" />
    <glyph glyph-name="C" unicode="C" horiz-adv-x="726" 
d="M411 -7q-153 0 -257.5 96t-104.5 264q0 158 96.5 262t265.5 104q78 0 152.5 -34t130.5 -102l-103 -88q-77 90 -180 90q-94 0 -154.5 -63.5t-60.5 -168.5q0 -99 60 -163t155 -64q107 0 180 90l103 -89q-108 -134 -283 -134z" />
    <glyph glyph-name="D" unicode="D" horiz-adv-x="730" 
d="M78 0v710h235q167 0 268 -98.5t101 -257.5t-98.5 -256.5t-267.5 -97.5h-238zM217 125h90q102 0 165.5 65t63.5 164q0 100 -62 165t-158 65h-99v-459z" />
    <glyph glyph-name="E" unicode="E" horiz-adv-x="600" 
d="M78 0v710h454v-126h-316v-170h253v-124h-253v-165h337v-125h-475z" />
    <glyph glyph-name="F" unicode="F" horiz-adv-x="588" 
d="M78 0v710h471v-126h-332v-189h277v-126h-277v-269h-139z" />
    <glyph glyph-name="G" unicode="G" horiz-adv-x="753" 
d="M412 -7q-158 0 -260.5 97t-102.5 264q0 159 97 262t260 103q79 0 154 -31t128 -91l-100 -84q-76 73 -182 73q-90 0 -150 -63t-60 -169q0 -100 59 -166t157 -66q78 0 144 40v105h-160v120h295v-306q-49 -40 -124 -64t-155 -24z" />
    <glyph glyph-name="H" unicode="H" horiz-adv-x="729" 
d="M78 0v710h141v-307h291v307h141v-710h-141v277h-291v-277h-141z" />
    <glyph glyph-name="I" unicode="I" horiz-adv-x="307" 
d="M83 0v710h141v-710h-141z" />
    <glyph glyph-name="J" unicode="J" horiz-adv-x="506" 
d="M219 -7q-56 0 -108 23.5t-87 69.5l80 99q20 -27 48.5 -44t56.5 -17q87 0 87 124v462h141v-460q0 -257 -218 -257z" />
    <glyph glyph-name="K" unicode="K" horiz-adv-x="666" 
d="M289 285h-1l-70 -83v-202h-140v710h140v-313h1l246 313h178l-262 -313l270 -397h-173z" />
    <glyph glyph-name="L" unicode="L" horiz-adv-x="566" 
d="M78 0v710h141v-585h316v-125h-457z" />
    <glyph glyph-name="M" unicode="M" horiz-adv-x="876" 
d="M657 710h141v-710h-139v441h-2l-173 -306h-91l-173 306h-2v-441h-140v710h142l218 -404h2z" />
    <glyph glyph-name="N" unicode="N" horiz-adv-x="755" 
d="M536 710h141v-710h-144l-313 471h-2v-471h-140v710h140l317 -480h1v480z" />
    <glyph glyph-name="O" unicode="O" horiz-adv-x="821" 
d="M411 -8q-160 0 -261 102.5t-101 260.5q0 159 101 261.5t261 102.5q158 0 259.5 -101t101.5 -263t-101.5 -262.5t-259.5 -100.5zM412 123q92 0 153 66t61 166t-61 166t-153 66q-95 0 -156 -67t-61 -165t61 -165t156 -67z" />
    <glyph glyph-name="P" unicode="P" horiz-adv-x="624" 
d="M78 0v710h263q124 0 185.5 -64.5t61.5 -171.5q0 -114 -69.5 -172.5t-190.5 -58.5h-111v-243h-139zM217 368h93q65 0 98.5 29t33.5 80q0 50 -33 79t-93 29h-99v-217z" />
    <glyph glyph-name="Q" unicode="Q" horiz-adv-x="837" 
d="M792 73l-74 -94l-87 80q-93 -67 -219 -67q-160 0 -261.5 102.5t-101.5 260.5q0 159 101.5 261.5t261.5 102.5q157 0 259 -101.5t102 -262.5q0 -120 -60 -212zM412 123q62 0 113 32l-65 59l73 89l68 -61q25 53 25 113q0 98 -60 165t-154 67q-93 0 -155 -66t-62 -166
t62 -166t155 -66z" />
    <glyph glyph-name="R" unicode="R" horiz-adv-x="657" 
d="M624 0h-166l-159 243h-82v-243h-139v710h269q123 0 185 -64.5t62 -171.5q0 -166 -146 -214zM217 585v-218h98q64 0 99 29.5t35 80.5q0 50 -33.5 79t-94.5 29h-104z" />
    <glyph glyph-name="S" unicode="S" horiz-adv-x="584" 
d="M292 -8q-151 0 -259 112l84 104q38 -44 85 -66.5t92 -22.5q50 0 76 20.5t26 54.5q0 37 -27 56.5t-97 43.5q-48 17 -80 32.5t-66 41.5t-51 63t-17 85q0 85 66 143t162 60q130 1 239 -90l-81 -106q-84 70 -155 70q-38 0 -61.5 -19t-23.5 -52q-1 -31 25 -49.5t94 -45.5
q110 -43 144 -66q76 -52 76 -151q0 -107 -76 -162.5t-175 -55.5z" />
    <glyph glyph-name="T" unicode="T" horiz-adv-x="591" 
d="M225 0v584h-196v126h533v-126h-197v-584h-140z" />
    <glyph glyph-name="U" unicode="U" horiz-adv-x="713" 
d="M355 -8q-130 0 -208 79.5t-78 222.5v416h141v-407q0 -79 38.5 -129t106.5 -50q66 0 107 48t41 131v407h141v-416q0 -140 -76.5 -221t-212.5 -81z" />
    <glyph glyph-name="V" unicode="V" horiz-adv-x="692" 
d="M522 710h151l-263 -710h-124l-264 710h153l172 -510h2z" />
    <glyph glyph-name="W" unicode="W" horiz-adv-x="1033" 
d="M857 710h150l-224 -710h-130l-133 505h-3l-138 -505h-129l-224 710h150l138 -480h2l126 480h149l126 -480h1z" />
    <glyph glyph-name="X" unicode="X" horiz-adv-x="702" 
d="M512 0l-160 249h-2l-160 -249h-164l232 357l-225 353h161l156 -245h2l156 245h161l-225 -353l232 -357h-164z" />
    <glyph glyph-name="Y" unicode="Y" horiz-adv-x="632" 
d="M460 710h163l-237 -398v-312h-142v312l-235 398h161l145 -259h2z" />
    <glyph glyph-name="Z" unicode="Z" horiz-adv-x="624" 
d="M230 125h340v-125h-519v110l332 473v1h-318v126h504v-107l-339 -476v-2z" />
    <glyph glyph-name="bracketleft" unicode="[" horiz-adv-x="345" 
d="M62 -148v881h237v-97h-125v-686h125v-98h-237z" />
    <glyph glyph-name="backslash" unicode="\" horiz-adv-x="443" 
d="M372 -112l-381 854l97 45l382 -854z" />
    <glyph glyph-name="bracketright" unicode="]" horiz-adv-x="345" 
d="M283 -148h-237v98h125v686h-125v97h237v-881z" />
    <glyph glyph-name="asciicircum" unicode="^" horiz-adv-x="467" 
d="M51 500l136 210h92l138 -210h-107l-77 128l-80 -128h-102z" />
    <glyph glyph-name="underscore" unicode="_" horiz-adv-x="533" 
d="M-2 -115v88h537v-88h-537z" />
    <glyph glyph-name="grave" unicode="`" horiz-adv-x="498" 
d="M229 535l-123 148l137 -1l113 -147h-127z" />
    <glyph glyph-name="a" unicode="a" horiz-adv-x="607" 
d="M415 488h130v-488h-124v59h-3q-51 -67 -146 -67q-102 0 -167.5 69.5t-65.5 181.5q0 110 65.5 181.5t164.5 71.5q91 0 143 -63h3v55zM296 109q52 0 88 37t36 96t-35 98t-88 39q-54 0 -90 -37.5t-36 -99.5q0 -59 35 -96t90 -37z" />
    <glyph glyph-name="b" unicode="b" horiz-adv-x="617" 
d="M347 496q99 0 164.5 -71.5t65.5 -181.5q0 -112 -65.5 -181.5t-168.5 -69.5q-96 0 -149 67h-3v-59h-125v736h131v-303h3q54 63 147 63zM319 109q56 0 90.5 37t34.5 96q0 62 -35.5 99.5t-89.5 37.5q-56 0 -92 -39t-36 -98t37 -96t91 -37z" />
    <glyph glyph-name="c" unicode="c" horiz-adv-x="531" 
d="M291 -8q-110 0 -180.5 70t-70.5 182t71.5 182t185.5 70q61 0 116 -24t91 -69l-88 -76q-45 52 -114 52q-58 0 -94 -37.5t-36 -96.5q0 -60 36.5 -98t94.5 -38q70 0 114 50l89 -79q-34 -39 -89.5 -63.5t-125.5 -24.5z" />
    <glyph glyph-name="d" unicode="d" horiz-adv-x="616" 
d="M419 736h131v-736h-125v59h-2q-53 -67 -150 -67q-102 0 -168 69.5t-66 181.5q0 110 65.5 181.5t164.5 71.5q93 0 147 -63h3v303zM297 109q55 0 92 37t37 96t-36.5 98t-92.5 39q-54 0 -89.5 -37.5t-35.5 -99.5q0 -59 35 -96t90 -37z" />
    <glyph glyph-name="e" unicode="e" horiz-adv-x="560" 
d="M521 249q0 -39 -3 -47h-343q12 -44 45 -69t80 -25q71 -1 117 55l85 -79q-73 -92 -211 -92q-109 0 -180 70t-71 183q0 110 68.5 180.5t173.5 70.5q106 0 172.5 -69.5t66.5 -177.5zM286 381q-41 0 -70 -22t-40 -63h215q-22 85 -105 85z" />
    <glyph glyph-name="f" unicode="f" horiz-adv-x="348" 
d="M84 0v380h-51v108h51v84q0 85 40 129t114 44q73 0 126 -36l-26 -102q-42 21 -73 21q-50 0 -50 -65v-75h109v-108h-109v-380h-131z" />
    <glyph glyph-name="g" unicode="g" horiz-adv-x="605" 
d="M413 488h130v-432q0 -262 -254 -262q-112 0 -201 49l31 111q82 -46 158 -46q66 0 102.5 31t36.5 78v49h-3q-52 -57 -142 -57q-102 0 -167.5 67t-65.5 173q0 108 64 177.5t162 69.5q88 0 146 -58h3v50zM295 127q54 0 88.5 35.5t34.5 91.5q0 55 -35 89t-88 34
q-55 0 -89.5 -34.5t-34.5 -89.5q0 -57 35 -91.5t89 -34.5z" />
    <glyph glyph-name="h" unicode="h" horiz-adv-x="597" 
d="M358 496q180 0 180 -203v-293h-131v260q0 65 -23.5 92t-71.5 27q-54 0 -84.5 -33.5t-30.5 -97.5v-248h-131v736h131v-307h2q60 67 159 67z" />
    <glyph glyph-name="i" unicode="i" horiz-adv-x="275" 
d="M138 557q-33 0 -57 23.5t-24 56.5t24 56.5t57 23.5q34 0 58 -23.5t24 -56.5t-24 -56.5t-58 -23.5zM72 0v488h131v-488h-131z" />
    <glyph glyph-name="j" unicode="j" horiz-adv-x="257" 
d="M129 560q-33 0 -57 23.5t-24 56.5t24 56.5t57 23.5q34 0 58 -23.5t24 -56.5t-24 -56.5t-58 -23.5zM52 -206q-58 0 -102 18l22 108q22 -12 43 -12q50 0 50 68v512h131v-517q0 -86 -39 -131.5t-105 -45.5z" />
    <glyph glyph-name="k" unicode="k" horiz-adv-x="539" 
d="M267 194h-2l-68 -77v-117h-131v736h131v-445h1l175 197h153l-172 -194l175 -294h-146z" />
    <glyph glyph-name="l" unicode="l" horiz-adv-x="275" 
d="M72 0v736h131v-736h-131z" />
    <glyph glyph-name="m" unicode="m" horiz-adv-x="892" 
d="M661 496q172 0 172 -212v-284h-131v252q0 127 -85 127q-43 0 -71.5 -35.5t-28.5 -99.5v-244h-131v252q0 127 -86 127q-46 0 -74.5 -35.5t-28.5 -99.5v-244h-131v488h131v-65h1q58 73 146 73q102 0 145 -78h2q61 78 170 78z" />
    <glyph glyph-name="n" unicode="n" horiz-adv-x="592" 
d="M355 496q178 0 178 -206v-290h-131v257q0 67 -23 94.5t-71 27.5q-51 0 -81 -34.5t-30 -98.5v-246h-131v488h131v-63h2q60 71 156 71z" />
    <glyph glyph-name="o" unicode="o" horiz-adv-x="598" 
d="M299 -8q-115 0 -187 71t-72 181t72 181t187 71q114 0 187 -70t73 -182t-73 -182t-187 -70zM299 109q54 0 90.5 38t36.5 97q0 60 -36 97.5t-91 37.5q-56 0 -91.5 -38.5t-35.5 -96.5q0 -57 36 -96t91 -39z" />
    <glyph glyph-name="p" unicode="p" horiz-adv-x="617" 
d="M347 496q99 0 164.5 -71.5t65.5 -181.5q0 -112 -65.5 -181.5t-168.5 -69.5q-90 0 -144 63h-2v-253h-131v686h131v-56h2q56 64 148 64zM319 109q56 0 90.5 37t34.5 96q0 62 -35.5 99.5t-89.5 37.5q-56 0 -91.5 -39t-35.5 -98t36.5 -96t90.5 -37z" />
    <glyph glyph-name="q" unicode="q" horiz-adv-x="614" 
d="M420 488h131v-686h-131v254h-1q-55 -64 -146 -64q-102 0 -167.5 69.5t-65.5 181.5q0 110 65.5 181.5t164.5 71.5q92 0 148 -64h2v56zM297 109q55 0 91.5 37t36.5 96t-35.5 98t-91.5 39q-54 0 -90 -37.5t-36 -99.5q0 -59 35 -96t90 -37z" />
    <glyph glyph-name="r" unicode="r" horiz-adv-x="375" 
d="M346 496q8 0 10 -1v-142q-13 1 -34 1q-59 0 -92 -35.5t-33 -91.5v-227h-131v488h131v-72h1q57 80 148 80z" />
    <glyph glyph-name="s" unicode="s" horiz-adv-x="448" 
d="M224 -8q-115 0 -198 71l64 91q60 -57 135 -57q28 0 44 11t16 29q0 16 -19 27t-70 27q-71 24 -110.5 59.5t-39.5 99.5q0 65 50 105.5t126 40.5q100 0 178 -61l-63 -96q-55 52 -117 52q-18 0 -33 -9.5t-15 -27.5q0 -14 17.5 -25.5t56.5 -26.5q40 -15 59 -22.5t45 -22
t36.5 -28t19 -35.5t8.5 -50q0 -68 -48.5 -110t-141.5 -42z" />
    <glyph glyph-name="t" unicode="t" horiz-adv-x="373" 
d="M218 -8q-65 0 -102 41t-37 121v226h-58v108h58v160l130 14v-174h133v-108h-133v-208q0 -62 43 -62q28 0 62 17l34 -105q-56 -30 -130 -30z" />
    <glyph glyph-name="u" unicode="u" horiz-adv-x="577" 
d="M384 488h131v-488h-131v60h-2q-56 -68 -145 -68q-179 0 -179 202v294h130v-259q0 -66 20.5 -93t67.5 -27q45 0 76.5 37.5t31.5 104.5v237z" />
    <glyph glyph-name="v" unicode="v" horiz-adv-x="540" 
d="M384 488h139l-191 -488h-123l-192 488h138l115 -328h1z" />
    <glyph glyph-name="w" unicode="w" horiz-adv-x="772" 
d="M621 488h131l-166 -488h-113l-86 301h-2l-86 -301h-112l-167 488h131l95 -297h2l85 297h105l86 -297h2z" />
    <glyph glyph-name="x" unicode="x" horiz-adv-x="528" 
d="M364 0l-99 140h-2l-99 -140h-143l169 249l-167 239h149l91 -140h1l92 140h148l-166 -238l169 -250h-143z" />
    <glyph glyph-name="y" unicode="y" horiz-adv-x="539" 
d="M386 488h136l-263 -686h-134l86 228l-194 458h136l120 -302h1z" />
    <glyph glyph-name="z" unicode="z" horiz-adv-x="486" 
d="M448 400l-239 -291v-2h234v-107h-406v89l235 291v1h-218v107h394v-88z" />
    <glyph glyph-name="braceleft" unicode="{" horiz-adv-x="358" 
d="M238 399q0 -45 -12.5 -70t-41.5 -36v-2q31 -11 42.5 -31t11.5 -76v-174q0 -36 12 -53t45 -17h22v-86h-72q-50 0 -84 34.5t-34 91.5v185q0 20 -1.5 30t-9 23t-25.5 18.5t-47 6.5v97q29 1 47 8t25.5 20t9 23t1.5 27v188q0 54 32.5 90.5t85.5 36.5h72v-87h-22
q-30 0 -43.5 -20t-13.5 -44v-183z" />
    <glyph glyph-name="bar" unicode="|" horiz-adv-x="317" 
d="M105 -115v852h107v-852h-107z" />
    <glyph glyph-name="braceright" unicode="}" horiz-adv-x="358" 
d="M231 418q0 -17 1.5 -27t9 -23t25.5 -20t47 -8v-97q-29 -1 -47 -6.5t-25.5 -18.5t-9 -23t-1.5 -30v-185q0 -57 -34 -91.5t-84 -34.5h-72v86h22q33 0 45 17t12 53v174q0 56 11.5 76t42.5 31v2q-29 11 -41.5 36t-12.5 70v183q0 24 -13.5 44t-43.5 20h-22v87h72
q53 0 85.5 -36.5t32.5 -90.5v-188z" />
    <glyph glyph-name="asciitilde" unicode="~" horiz-adv-x="570" 
d="M142 195l-90 37q19 57 55.5 92t85.5 35t103 -26q40 -19 65 -19q43 0 68 46l90 -30q-19 -60 -55.5 -97t-83.5 -37q-41 0 -104 27q-44 19 -66 19q-41 0 -68 -47z" />
    <glyph glyph-name="exclamdown" unicode="&#xa1;" horiz-adv-x="281" 
d="M140 495q33 0 57 -23t24 -56t-24 -56.5t-57 -23.5q-34 0 -57.5 23.5t-23.5 56.5t23.5 56t57.5 23zM94 254h96l24 -503h-143z" />
    <glyph glyph-name="cent" unicode="&#xa2;" horiz-adv-x="543" 
d="M511 133q-57 -66 -160 -83v-95h-101v93q-93 14 -151 82t-58 168q0 98 57 165.5t152 83.5v91h101v-91q101 -18 158 -90l-88 -76q-45 52 -116 52q-59 0 -95.5 -37.5t-36.5 -96.5t37 -97t96 -38q72 0 115 49z" />
    <glyph glyph-name="sterling" unicode="&#xa3;" horiz-adv-x="568" 
d="M44 0v125h66v190h-55v96h55v43q0 123 59 181.5t151 58.5q58 0 111 -25.5t88 -72.5l-69 -90q-48 61 -111 61q-89 0 -89 -123v-33h153v-96h-152v-190h289v-125h-496z" />
    <glyph glyph-name="currency" unicode="&#xa4;" horiz-adv-x="513" 
d="M439 387q0 -52 -28 -96l79 -80l-58 -60l-81 81q-44 -27 -96 -27t-96 27l-80 -80l-60 60l80 80q-26 43 -26 95q0 51 26 96l-80 80l60 60l80 -79q44 27 96 27t96 -28l81 81l59 -60l-80 -80q28 -46 28 -97zM256 296q38 1 65 28t28 65q-1 38 -28.5 65.5t-65.5 27.5
q-38 -1 -65 -28t-27 -65t27.5 -65t65.5 -28z" />
    <glyph glyph-name="yen" unicode="&#xa5;" horiz-adv-x="596" 
d="M590 686l-150 -271h74v-66h-111l-27 -50h138v-66h-145v-233h-142v233h-154v66h147l-27 50h-120v66h83l-150 271h162l130 -261l128 261h164z" />
    <glyph glyph-name="brokenbar" unicode="&#xa6;" horiz-adv-x="317" 
d="M105 385v352h107v-352h-107zM105 -114v352h107v-352h-107z" />
    <glyph glyph-name="section" unicode="&#xa7;" horiz-adv-x="550" 
d="M427 141q55 -44 55 -120q0 -80 -56.5 -127t-149.5 -47q-132 0 -225 96l76 91q68 -69 147 -69q30 0 49 15t19 39t-19 38.5t-72 34.5q-50 19 -79.5 32.5t-61 35t-45.5 48.5t-14 62q0 89 74 132q-53 43 -53 115q0 74 53.5 122.5t143.5 48.5q52 0 109.5 -22t99.5 -57l-74 -91
q-68 49 -128 49q-31 0 -48 -13.5t-17 -34.5q0 -22 17.5 -35t66.5 -34q114 -47 142 -66q61 -48 63 -119q0 -80 -73 -124zM180 294q0 -26 23 -44.5t85 -41.5q5 -2 17 -6.5t18 -7.5q48 12 48 54q0 27 -21.5 43t-90.5 43l-30 12q-49 -12 -49 -52z" />
    <glyph glyph-name="dieresis" unicode="&#xa8;" horiz-adv-x="523" 
d="M157 536q-34 0 -57.5 23.5t-23.5 56.5t23.5 56.5t57.5 23.5q33 0 57 -23.5t24 -56.5t-24 -56.5t-57 -23.5zM367 537q-34 0 -57.5 23.5t-23.5 55.5t23.5 55.5t57.5 23.5q32 0 56 -23.5t24 -55.5t-24 -55.5t-56 -23.5z" />
    <glyph glyph-name="copyright" unicode="&#xa9;" horiz-adv-x="718" 
d="M358 0q-132 0 -223.5 94t-91.5 224t92.5 223.5t224.5 93.5t223 -93.5t91 -223.5t-92 -224t-224 -94zM358 84q98 0 165 68.5t67 165.5t-66.5 165t-163.5 68q-98 0 -165 -68.5t-67 -165.5t66.5 -165t163.5 -68zM368 153q-71 0 -118 42.5t-47 120.5q0 71 44 117.5t121 46.5
q78 0 129 -62l-55 -47q-30 37 -74 37q-38 0 -62.5 -24.5t-24.5 -67.5q0 -40 24 -65.5t63 -25.5q47 0 74 36l55 -47q-50 -61 -129 -61z" />
    <glyph glyph-name="ordfeminine" unicode="&#xaa;" horiz-adv-x="385" 
d="M261 687h90v-294h-90v32h-2q-33 -38 -92 -38q-63 0 -101.5 42.5t-38.5 110.5q0 67 38 109.5t97 42.5q60 0 98 -45h1v40zM190 473q30 0 49 18.5t19 48.5t-19 48.5t-48 18.5q-30 0 -50 -18.5t-20 -48.5t19.5 -48.5t49.5 -18.5z" />
    <glyph glyph-name="guillemotleft" unicode="&#xab;" horiz-adv-x="512" 
d="M283 39h-127l-118 208l120 211h126l-121 -211zM488 39h-127l-118 208l120 211h127l-122 -211z" />
    <glyph glyph-name="logicalnot" unicode="&#xac;" horiz-adv-x="552" 
d="M389 146v163h-340v112h454v-275h-114z" />
    <glyph glyph-name="registered" unicode="&#xae;" horiz-adv-x="723" 
d="M362 639q133 0 225 -94t92 -226q0 -131 -92.5 -225t-226.5 -94q-132 0 -224.5 94t-92.5 225t93 225.5t226 94.5zM360 83q99 0 166.5 69t67.5 167t-67 167t-165 69q-99 0 -166.5 -69.5t-67.5 -167.5t67 -166.5t165 -68.5zM487 373q0 -73 -61 -97l76 -116h-85l-67 106h-30
v-106h-73v323h126q57 0 85.5 -30t28.5 -80zM320 417v-86h36q26 0 40 11.5t14 31.5q0 19 -14 31t-39 12h-37z" />
    <glyph glyph-name="macron" unicode="&#xaf;" horiz-adv-x="443" 
d="M70 562v105h304v-105h-304z" />
    <glyph glyph-name="degree" unicode="&#xb0;" horiz-adv-x="387" 
d="M193 440q-58 0 -100 41t-42 98q0 56 43 98t99 42q57 0 99.5 -42t42.5 -99t-41.5 -97.5t-100.5 -40.5zM193 519q26 0 43 17t17 43q0 25 -17.5 43t-42.5 18q-24 0 -42 -18t-18 -43t17.5 -42.5t42.5 -17.5z" />
    <glyph glyph-name="plusminus" unicode="&#xb1;" horiz-adv-x="605" 
d="M237 177v179h-179v114h179v180h116v-180h179v-114h-179v-179h-116zM72 -3v114h474v-114h-474z" />
    <glyph glyph-name="uni00B2" unicode="&#xb2;" horiz-adv-x="341" 
d="M171 529h143v-93h-290l-1 68l129 129q54 54 54 84q0 19 -12.5 30.5t-33.5 11.5q-39 0 -65 -37l-75 54q20 34 59 56t90 22q59 0 100.5 -34t41.5 -91q0 -38 -15 -68t-58 -69l-67 -61v-2z" />
    <glyph glyph-name="uni00B3" unicode="&#xb3;" horiz-adv-x="348" 
d="M260 648q64 -30 64 -99q0 -55 -41.5 -87.5t-108.5 -32.5q-57 0 -100.5 27.5t-59.5 69.5l92 37q15 -44 61 -44q23 0 37 12t14 32q0 21 -16 33t-44 12h-28v76h35q22 0 35 10.5t13 27.5q0 19 -12.5 30.5t-33.5 11.5q-38 0 -51 -35l-85 45q14 36 51 58t85 22q62 0 103 -30
t41 -83q0 -60 -51 -92v-1z" />
    <glyph glyph-name="acute" unicode="&#xb4;" horiz-adv-x="499" 
d="M142 535l113 147l137 1l-124 -148h-126z" />
    <glyph glyph-name="uni00B5" unicode="&#xb5;" horiz-adv-x="582" 
d="M390 488h131v-488h-121l-7 61h-2q-53 -69 -133 -69q-47 0 -73 23l-1 -1q9 -52 9 -111v-101h-130v686h130v-250q0 -129 94 -129q45 0 74 36t29 99v244z" />
    <glyph glyph-name="paragraph" unicode="&#xb6;" horiz-adv-x="538" 
d="M379 -152v739h-63v-587h-80v298q-90 7 -144.5 55t-54.5 130q0 86 58 137t160 51h201v-823h-77z" />
    <glyph glyph-name="periodcentered" unicode="&#xb7;" horiz-adv-x="276" 
d="M140 164q-34 0 -57.5 23t-23.5 56t23.5 56.5t57.5 23.5q33 0 57 -23.5t24 -56.5t-24 -56t-57 -23z" />
    <glyph glyph-name="cedilla" unicode="&#xb8;" horiz-adv-x="370" 
d="M184 -31q93 -3 93 -81q0 -36 -30.5 -57.5t-92.5 -21.5q-31 0 -61 6v59q18 -7 52 -7q47 0 47 28q0 14 -21.5 23t-60.5 9v37l21 42h72l-20 -36z" />
    <glyph glyph-name="uni00B9" unicode="&#xb9;" horiz-adv-x="284" 
d="M127 436v285l-63 -44l-50 79l136 92h79v-412h-102z" />
    <glyph glyph-name="ordmasculine" unicode="&#xba;" horiz-adv-x="384" 
d="M187 387q-70 0 -115 43t-45 110t45 109.5t115 42.5t115.5 -42.5t45.5 -109.5t-45.5 -110t-115.5 -43zM187 472q27 0 46 19t19 49q0 31 -18 49.5t-47 18.5q-28 0 -46 -19t-18 -49q0 -29 18 -48.5t46 -19.5z" />
    <glyph glyph-name="guillemotright" unicode="&#xbb;" horiz-adv-x="511" 
d="M24 39l120 208l-122 211h127l120 -211l-118 -208h-127zM229 39l120 208l-121 211h126l120 -211l-118 -208h-127z" />
    <glyph glyph-name="onequarter" unicode="&#xbc;" horiz-adv-x="817" 
d="M300 -23l-99 42l315 706l98 -42zM127 299v285l-63 -44l-50 79l136 92h79v-412h-102zM641 0v63h-168v62l190 287h80v-262h54v-87h-54v-63h-102zM573 144h76v118z" />
    <glyph glyph-name="onehalf" unicode="&#xbd;" horiz-adv-x="851" 
d="M516 725l98 -42l-314 -706l-99 42zM229 299h-102v285l-63 -44l-50 79l136 92h79v-412zM681 93h143v-93h-290l-1 68l129 129q54 54 54 84q0 19 -12.5 30.5t-33.5 11.5q-39 0 -65 -37l-75 54q20 34 59 56t90 22q59 0 100.5 -34t41.5 -91q0 -38 -15 -68t-58 -69l-67 -61v-2z
" />
    <glyph glyph-name="threequarters" unicode="&#xbe;" horiz-adv-x="859" 
d="M557 725l98 -42l-314 -706l-99 42zM324 412q0 -55 -41.5 -87.5t-108.5 -32.5q-57 0 -100.5 27.5t-59.5 69.5l92 37q15 -44 61 -44q23 0 37 12t14 32q0 21 -16 33t-44 12h-28v76h35q22 0 35 10.5t13 27.5q0 19 -12.5 30.5t-33.5 11.5q-38 0 -51 -35l-85 45q14 36 51 58
t85 22q62 0 103 -30t41 -83q0 -60 -51 -92v-1q64 -30 64 -99zM785 150h54v-87h-54v-63h-102v63h-168v62l190 287h80v-262zM691 144v118l-76 -118h76z" />
    <glyph glyph-name="questiondown" unicode="&#xbf;" horiz-adv-x="452" 
d="M266 496q34 0 57.5 -23t23.5 -56t-23.5 -56.5t-57.5 -23.5q-33 0 -57 23.5t-24 56.5t24 56t57 23zM326 257l1 -50q0 -15 -4 -30.5t-8 -25.5t-15.5 -25.5t-16.5 -21t-21.5 -23t-19.5 -21.5q-64 -66 -64 -114q0 -37 22 -57.5t58 -20.5q61 0 101 54l93 -87
q-34 -42 -88.5 -67t-116.5 -25q-90 0 -150.5 50.5t-60.5 144.5q0 53 23.5 93t64.5 80q5 5 19.5 18t20 18t16 16t14.5 18t8 16t5 18l3 42h116z" />
    <glyph glyph-name="Agrave" unicode="&#xc0;" horiz-adv-x="698" 
d="M407 784h-127l-123 148l137 -1zM535 0l-48 142h-273l-48 -142h-147l263 710h135l265 -710h-147zM255 262h191l-95 279h-2z" />
    <glyph glyph-name="Aacute" unicode="&#xc1;" horiz-adv-x="698" 
d="M543 932l-124 -148h-126l113 147zM535 0l-48 142h-273l-48 -142h-147l263 710h135l265 -710h-147zM255 262h191l-95 279h-2z" />
    <glyph glyph-name="Acircumflex" unicode="&#xc2;" horiz-adv-x="698" 
d="M348 857l-50 -75h-120l111 150h116l117 -150h-121l-51 75h-2zM535 0l-48 142h-273l-48 -142h-147l263 710h135l265 -710h-147zM255 262h191l-95 279h-2z" />
    <glyph glyph-name="Atilde" unicode="&#xc3;" horiz-adv-x="698" 
d="M290 831q-35 0 -56 -50l-78 34q16 53 46.5 84.5t73.5 31.5q36 0 86 -27q36 -22 54 -22q36 0 57 49l76 -26q-16 -57 -46 -91t-71 -34t-87 30q-36 21 -55 21zM535 0l-48 142h-273l-48 -142h-147l263 710h135l265 -710h-147zM255 262h191l-95 279h-2z" />
    <glyph glyph-name="Adieresis" unicode="&#xc4;" horiz-adv-x="698" 
d="M244 785q-34 0 -57.5 23.5t-23.5 56.5t23.5 56.5t57.5 23.5q33 0 57 -23.5t24 -56.5t-24 -56.5t-57 -23.5zM454 786q-34 0 -57.5 23.5t-23.5 55.5t23.5 55.5t57.5 23.5q32 0 56 -23.5t24 -55.5t-24 -55.5t-56 -23.5zM535 0l-48 142h-273l-48 -142h-147l263 710h135
l265 -710h-147zM255 262h191l-95 279h-2z" />
    <glyph glyph-name="Aring" unicode="&#xc5;" horiz-adv-x="698" 
d="M349 761q-44 0 -75.5 30t-31.5 74q0 43 30.5 74t76.5 31t77.5 -30t31.5 -75q0 -44 -30.5 -74t-78.5 -30zM349 904q-15 0 -26 -11.5t-11 -26.5q0 -16 10.5 -26.5t26.5 -10.5t27 11t11 27q0 15 -11 26t-27 11zM535 0l-48 142h-273l-48 -142h-147l263 710h135l265 -710h-147
zM255 262h191l-95 279h-2z" />
    <glyph glyph-name="AE" unicode="&#xc6;" horiz-adv-x="956" 
d="M572 125h337v-125h-475v142h-210l-70 -142h-148l356 710h527v-126h-317v-169h258v-124h-258v-166zM283 262h151v300h-2z" />
    <glyph glyph-name="Ccedilla" unicode="&#xc7;" horiz-adv-x="726" 
d="M411 126q107 0 180 90l103 -89q-106 -131 -275 -134l-13 -23l1 -1q93 -3 93 -81q0 -36 -30.5 -57.5t-92.5 -21.5q-31 0 -61 6v59q18 -7 52 -7q47 0 47 28q0 14 -21.5 23t-60.5 9v37l15 30v4q-131 19 -215 112t-84 243q0 158 96.5 262t265.5 104q78 0 152.5 -34
t130.5 -102l-103 -88q-77 90 -180 90q-94 0 -154.5 -63.5t-60.5 -168.5q0 -99 60 -163t155 -64z" />
    <glyph glyph-name="Egrave" unicode="&#xc8;" horiz-adv-x="600" 
d="M295 783l-123 148l137 -1l113 -147h-127zM78 0v710h454v-126h-316v-170h253v-124h-253v-165h337v-125h-475z" />
    <glyph glyph-name="Eacute" unicode="&#xc9;" horiz-adv-x="600" 
d="M205 783l113 147l137 1l-124 -148h-126zM78 0v710h454v-126h-316v-170h253v-124h-253v-165h337v-125h-475z" />
    <glyph glyph-name="Ecircumflex" unicode="&#xca;" horiz-adv-x="600" 
d="M309 856l-50 -75h-120l111 150h116l117 -150h-121l-51 75h-2zM216 125h337v-125h-475v710h454v-126h-316v-170h253v-124h-253v-165z" />
    <glyph glyph-name="Edieresis" unicode="&#xcb;" horiz-adv-x="600" 
d="M205 784q-34 0 -57.5 23.5t-23.5 56.5t23.5 56.5t57.5 23.5q33 0 57 -23.5t24 -56.5t-24 -56.5t-57 -23.5zM415 785q-34 0 -57.5 23.5t-23.5 55.5t23.5 55.5t57.5 23.5q32 0 56 -23.5t24 -55.5t-24 -55.5t-56 -23.5zM78 0v710h454v-126h-316v-170h253v-124h-253v-165h337
v-125h-475z" />
    <glyph glyph-name="Igrave" unicode="&#xcc;" horiz-adv-x="307" 
d="M91 783l-123 148l137 -1l113 -147h-127zM83 0v710h141v-710h-141z" />
    <glyph glyph-name="Iacute" unicode="&#xcd;" horiz-adv-x="307" 
d="M95 783l113 147l137 1l-124 -148h-126zM83 0v710h141v-710h-141z" />
    <glyph glyph-name="Icircumflex" unicode="&#xce;" horiz-adv-x="307" 
d="M150 856l-50 -75h-120l111 150h116l117 -150h-121l-51 75h-2zM83 0v710h141v-710h-141z" />
    <glyph glyph-name="Idieresis" unicode="&#xcf;" horiz-adv-x="307" 
d="M46 784q-34 0 -57.5 23.5t-23.5 56.5t23.5 56.5t57.5 23.5q33 0 57 -23.5t24 -56.5t-24 -56.5t-57 -23.5zM256 785q-34 0 -57.5 23.5t-23.5 55.5t23.5 55.5t57.5 23.5q32 0 56 -23.5t24 -55.5t-24 -55.5t-56 -23.5zM83 0v710h141v-710h-141z" />
    <glyph glyph-name="Eth" unicode="&#xd0;" horiz-adv-x="730" 
d="M313 710q167 0 268 -98.5t101 -257.5t-98.5 -256.5t-267.5 -97.5h-238v293h-53v117h53v300h235zM307 125q102 0 165.5 65t63.5 164q0 100 -62 165t-158 65h-99v-174h111v-117h-111v-168h90z" />
    <glyph glyph-name="Ntilde" unicode="&#xd1;" horiz-adv-x="755" 
d="M319 831q-35 0 -56 -50l-78 34q16 53 46.5 84.5t73.5 31.5q37 0 86 -27q36 -22 54 -22q36 0 57 49l76 -26q-16 -57 -46 -91t-71 -34t-87 30q-36 21 -55 21zM536 710h141v-710h-144l-313 471h-2v-471h-140v710h140l317 -480h1v480z" />
    <glyph glyph-name="Ograve" unicode="&#xd2;" horiz-adv-x="821" 
d="M355 784l-123 148l137 -1l113 -147h-127zM411 -8q-160 0 -261 102.5t-101 260.5q0 159 101 261.5t261 102.5q158 0 259.5 -101t101.5 -263t-101.5 -262.5t-259.5 -100.5zM412 123q92 0 153 66t61 166t-61 166t-153 66q-95 0 -156 -67t-61 -165t61 -165t156 -67z" />
    <glyph glyph-name="Oacute" unicode="&#xd3;" horiz-adv-x="821" 
d="M353 784l113 147l137 1l-124 -148h-126zM411 -8q-160 0 -261 102.5t-101 260.5q0 159 101 261.5t261 102.5q158 0 259.5 -101t101.5 -263t-101.5 -262.5t-259.5 -100.5zM412 123q92 0 153 66t61 166t-61 166t-153 66q-95 0 -156 -67t-61 -165t61 -165t156 -67z" />
    <glyph glyph-name="Ocircumflex" unicode="&#xd4;" horiz-adv-x="821" 
d="M410 857l-50 -75h-120l111 150h116l117 -150h-121l-51 75h-2zM411 719q158 0 259.5 -101t101.5 -263t-101.5 -262.5t-259.5 -100.5q-160 0 -261 102.5t-101 260.5q0 159 101 261.5t261 102.5zM412 123q92 0 153 66t61 166t-61 166t-153 66q-95 0 -156 -67t-61 -165
t61 -165t156 -67z" />
    <glyph glyph-name="Otilde" unicode="&#xd5;" horiz-adv-x="821" 
d="M494 780q-41 0 -87 30q-36 21 -55 21q-35 0 -56 -50l-78 34q16 53 46.5 84.5t73.5 31.5q36 0 86 -27q36 -22 54 -22q36 0 57 49l76 -26q-16 -57 -46 -91t-71 -34zM411 -8q-160 0 -261 102.5t-101 260.5q0 159 101 261.5t261 102.5q158 0 259.5 -101t101.5 -263
t-101.5 -262.5t-259.5 -100.5zM412 123q92 0 153 66t61 166t-61 166t-153 66q-95 0 -156 -67t-61 -165t61 -165t156 -67z" />
    <glyph glyph-name="Odieresis" unicode="&#xd6;" horiz-adv-x="821" 
d="M306 785q-34 0 -57.5 23.5t-23.5 56.5t23.5 56.5t57.5 23.5q33 0 57 -23.5t24 -56.5t-24 -56.5t-57 -23.5zM516 786q-34 0 -57.5 23.5t-23.5 55.5t23.5 55.5t57.5 23.5q32 0 56 -23.5t24 -55.5t-24 -55.5t-56 -23.5zM411 -8q-160 0 -261 102.5t-101 260.5
q0 159 101 261.5t261 102.5q158 0 259.5 -101t101.5 -263t-101.5 -262.5t-259.5 -100.5zM412 123q92 0 153 66t61 166t-61 166t-153 66q-95 0 -156 -67t-61 -165t61 -165t156 -67z" />
    <glyph glyph-name="multiply" unicode="&#xd7;" horiz-adv-x="527" 
d="M127 61l-80 80l137 137l-137 136l80 80l136 -137l137 138l80 -81l-137 -138l137 -136l-80 -79l-136 136z" />
    <glyph glyph-name="Oslash" unicode="&#xd8;" horiz-adv-x="821" 
d="M778 677l-81 -89q75 -97 75 -233q0 -162 -101.5 -262.5t-259.5 -100.5q-118 0 -208 59l-78 -86l-67 63l76 83q-85 99 -85 244q0 159 101 261.5t261 102.5q129 0 220 -68l80 87zM195 355q0 -77 39 -136l302 328q-54 40 -124 40q-95 0 -156 -67t-61 -165zM626 355
q0 68 -30 123l-297 -323q49 -32 113 -32q92 0 153 66t61 166z" />
    <glyph glyph-name="Ugrave" unicode="&#xd9;" horiz-adv-x="713" 
d="M311 784l-123 148l137 -1l113 -147h-127zM355 -8q-130 0 -208 79.5t-78 222.5v416h141v-407q0 -79 38.5 -129t106.5 -50q66 0 107 48t41 131v407h141v-416q0 -140 -76.5 -221t-212.5 -81z" />
    <glyph glyph-name="Uacute" unicode="&#xda;" horiz-adv-x="713" 
d="M277 784l113 147l137 1l-124 -148h-126zM355 -8q-130 0 -208 79.5t-78 222.5v416h141v-407q0 -79 38.5 -129t106.5 -50q66 0 107 48t41 131v407h141v-416q0 -140 -76.5 -221t-212.5 -81z" />
    <glyph glyph-name="Ucircumflex" unicode="&#xdb;" horiz-adv-x="713" 
d="M354 857l-50 -75h-120l111 150h116l117 -150h-121l-51 75h-2zM503 710h141v-416q0 -140 -76.5 -221t-212.5 -81q-130 0 -208 79.5t-78 222.5v416h141v-407q0 -79 38.5 -129t106.5 -50q66 0 107 48t41 131v407z" />
    <glyph glyph-name="Udieresis" unicode="&#xdc;" horiz-adv-x="713" 
d="M250 785q-34 0 -57.5 23.5t-23.5 56.5t23.5 56.5t57.5 23.5q33 0 57 -23.5t24 -56.5t-24 -56.5t-57 -23.5zM460 786q-34 0 -57.5 23.5t-23.5 55.5t23.5 55.5t57.5 23.5q32 0 56 -23.5t24 -55.5t-24 -55.5t-56 -23.5zM355 -8q-130 0 -208 79.5t-78 222.5v416h141v-407
q0 -79 38.5 -129t106.5 -50q66 0 107 48t41 131v407h141v-416q0 -140 -76.5 -221t-212.5 -81z" />
    <glyph glyph-name="Yacute" unicode="&#xdd;" horiz-adv-x="632" 
d="M493 932l-124 -148h-126l113 147zM460 710h163l-237 -398v-312h-142v312l-235 398h161l145 -259h2z" />
    <glyph glyph-name="Thorn" unicode="&#xde;" horiz-adv-x="646" 
d="M78 0v710h139v-126h145q124 0 185 -64t61 -172q0 -112 -70 -170t-190 -58h-131v-120h-139zM217 244h113q64 0 98 29t34 78q0 50 -32.5 79t-93.5 29h-119v-215z" />
    <glyph glyph-name="germandbls" unicode="&#xdf;" horiz-adv-x="638" 
d="M485 422q55 -27 87 -81t32 -119q0 -105 -61 -167.5t-163 -62.5h-96v116h64q53 0 88 33.5t35 85.5t-37 88t-97 36h-40v105h34q56 1 79 29.5t23 61.5q0 34 -28 58t-79 24q-62 0 -95 -32.5t-33 -105.5v-491h-131v485q0 130 66 195t189 65q114 0 177 -53t63 -132
q0 -91 -77 -137v-1z" />
    <glyph glyph-name="agrave" unicode="&#xe0;" horiz-adv-x="607" 
d="M388 556h-127l-123 148l137 -1zM415 488h130v-488h-124v59h-3q-51 -67 -146 -67q-102 0 -167.5 69.5t-65.5 181.5q0 110 65.5 181.5t164.5 71.5q91 0 143 -63h3v55zM296 109q52 0 88 37t36 96t-35 98t-88 39q-54 0 -90 -37.5t-36 -99.5q0 -59 35 -96t90 -37z" />
    <glyph glyph-name="aacute" unicode="&#xe1;" horiz-adv-x="607" 
d="M473 704l-124 -148h-126l113 147zM415 488h130v-488h-124v59h-3q-51 -67 -146 -67q-102 0 -167.5 69.5t-65.5 181.5q0 110 65.5 181.5t164.5 71.5q91 0 143 -63h3v55zM296 109q52 0 88 37t36 96t-35 98t-88 39q-54 0 -90 -37.5t-36 -99.5q0 -59 35 -96t90 -37z" />
    <glyph glyph-name="acircumflex" unicode="&#xe2;" horiz-adv-x="607" 
d="M300 629l-50 -75h-120l111 150h116l117 -150h-121l-51 75h-2zM415 488h130v-488h-124v59h-3q-51 -67 -146 -67q-102 0 -167.5 69.5t-65.5 181.5q0 110 65.5 181.5t164.5 71.5q91 0 143 -63h3v55zM296 109q52 0 88 37t36 96t-35 98t-88 39q-54 0 -90 -37.5t-36 -99.5
q0 -59 35 -96t90 -37z" />
    <glyph glyph-name="atilde" unicode="&#xe3;" horiz-adv-x="607" 
d="M242 603q-35 0 -56 -50l-78 34q16 53 46.5 84.5t73.5 31.5q36 0 86 -27q36 -22 54 -22q36 0 57 49l76 -26q-16 -57 -46 -91t-71 -34t-87 30q-36 21 -55 21zM415 488h130v-488h-124v59h-3q-51 -67 -146 -67q-102 0 -167.5 69.5t-65.5 181.5q0 110 65.5 181.5t164.5 71.5
q91 0 143 -63h3v55zM296 109q52 0 88 37t36 96t-35 98t-88 39q-54 0 -90 -37.5t-36 -99.5q0 -59 35 -96t90 -37z" />
    <glyph glyph-name="adieresis" unicode="&#xe4;" horiz-adv-x="607" 
d="M196 557q-34 0 -57.5 23.5t-23.5 56.5t23.5 56.5t57.5 23.5q33 0 57 -23.5t24 -56.5t-24 -56.5t-57 -23.5zM406 558q-34 0 -57.5 23.5t-23.5 55.5t23.5 55.5t57.5 23.5q32 0 56 -23.5t24 -55.5t-24 -55.5t-56 -23.5zM415 488h130v-488h-124v59h-3q-51 -67 -146 -67
q-102 0 -167.5 69.5t-65.5 181.5q0 110 65.5 181.5t164.5 71.5q91 0 143 -63h3v55zM296 109q52 0 88 37t36 96t-35 98t-88 39q-54 0 -90 -37.5t-36 -99.5q0 -59 35 -96t90 -37z" />
    <glyph glyph-name="aring" unicode="&#xe5;" horiz-adv-x="607" 
d="M301 533q-44 0 -75.5 30t-31.5 74q0 43 30.5 74t76.5 31t77.5 -30t31.5 -75q0 -44 -30.5 -74t-78.5 -30zM301 676q-15 0 -26 -11.5t-11 -26.5q0 -16 10.5 -26.5t26.5 -10.5t27 11t11 27q0 15 -11 26t-27 11zM415 488h130v-488h-124v59h-3q-51 -67 -146 -67
q-102 0 -167.5 69.5t-65.5 181.5q0 110 65.5 181.5t164.5 71.5q91 0 143 -63h3v55zM296 109q52 0 88 37t36 96t-35 98t-88 39q-54 0 -90 -37.5t-36 -99.5q0 -59 35 -96t90 -37z" />
    <glyph glyph-name="ae" unicode="&#xe6;" horiz-adv-x="793" 
d="M766 249q0 -39 -4 -47l-320 -1q11 -43 42 -68t75 -25q55 0 97 52l91 -76q-73 -92 -196 -92q-101 0 -164 71h-3q-62 -71 -173 -71q-90 0 -135.5 41.5t-45.5 108.5q0 72 49 112.5t147 41.5h87v7q0 46 -17.5 64.5t-53.5 18.5q-64 0 -125 -32l-53 97q84 45 186 45
q104 0 143 -66h3q58 66 154 66q94 0 155 -70t61 -177zM544 381q-37 0 -64 -22t-37 -63h194q-10 39 -34.5 62t-58.5 23zM225 95q37 0 62.5 23.5t25.5 48.5v38l-73 -1q-82 0 -82 -54q0 -24 17.5 -39.5t49.5 -15.5z" />
    <glyph glyph-name="ccedilla" unicode="&#xe7;" horiz-adv-x="531" 
d="M307 -8l-13 -22l1 -1q93 -3 93 -81q0 -36 -30.5 -57.5t-92.5 -21.5q-31 0 -61 6v59q18 -7 52 -7q47 0 47 28q0 14 -21.5 23t-60.5 9v37l16 32v1q-89 17 -143 83.5t-54 163.5q0 112 71.5 182t185.5 70q61 0 116 -24t91 -69l-88 -76q-45 52 -114 52q-58 0 -94 -37.5
t-36 -96.5q0 -60 36.5 -98t94.5 -38q70 0 114 50l89 -79q-72 -82 -199 -88z" />
    <glyph glyph-name="egrave" unicode="&#xe8;" horiz-adv-x="560" 
d="M377 556h-127l-123 148l137 -1zM521 249q0 -39 -3 -47h-343q12 -44 45 -69t80 -25q71 -1 117 55l85 -79q-73 -92 -211 -92q-109 0 -180 70t-71 183q0 110 68.5 180.5t173.5 70.5q106 0 172.5 -69.5t66.5 -177.5zM286 381q-41 0 -70 -22t-40 -63h215q-22 85 -105 85z" />
    <glyph glyph-name="eacute" unicode="&#xe9;" horiz-adv-x="560" 
d="M472 704l-124 -148h-126l113 147zM521 249q0 -39 -3 -47h-343q12 -44 45 -69t80 -25q71 -1 117 55l85 -79q-73 -92 -211 -92q-109 0 -180 70t-71 183q0 110 68.5 180.5t173.5 70.5q106 0 172.5 -69.5t66.5 -177.5zM286 381q-41 0 -70 -22t-40 -63h215q-22 85 -105 85z
" />
    <glyph glyph-name="ecircumflex" unicode="&#xea;" horiz-adv-x="560" 
d="M287 629l-50 -75h-120l111 150h116l117 -150h-121l-51 75h-2zM521 249q0 -39 -3 -47h-343q12 -44 45 -69t80 -25q71 -1 117 55l85 -79q-73 -92 -211 -92q-109 0 -180 70t-71 183q0 110 68.5 180.5t173.5 70.5q106 0 172.5 -69.5t66.5 -177.5zM286 381q-41 0 -70 -22
t-40 -63h215q-22 85 -105 85z" />
    <glyph glyph-name="edieresis" unicode="&#xeb;" horiz-adv-x="560" 
d="M183 557q-34 0 -57.5 23.5t-23.5 56.5t23.5 56.5t57.5 23.5q33 0 57 -23.5t24 -56.5t-24 -56.5t-57 -23.5zM393 558q-34 0 -57.5 23.5t-23.5 55.5t23.5 55.5t57.5 23.5q32 0 56 -23.5t24 -55.5t-24 -55.5t-56 -23.5zM521 249q0 -39 -3 -47h-343q12 -44 45 -69t80 -25
q71 -1 117 55l85 -79q-73 -92 -211 -92q-109 0 -180 70t-71 183q0 110 68.5 180.5t173.5 70.5q106 0 172.5 -69.5t66.5 -177.5zM286 381q-41 0 -70 -22t-40 -63h215q-22 85 -105 85z" />
    <glyph glyph-name="igrave" unicode="&#xec;" horiz-adv-x="275" 
d="M74 556l-86 148l137 -1l75 -147h-126zM72 0v488h131v-488h-131z" />
    <glyph glyph-name="iacute" unicode="&#xed;" horiz-adv-x="275" 
d="M79 556l113 147l137 1l-124 -148h-126zM72 0v488h131v-488h-131z" />
    <glyph glyph-name="icircumflex" unicode="&#xee;" horiz-adv-x="275" 
d="M136 629l-50 -75h-120l111 150h116l117 -150h-121l-51 75h-2zM72 0v488h131v-488h-131z" />
    <glyph glyph-name="idieresis" unicode="&#xef;" horiz-adv-x="275" 
d="M45 557q-32 0 -55.5 23.5t-23.5 56.5t23.5 56.5t55.5 23.5q33 0 57 -23.5t24 -56.5t-24 -56.5t-57 -23.5zM229 558q-33 0 -57 23.5t-24 55.5t24 55.5t57 23.5q31 0 54 -23.5t23 -55.5t-23 -55.5t-54 -23.5zM72 0v488h131v-488h-131z" />
    <glyph glyph-name="eth" unicode="&#xf0;" horiz-adv-x="592" 
d="M552 255v-2q0 -116 -72.5 -188.5t-187.5 -72.5q-107 0 -179.5 67.5t-72.5 169.5q0 108 67 173t166 65q48 0 100 -21v1q-39 69 -105 121l-66 -51l-56 64l46 36q-43 20 -76 32l57 92q59 -19 113 -50l69 55l56 -68l-48 -37q189 -150 189 -386zM295 109q54 0 88.5 36.5
t34.5 92.5q0 53 -35 87.5t-89 34.5q-51 0 -86 -35.5t-35 -86.5q0 -56 35 -92.5t87 -36.5z" />
    <glyph glyph-name="ntilde" unicode="&#xf1;" horiz-adv-x="592" 
d="M240 603q-35 0 -56 -50l-78 34q16 53 46.5 84.5t73.5 31.5q36 0 86 -27q36 -22 54 -22q36 0 57 49l76 -26q-16 -57 -46 -91t-71 -34t-87 30q-36 21 -55 21zM355 496q178 0 178 -206v-290h-131v257q0 67 -23 94.5t-71 27.5q-51 0 -81 -34.5t-30 -98.5v-246h-131v488h131
v-63h2q60 71 156 71z" />
    <glyph glyph-name="ograve" unicode="&#xf2;" horiz-adv-x="598" 
d="M251 556l-123 148l137 -1l113 -147h-127zM299 -8q-115 0 -187 71t-72 181t72 181t187 71q114 0 187 -70t73 -182t-73 -182t-187 -70zM299 109q54 0 90.5 38t36.5 97q0 60 -36 97.5t-91 37.5q-56 0 -91.5 -38.5t-35.5 -96.5q0 -57 36 -96t91 -39z" />
    <glyph glyph-name="oacute" unicode="&#xf3;" horiz-adv-x="598" 
d="M235 556l113 147l137 1l-124 -148h-126zM299 -8q-115 0 -187 71t-72 181t72 181t187 71q114 0 187 -70t73 -182t-73 -182t-187 -70zM299 109q54 0 90.5 38t36.5 97q0 60 -36 97.5t-91 37.5q-56 0 -91.5 -38.5t-35.5 -96.5q0 -57 36 -96t91 -39z" />
    <glyph glyph-name="ocircumflex" unicode="&#xf4;" horiz-adv-x="598" 
d="M298 629l-50 -75h-120l111 150h116l117 -150h-121l-51 75h-2zM299 496q114 0 187 -70t73 -182t-73 -182t-187 -70q-115 0 -187 71t-72 181t72 181t187 71zM299 109q54 0 90.5 38t36.5 97q0 60 -36 97.5t-91 37.5q-56 0 -91.5 -38.5t-35.5 -96.5q0 -57 36 -96t91 -39z" />
    <glyph glyph-name="otilde" unicode="&#xf5;" horiz-adv-x="598" 
d="M382 552q-41 0 -87 30q-36 21 -55 21q-35 0 -56 -50l-78 34q16 53 46.5 84.5t73.5 31.5q36 0 86 -27q36 -22 54 -22q36 0 57 49l76 -26q-16 -57 -46 -91t-71 -34zM299 -8q-115 0 -187 71t-72 181t72 181t187 71q114 0 187 -70t73 -182t-73 -182t-187 -70zM299 109
q54 0 90.5 38t36.5 97q0 60 -36 97.5t-91 37.5q-56 0 -91.5 -38.5t-35.5 -96.5q0 -57 36 -96t91 -39z" />
    <glyph glyph-name="odieresis" unicode="&#xf6;" horiz-adv-x="598" 
d="M194 557q-34 0 -57.5 23.5t-23.5 56.5t23.5 56.5t57.5 23.5q33 0 57 -23.5t24 -56.5t-24 -56.5t-57 -23.5zM404 558q-34 0 -57.5 23.5t-23.5 55.5t23.5 55.5t57.5 23.5q32 0 56 -23.5t24 -55.5t-24 -55.5t-56 -23.5zM299 -8q-115 0 -187 71t-72 181t72 181t187 71
q114 0 187 -70t73 -182t-73 -182t-187 -70zM299 109q54 0 90.5 38t36.5 97q0 60 -36 97.5t-91 37.5q-56 0 -91.5 -38.5t-35.5 -96.5q0 -57 36 -96t91 -39z" />
    <glyph glyph-name="divide" unicode="&#xf7;" horiz-adv-x="571" 
d="M286 395q-32 0 -55 23t-23 55t23 54.5t55 22.5q33 0 56.5 -22.5t23.5 -54.5t-23.5 -55t-56.5 -23zM54 220v114h474v-114h-474zM286 -4q-32 0 -55 23t-23 55t23 54.5t55 22.5q33 0 56.5 -22.5t23.5 -54.5t-23.5 -55t-56.5 -23z" />
    <glyph glyph-name="oslash" unicode="&#xf8;" horiz-adv-x="598" 
d="M560 461l-53 -57q52 -68 52 -160q0 -112 -73 -182t-187 -70q-80 0 -141 36l-52 -56l-57 54l49 52q-58 69 -58 166q0 110 72 181t187 71q86 0 150 -41l54 59zM172 244q0 -36 16 -68l174 187q-29 16 -63 16q-56 0 -91.5 -38.5t-35.5 -96.5zM426 244q0 33 -12 60l-170 -183
q26 -12 55 -12q54 0 90.5 38t36.5 97z" />
    <glyph glyph-name="ugrave" unicode="&#xf9;" horiz-adv-x="577" 
d="M373 556h-127l-123 148l137 -1zM384 488h131v-488h-131v60h-2q-56 -68 -145 -68q-179 0 -179 202v294h130v-259q0 -66 20.5 -93t67.5 -27q45 0 76.5 37.5t31.5 104.5v237z" />
    <glyph glyph-name="uacute" unicode="&#xfa;" horiz-adv-x="577" 
d="M471 704l-124 -148h-126l113 147zM384 488h131v-488h-131v60h-2q-56 -68 -145 -68q-179 0 -179 202v294h130v-259q0 -66 20.5 -93t67.5 -27q45 0 76.5 37.5t31.5 104.5v237z" />
    <glyph glyph-name="ucircumflex" unicode="&#xfb;" horiz-adv-x="577" 
d="M286 629l-50 -75h-120l111 150h116l117 -150h-121l-51 75h-2zM384 488h131v-488h-131v60h-2q-56 -68 -145 -68q-179 0 -179 202v294h130v-259q0 -66 20.5 -93t67.5 -27q45 0 76.5 37.5t31.5 104.5v237z" />
    <glyph glyph-name="udieresis" unicode="&#xfc;" horiz-adv-x="577" 
d="M182 557q-34 0 -57.5 23.5t-23.5 56.5t23.5 56.5t57.5 23.5q33 0 57 -23.5t24 -56.5t-24 -56.5t-57 -23.5zM392 558q-34 0 -57.5 23.5t-23.5 55.5t23.5 55.5t57.5 23.5q32 0 56 -23.5t24 -55.5t-24 -55.5t-56 -23.5zM384 488h131v-488h-131v60h-2q-56 -68 -145 -68
q-179 0 -179 202v294h130v-259q0 -66 20.5 -93t67.5 -27q45 0 76.5 37.5t31.5 104.5v237z" />
    <glyph glyph-name="yacute" unicode="&#xfd;" horiz-adv-x="539" 
d="M442 704l-124 -148h-126l113 147zM386 488h136l-263 -686h-134l86 228l-194 458h136l120 -302h1z" />
    <glyph glyph-name="thorn" unicode="&#xfe;" horiz-adv-x="617" 
d="M347 496q99 0 164.5 -71.5t65.5 -181.5q0 -112 -65.5 -181.5t-168.5 -69.5q-90 0 -144 63h-2v-253h-131v934h131v-304h2q56 64 148 64zM319 109q56 0 90.5 37t34.5 96q0 62 -35.5 99.5t-89.5 37.5q-56 0 -91.5 -39t-35.5 -98t36.5 -96t90.5 -37z" />
    <glyph glyph-name="ydieresis" unicode="&#xff;" horiz-adv-x="539" 
d="M165 557q-34 0 -57.5 23.5t-23.5 56.5t23.5 56.5t57.5 23.5q33 0 57 -23.5t24 -56.5t-24 -56.5t-57 -23.5zM375 558q-34 0 -57.5 23.5t-23.5 55.5t23.5 55.5t57.5 23.5q32 0 56 -23.5t24 -55.5t-24 -55.5t-56 -23.5zM386 488h136l-263 -686h-134l86 228l-194 458h136
l120 -302h1z" />
    <glyph glyph-name="Amacron" unicode="&#x100;" horiz-adv-x="698" 
d="M502 916v-105h-304v105h304zM535 0l-48 142h-273l-48 -142h-147l263 710h135l265 -710h-147zM255 262h191l-95 279h-2z" />
    <glyph glyph-name="amacron" unicode="&#x101;" horiz-adv-x="607" 
d="M454 688v-105h-304v105h304zM415 488h130v-488h-124v59h-3q-51 -67 -146 -67q-102 0 -167.5 69.5t-65.5 181.5q0 110 65.5 181.5t164.5 71.5q91 0 143 -63h3v55zM296 109q52 0 88 37t36 96t-35 98t-88 39q-54 0 -90 -37.5t-36 -99.5q0 -59 35 -96t90 -37z" />
    <glyph glyph-name="Abreve" unicode="&#x102;" horiz-adv-x="698" 
d="M350 779q-65 0 -111 40t-52 110h99q2 -27 19 -45t45 -18q27 0 45 17t19 46h100q-5 -66 -49.5 -108t-114.5 -42zM535 0l-48 142h-273l-48 -142h-147l263 710h135l265 -710h-147zM255 262h191l-95 279h-2z" />
    <glyph glyph-name="abreve" unicode="&#x103;" horiz-adv-x="607" 
d="M302 551q-65 0 -111 40t-52 110h99q2 -27 19 -45t45 -18q27 0 45 17t19 46h100q-5 -66 -49.5 -108t-114.5 -42zM415 488h130v-488h-124v59h-3q-51 -67 -146 -67q-102 0 -167.5 69.5t-65.5 181.5q0 110 65.5 181.5t164.5 71.5q91 0 143 -63h3v55zM296 109q52 0 88 37
t36 96t-35 98t-88 39q-54 0 -90 -37.5t-36 -99.5q0 -59 35 -96t90 -37z" />
    <glyph glyph-name="Aogonek" unicode="&#x104;" horiz-adv-x="698" 
d="M613 -113q21 0 39 7l7 -71q-27 -12 -73 -12q-52 0 -82.5 25t-30.5 66q0 25 16 52t46 47l-48 141h-273l-48 -142h-147l263 710h135l265 -710h-29q-37 -6 -59 -27t-22 -45q0 -41 41 -41zM255 262h191l-95 279h-2z" />
    <glyph glyph-name="aogonek" unicode="&#x105;" horiz-adv-x="607" 
d="M531 0q-37 -6 -59 -27t-22 -45q0 -41 41 -41q21 0 39 7l7 -71q-27 -12 -73 -12q-52 0 -82.5 25t-30.5 66q0 27 18 56t52 48v53h-3q-51 -67 -146 -67q-102 0 -167.5 69.5t-65.5 181.5q0 110 65.5 181.5t164.5 71.5q91 0 143 -63h3v55h130v-488h-14zM296 109q52 0 88 37
t36 96t-35 98t-88 39q-54 0 -90 -37.5t-36 -99.5q0 -59 35 -96t90 -37z" />
    <glyph glyph-name="Cacute" unicode="&#x106;" horiz-adv-x="726" 
d="M340 784l113 147l137 1l-124 -148h-126zM411 -7q-153 0 -257.5 96t-104.5 264q0 158 96.5 262t265.5 104q78 0 152.5 -34t130.5 -102l-103 -88q-77 90 -180 90q-94 0 -154.5 -63.5t-60.5 -168.5q0 -99 60 -163t155 -64q107 0 180 90l103 -89q-108 -134 -283 -134z" />
    <glyph glyph-name="cacute" unicode="&#x107;" horiz-adv-x="531" 
d="M224 556l113 147l137 1l-124 -148h-126zM291 -8q-110 0 -180.5 70t-70.5 182t71.5 182t185.5 70q61 0 116 -24t91 -69l-88 -76q-45 52 -114 52q-58 0 -94 -37.5t-36 -96.5q0 -60 36.5 -98t94.5 -38q70 0 114 50l89 -79q-34 -39 -89.5 -63.5t-125.5 -24.5z" />
    <glyph glyph-name="Ccircumflex" unicode="&#x108;" horiz-adv-x="726" 
d="M408 857l-50 -75h-120l111 150h116l117 -150h-121l-51 75h-2zM411 126q107 0 180 90l103 -89q-108 -134 -283 -134q-153 0 -257.5 96t-104.5 264q0 158 96.5 262t265.5 104q78 0 152.5 -34t130.5 -102l-103 -88q-77 90 -180 90q-94 0 -154.5 -63.5t-60.5 -168.5
q0 -99 60 -163t155 -64z" />
    <glyph glyph-name="ccircumflex" unicode="&#x109;" horiz-adv-x="531" 
d="M295 629l-50 -75h-120l111 150h116l117 -150h-121l-51 75h-2zM417 159l89 -79q-34 -39 -89.5 -63.5t-125.5 -24.5q-110 0 -180.5 70t-70.5 182t71.5 182t185.5 70q61 0 116 -24t91 -69l-88 -76q-45 52 -114 52q-58 0 -94 -37.5t-36 -96.5q0 -60 36.5 -98t94.5 -38
q70 0 114 50z" />
    <glyph glyph-name="Cdotaccent" unicode="&#x10a;" horiz-adv-x="726" 
d="M410 785q-33 0 -57 23.5t-24 56.5t24 56.5t57 23.5q34 0 58 -23.5t24 -56.5t-24 -56.5t-58 -23.5zM411 -7q-153 0 -257.5 96t-104.5 264q0 158 96.5 262t265.5 104q78 0 152.5 -34t130.5 -102l-103 -88q-77 90 -180 90q-94 0 -154.5 -63.5t-60.5 -168.5q0 -99 60 -163
t155 -64q107 0 180 90l103 -89q-108 -134 -283 -134z" />
    <glyph glyph-name="cdotaccent" unicode="&#x10b;" horiz-adv-x="531" 
d="M297 557q-33 0 -57 23.5t-24 56.5t24 56.5t57 23.5q34 0 58 -23.5t24 -56.5t-24 -56.5t-58 -23.5zM291 -8q-110 0 -180.5 70t-70.5 182t71.5 182t185.5 70q61 0 116 -24t91 -69l-88 -76q-45 52 -114 52q-58 0 -94 -37.5t-36 -96.5q0 -60 36.5 -98t94.5 -38q70 0 114 50
l89 -79q-34 -39 -89.5 -63.5t-125.5 -24.5z" />
    <glyph glyph-name="Ccaron" unicode="&#x10c;" horiz-adv-x="726" 
d="M467 782h-115l-114 150h121l50 -76h2l51 76h120zM411 126q107 0 180 90l103 -89q-108 -134 -283 -134q-153 0 -257.5 96t-104.5 264q0 158 96.5 262t265.5 104q78 0 152.5 -34t130.5 -102l-103 -88q-77 90 -180 90q-94 0 -154.5 -63.5t-60.5 -168.5q0 -99 60 -163
t155 -64z" />
    <glyph glyph-name="ccaron" unicode="&#x10d;" horiz-adv-x="531" 
d="M354 554h-115l-114 150h121l50 -76h2l51 76h120zM417 159l89 -79q-34 -39 -89.5 -63.5t-125.5 -24.5q-110 0 -180.5 70t-70.5 182t71.5 182t185.5 70q61 0 116 -24t91 -69l-88 -76q-45 52 -114 52q-58 0 -94 -37.5t-36 -96.5q0 -60 36.5 -98t94.5 -38q70 0 114 50z" />
    <glyph glyph-name="Dcaron" unicode="&#x10e;" horiz-adv-x="730" 
d="M415 781h-115l-114 150h121l50 -76h2l51 76h120zM313 710q167 0 268 -98.5t101 -257.5t-98.5 -256.5t-267.5 -97.5h-238v710h235zM307 125q102 0 165.5 65t63.5 164q0 100 -62 165t-158 65h-99v-459h90z" />
    <glyph glyph-name="dcaron" unicode="&#x10f;" horiz-adv-x="668" 
d="M637 787h125l-64 -207h-92zM419 433v303h131v-736h-125v59h-2q-53 -67 -150 -67q-102 0 -168 69.5t-66 181.5q0 110 65.5 181.5t164.5 71.5q93 0 147 -63h3zM297 109q55 0 92 37t37 96t-36.5 98t-92.5 39q-54 0 -89.5 -37.5t-35.5 -99.5q0 -59 35 -96t90 -37z" />
    <glyph glyph-name="Dcroat" unicode="&#x110;" horiz-adv-x="730" 
d="M313 710q167 0 268 -98.5t101 -257.5t-98.5 -256.5t-267.5 -97.5h-238v293h-53v117h53v300h235zM307 125q102 0 165.5 65t63.5 164q0 100 -62 165t-158 65h-99v-174h111v-117h-111v-168h90z" />
    <glyph glyph-name="dcroat" unicode="&#x111;" horiz-adv-x="609" 
d="M609 638v-84h-59v-554h-125v59h-2q-53 -67 -150 -67q-102 0 -168 69.5t-66 181.5q0 110 65.5 181.5t164.5 71.5q93 0 147 -63h3v121h-99v84h99v98h131v-98h59zM297 109q55 0 92 37t37 96t-36.5 98t-92.5 39q-54 0 -89.5 -37.5t-35.5 -99.5q0 -59 35 -96t90 -37z" />
    <glyph glyph-name="Emacron" unicode="&#x112;" horiz-adv-x="600" 
d="M159 810v105h304v-105h-304zM78 0v710h454v-126h-316v-170h253v-124h-253v-165h337v-125h-475z" />
    <glyph glyph-name="emacron" unicode="&#x113;" horiz-adv-x="560" 
d="M441 688v-105h-304v105h304zM521 249q0 -39 -3 -47h-343q12 -44 45 -69t80 -25q71 -1 117 55l85 -79q-73 -92 -211 -92q-109 0 -180 70t-71 183q0 110 68.5 180.5t173.5 70.5q106 0 172.5 -69.5t66.5 -177.5zM286 381q-41 0 -70 -22t-40 -63h215q-22 85 -105 85z" />
    <glyph glyph-name="Ebreve" unicode="&#x114;" horiz-adv-x="600" 
d="M311 778q-65 0 -111 40t-52 110h99q2 -27 19 -45t45 -18q27 0 45 17t19 46h100q-5 -66 -49.5 -108t-114.5 -42zM78 0v710h454v-126h-316v-170h253v-124h-253v-165h337v-125h-475z" />
    <glyph glyph-name="ebreve" unicode="&#x115;" horiz-adv-x="560" 
d="M289 551q-65 0 -111 40t-52 110h99q2 -27 19 -45t45 -18q27 0 45 17t19 46h100q-5 -66 -49.5 -108t-114.5 -42zM521 249q0 -39 -3 -47h-343q12 -44 45 -69t80 -25q71 -1 117 55l85 -79q-73 -92 -211 -92q-109 0 -180 70t-71 183q0 110 68.5 180.5t173.5 70.5
q106 0 172.5 -69.5t66.5 -177.5zM286 381q-41 0 -70 -22t-40 -63h215q-22 85 -105 85z" />
    <glyph glyph-name="Edotaccent" unicode="&#x116;" horiz-adv-x="600" 
d="M311 784q-33 0 -57 23.5t-24 56.5t24 56.5t57 23.5q34 0 58 -23.5t24 -56.5t-24 -56.5t-58 -23.5zM78 0v710h454v-126h-316v-170h253v-124h-253v-165h337v-125h-475z" />
    <glyph glyph-name="edotaccent" unicode="&#x117;" horiz-adv-x="560" 
d="M289 557q-33 0 -57 23.5t-24 56.5t24 56.5t57 23.5q34 0 58 -23.5t24 -56.5t-24 -56.5t-58 -23.5zM521 249q0 -39 -3 -47h-343q12 -44 45 -69t80 -25q71 -1 117 55l85 -79q-73 -92 -211 -92q-109 0 -180 70t-71 183q0 110 68.5 180.5t173.5 70.5q106 0 172.5 -69.5
t66.5 -177.5zM286 381q-41 0 -70 -22t-40 -63h215q-22 85 -105 85z" />
    <glyph glyph-name="Eogonek" unicode="&#x118;" horiz-adv-x="600" 
d="M541 0q-37 -6 -59 -27t-22 -45q0 -41 41 -41q21 0 39 7l7 -71q-27 -12 -73 -12q-52 0 -82.5 25t-30.5 66q0 55 58 97v1h-341v710h454v-126h-316v-170h253v-124h-253v-165h337v-125h-12z" />
    <glyph glyph-name="eogonek" unicode="&#x119;" horiz-adv-x="560" 
d="M521 249q0 -39 -3 -47h-343q12 -44 45 -69t80 -25q71 -1 117 55l85 -79q-48 -60 -125 -81q-81 -29 -81 -73q0 -17 11 -27.5t30 -10.5q21 0 40 7l6 -73q-27 -13 -72 -13q-57 0 -88.5 25.5t-31.5 66.5q0 48 50 90v1q-90 16 -145.5 83t-55.5 166q0 110 68.5 180.5
t173.5 70.5q106 0 172.5 -69.5t66.5 -177.5zM286 381q-41 0 -70 -22t-40 -63h215q-22 85 -105 85z" />
    <glyph glyph-name="Ecaron" unicode="&#x11a;" horiz-adv-x="600" 
d="M368 781h-115l-114 150h121l50 -76h2l51 76h120zM216 125h337v-125h-475v710h454v-126h-316v-170h253v-124h-253v-165z" />
    <glyph glyph-name="ecaron" unicode="&#x11b;" horiz-adv-x="560" 
d="M346 554h-115l-114 150h121l50 -76h2l51 76h120zM521 249q0 -39 -3 -47h-343q12 -44 45 -69t80 -25q71 -1 117 55l85 -79q-73 -92 -211 -92q-109 0 -180 70t-71 183q0 110 68.5 180.5t173.5 70.5q106 0 172.5 -69.5t66.5 -177.5zM286 381q-41 0 -70 -22t-40 -63h215
q-22 85 -105 85z" />
    <glyph glyph-name="Gcircumflex" unicode="&#x11c;" horiz-adv-x="753" 
d="M397 856l-50 -75h-120l111 150h116l117 -150h-121l-51 75h-2zM396 387h295v-306q-49 -40 -124 -64t-155 -24q-158 0 -260.5 97t-102.5 264q0 159 97 262t260 103q79 0 154 -31t128 -91l-100 -84q-76 73 -182 73q-90 0 -150 -63t-60 -169q0 -100 59 -166t157 -66
q78 0 144 40v105h-160v120z" />
    <glyph glyph-name="gcircumflex" unicode="&#x11d;" horiz-adv-x="605" 
d="M295 629l-50 -75h-120l111 150h116l117 -150h-121l-51 75h-2zM413 488h130v-432q0 -262 -254 -262q-112 0 -201 49l31 111q82 -46 158 -46q66 0 102.5 31t36.5 78v49h-3q-52 -57 -142 -57q-102 0 -167.5 67t-65.5 173q0 108 64 177.5t162 69.5q88 0 146 -58h3v50z
M295 127q54 0 88.5 35.5t34.5 91.5q0 55 -35 89t-88 34q-55 0 -89.5 -34.5t-34.5 -89.5q0 -57 35 -91.5t89 -34.5z" />
    <glyph glyph-name="Gbreve" unicode="&#x11e;" horiz-adv-x="753" 
d="M399 778q-65 0 -111 40t-52 110h99q2 -27 19 -45t45 -18q27 0 45 17t19 46h100q-5 -66 -49.5 -108t-114.5 -42zM412 -7q-158 0 -260.5 97t-102.5 264q0 159 97 262t260 103q79 0 154 -31t128 -91l-100 -84q-76 73 -182 73q-90 0 -150 -63t-60 -169q0 -100 59 -166
t157 -66q78 0 144 40v105h-160v120h295v-306q-49 -40 -124 -64t-155 -24z" />
    <glyph glyph-name="gbreve" unicode="&#x11f;" horiz-adv-x="605" 
d="M297 551q-65 0 -111 40t-52 110h99q2 -27 19 -45t45 -18q27 0 45 17t19 46h100q-5 -66 -49.5 -108t-114.5 -42zM413 488h130v-432q0 -262 -254 -262q-112 0 -201 49l31 111q82 -46 158 -46q66 0 102.5 31t36.5 78v49h-3q-52 -57 -142 -57q-102 0 -167.5 67t-65.5 173
q0 108 64 177.5t162 69.5q88 0 146 -58h3v50zM295 127q54 0 88.5 35.5t34.5 91.5q0 55 -35 89t-88 34q-55 0 -89.5 -34.5t-34.5 -89.5q0 -57 35 -91.5t89 -34.5z" />
    <glyph glyph-name="Gdotaccent" unicode="&#x120;" horiz-adv-x="753" 
d="M399 784q-33 0 -57 23.5t-24 56.5t24 56.5t57 23.5q34 0 58 -23.5t24 -56.5t-24 -56.5t-58 -23.5zM412 -7q-158 0 -260.5 97t-102.5 264q0 159 97 262t260 103q79 0 154 -31t128 -91l-100 -84q-76 73 -182 73q-90 0 -150 -63t-60 -169q0 -100 59 -166t157 -66
q78 0 144 40v105h-160v120h295v-306q-49 -40 -124 -64t-155 -24z" />
    <glyph glyph-name="gdotaccent" unicode="&#x121;" horiz-adv-x="605" 
d="M297 557q-33 0 -57 23.5t-24 56.5t24 56.5t57 23.5q34 0 58 -23.5t24 -56.5t-24 -56.5t-58 -23.5zM413 488h130v-432q0 -262 -254 -262q-112 0 -201 49l31 111q82 -46 158 -46q66 0 102.5 31t36.5 78v49h-3q-52 -57 -142 -57q-102 0 -167.5 67t-65.5 173q0 108 64 177.5
t162 69.5q88 0 146 -58h3v50zM295 127q54 0 88.5 35.5t34.5 91.5q0 55 -35 89t-88 34q-55 0 -89.5 -34.5t-34.5 -89.5q0 -57 35 -91.5t89 -34.5z" />
    <glyph glyph-name="Gcommaaccent" unicode="&#x122;" horiz-adv-x="753" 
d="M412 -7q-158 0 -260.5 97t-102.5 264q0 159 97 262t260 103q79 0 154 -31t128 -91l-100 -84q-76 73 -182 73q-90 0 -150 -63t-60 -169q0 -100 59 -166t157 -66q78 0 144 40v105h-160v120h295v-306q-49 -40 -124 -64t-155 -24zM320 -220l-27 74q30 8 42.5 20.5t12.5 34.5
q0 14 -6 38h113q4 -19 4 -45q0 -60 -38.5 -92.5t-100.5 -29.5z" />
    <glyph glyph-name="gcommaaccent" unicode="&#x123;" horiz-adv-x="605" 
d="M357 562h-113q-4 19 -4 45q0 60 38.5 92.5t100.5 29.5l27 -74q-30 -8 -42.5 -20.5t-12.5 -34.5q0 -14 6 -38zM413 488h130v-432q0 -262 -254 -262q-112 0 -201 49l31 111q82 -46 158 -46q66 0 102.5 31t36.5 78v49h-3q-52 -57 -142 -57q-102 0 -167.5 67t-65.5 173
q0 108 64 177.5t162 69.5q88 0 146 -58h3v50zM295 127q54 0 88.5 35.5t34.5 91.5q0 55 -35 89t-88 34q-55 0 -89.5 -34.5t-34.5 -89.5q0 -57 35 -91.5t89 -34.5z" />
    <glyph glyph-name="Hcircumflex" unicode="&#x124;" horiz-adv-x="729" 
d="M366 857l-50 -75h-120l111 150h116l117 -150h-121l-51 75h-2zM510 710h141v-710h-141v277h-291v-277h-141v710h141v-307h291v307z" />
    <glyph glyph-name="hcircumflex" unicode="&#x125;" horiz-adv-x="597" 
d="M250 868l-50 -75h-120l111 150h116l117 -150h-121l-51 75h-2zM358 496q180 0 180 -203v-293h-131v260q0 65 -23.5 92t-71.5 27q-54 0 -84.5 -33.5t-30.5 -97.5v-248h-131v736h131v-307h2q60 67 159 67z" />
    <glyph glyph-name="Hbar" unicode="&#x126;" horiz-adv-x="731" 
d="M701 600v-83h-49v-517h-141v277h-291v-277h-141v517h-48v83h48v110h141v-110h291v110h141v-110h49zM511 403v114h-291v-114h291z" />
    <glyph glyph-name="hbar" unicode="&#x127;" horiz-adv-x="597" 
d="M358 496q180 0 180 -203v-293h-131v260q0 65 -23.5 92t-71.5 27q-54 0 -84.5 -33.5t-30.5 -97.5v-248h-131v554h-60v84h60v98h131v-98h98v-84h-98v-125h2q60 67 159 67z" />
    <glyph glyph-name="Itilde" unicode="&#x128;" horiz-adv-x="307" 
d="M234 779q-41 0 -87 30q-36 21 -55 21q-35 0 -56 -50l-78 34q16 53 46.5 84.5t73.5 31.5q36 0 86 -27q36 -22 54 -22q36 0 57 49l76 -26q-16 -57 -46 -91t-71 -34zM83 0v710h141v-710h-141z" />
    <glyph glyph-name="itilde" unicode="&#x129;" horiz-adv-x="275" 
d="M221 552q-40 0 -88 30q-4 3 -12.5 8t-12 7t-10 4t-13.5 2q-26 0 -47 -50l-78 34q16 52 44.5 84t64.5 32q12 0 22 -1.5t19.5 -5t13.5 -5.5t14.5 -8t11.5 -7q36 -22 55 -22q35 0 56 49l77 -26q-15 -57 -46 -91t-71 -34zM72 0v488h131v-488h-131z" />
    <glyph glyph-name="Imacron" unicode="&#x12a;" horiz-adv-x="307" 
d="M0 810v105h304v-105h-304zM83 0v710h141v-710h-141z" />
    <glyph glyph-name="imacron" unicode="&#x12b;" horiz-adv-x="275" 
d="M-14 583v105h304v-105h-304zM72 0v488h131v-488h-131z" />
    <glyph glyph-name="Ibreve" unicode="&#x12c;" horiz-adv-x="307" 
d="M152 778q-65 0 -111 40t-52 110h99q2 -27 19 -45t45 -18q27 0 45 17t19 46h100q-5 -66 -49.5 -108t-114.5 -42zM83 0v710h141v-710h-141z" />
    <glyph glyph-name="ibreve" unicode="&#x12d;" horiz-adv-x="275" 
d="M138 551q-60 0 -100 39.5t-45 110.5h97q5 -63 48 -63q21 0 33.5 17t14.5 46h97q-5 -67 -42.5 -108.5t-102.5 -41.5zM72 0v488h131v-488h-131z" />
    <glyph glyph-name="Iogonek" unicode="&#x12e;" horiz-adv-x="307" 
d="M201 0q-37 -6 -59 -27t-22 -45q0 -41 41 -41q21 0 39 7l7 -71q-27 -12 -73 -12q-52 0 -82.5 25t-30.5 66q0 25 16 52.5t46 46.5v709h141v-710h-23z" />
    <glyph glyph-name="iogonek" unicode="&#x12f;" horiz-adv-x="275" 
d="M138 557q-33 0 -57 23.5t-24 56.5t24 56.5t57 23.5q34 0 58 -23.5t24 -56.5t-24 -56.5t-58 -23.5zM72 1v487h131v-488h-13q-37 -6 -59 -27t-22 -45q0 -41 41 -41q22 0 39 7l7 -71q-27 -12 -73 -12q-52 0 -82.5 25t-30.5 66q0 25 16 52.5t46 46.5z" />
    <glyph glyph-name="Idotaccent" unicode="&#x130;" horiz-adv-x="307" 
d="M152 784q-33 0 -57 23.5t-24 56.5t24 56.5t57 23.5q34 0 58 -23.5t24 -56.5t-24 -56.5t-58 -23.5zM83 0v710h141v-710h-141z" />
    <glyph glyph-name="dotlessi" unicode="&#x131;" horiz-adv-x="275" 
d="M72 0v488h131v-488h-131z" />
    <glyph glyph-name="IJ" unicode="&#x132;" horiz-adv-x="813" 
d="M83 0v710h141v-710h-141zM526 -7q-56 0 -108 23.5t-87 69.5l80 99q20 -27 48.5 -44t56.5 -17q87 0 87 124v462h141v-460q0 -257 -218 -257z" />
    <glyph glyph-name="ij" unicode="&#x133;" horiz-adv-x="532" 
d="M404 560q-33 0 -57 23.5t-24 56.5t24 56.5t57 23.5q34 0 58 -23.5t24 -56.5t-24 -56.5t-58 -23.5zM138 557q-33 0 -57 23.5t-24 56.5t24 56.5t57 23.5q34 0 58 -23.5t24 -56.5t-24 -56.5t-58 -23.5zM72 0v488h131v-488h-131zM327 -206q-58 0 -102 18l22 108
q22 -12 43 -12q50 0 50 68v512h131v-517q0 -86 -39 -131.5t-105 -45.5z" />
    <glyph glyph-name="Jcircumflex" unicode="&#x134;" horiz-adv-x="506" 
d="M365 857l-50 -75h-120l111 150h116l117 -150h-121l-51 75h-2zM296 248v462h141v-460q0 -257 -218 -257q-56 0 -108 23.5t-87 69.5l80 99q20 -27 48.5 -44t56.5 -17q87 0 87 124z" />
    <glyph glyph-name="jcircumflex" unicode="&#x135;" horiz-adv-x="257" 
d="M127 632l-50 -75h-120l111 150h116l117 -150h-121l-51 75h-2zM65 -24v512h131v-517q0 -86 -39 -131.5t-105 -45.5q-58 0 -102 18l22 108q22 -12 43 -12q50 0 50 68z" />
    <glyph glyph-name="Kcommaaccent" unicode="&#x136;" horiz-adv-x="666" 
d="M381 397l270 -397h-173l-189 285h-1l-70 -83v-202h-140v710h140v-313h1l246 313h178zM282 -53h113q4 -19 4 -45q0 -60 -38.5 -92.5t-100.5 -29.5l-27 74q30 8 42.5 20.5t12.5 34.5q0 14 -6 38z" />
    <glyph glyph-name="kcommaaccent" unicode="&#x137;" horiz-adv-x="539" 
d="M354 294l175 -294h-146l-116 194h-2l-68 -77v-117h-131v736h131v-445h1l175 197h153zM224 -53h113q4 -19 4 -45q0 -60 -38.5 -92.5t-100.5 -29.5l-27 74q30 8 42.5 20.5t12.5 34.5q0 14 -6 38z" />
    <glyph glyph-name="kgreenlandic" unicode="&#x138;" horiz-adv-x="540" 
d="M267 194h-1l-69 -77v-117h-131v488h131v-198h1l175 198h154l-173 -195l176 -293h-146z" />
    <glyph glyph-name="Lacute" unicode="&#x139;" horiz-adv-x="566" 
d="M186 784l113 147l137 1l-124 -148h-126zM78 0v710h141v-585h316v-125h-457z" />
    <glyph glyph-name="lacute" unicode="&#x13a;" horiz-adv-x="275" 
d="M74 797l113 147l137 1l-124 -148h-126zM72 0v736h131v-736h-131z" />
    <glyph glyph-name="Lcommaaccent" unicode="&#x13b;" horiz-adv-x="566" 
d="M78 0v710h141v-585h316v-125h-457zM224 -220l-27 74q30 8 42.5 20.5t12.5 34.5q0 14 -6 38h113q4 -19 4 -45q0 -60 -38.5 -92.5t-100.5 -29.5z" />
    <glyph glyph-name="lcommaaccent" unicode="&#x13c;" horiz-adv-x="275" 
d="M72 0v736h131v-736h-131zM57 -220l-27 74q30 8 42.5 20.5t12.5 34.5q0 14 -6 38h113q4 -19 4 -45q0 -60 -38.5 -92.5t-100.5 -29.5z" />
    <glyph glyph-name="Lcaron" unicode="&#x13d;" horiz-adv-x="566" 
d="M329 580l31 207h125l-64 -207h-92zM78 0v710h141v-585h316v-125h-457z" />
    <glyph glyph-name="lcaron" unicode="&#x13e;" horiz-adv-x="320" 
d="M258 580l32 207h124l-63 -207h-93zM72 0v736h131v-736h-131z" />
    <glyph glyph-name="Ldot" unicode="&#x13f;" horiz-adv-x="566" 
d="M78 0v710h141v-585h316v-125h-457zM431 261q-34 0 -57.5 23t-23.5 56t23.5 56.5t57.5 23.5q33 0 57 -23.5t24 -56.5t-24 -56t-57 -23z" />
    <glyph glyph-name="ldot" unicode="&#x140;" horiz-adv-x="465" 
d="M72 0v736h131v-736h-131zM371 177q-34 0 -57.5 23t-23.5 56t23.5 56.5t57.5 23.5q33 0 57 -23.5t24 -56.5t-24 -56t-57 -23z" />
    <glyph glyph-name="Lslash" unicode="&#x141;" horiz-adv-x="575" 
d="M228 125h316v-125h-457v266l-69 -33v115l69 33v329h141v-262l79 37v-115l-79 -37v-208z" />
    <glyph glyph-name="lslash" unicode="&#x142;" horiz-adv-x="302" 
d="M276 442v-118l-56 -26v-298h-131v236l-59 -28v117l59 28v383h131v-321z" />
    <glyph glyph-name="Nacute" unicode="&#x143;" horiz-adv-x="755" 
d="M523 932l-124 -148h-126l113 147zM536 710h141v-710h-144l-313 471h-2v-471h-140v710h140l317 -480h1v480z" />
    <glyph glyph-name="nacute" unicode="&#x144;" horiz-adv-x="592" 
d="M460 704l-124 -148h-126l113 147zM355 496q178 0 178 -206v-290h-131v257q0 67 -23 94.5t-71 27.5q-51 0 -81 -34.5t-30 -98.5v-246h-131v488h131v-63h2q60 71 156 71z" />
    <glyph glyph-name="Ncommaaccent" unicode="&#x145;" horiz-adv-x="755" 
d="M536 710h141v-710h-144l-313 471h-2v-471h-140v710h140l317 -480h1v480zM318 -53h113q4 -19 4 -45q0 -60 -38.5 -92.5t-100.5 -29.5l-27 74q30 8 42.5 20.5t12.5 34.5q0 14 -6 38z" />
    <glyph glyph-name="ncommaaccent" unicode="&#x146;" horiz-adv-x="592" 
d="M355 496q178 0 178 -206v-290h-131v257q0 67 -23 94.5t-71 27.5q-51 0 -81 -34.5t-30 -98.5v-246h-131v488h131v-63h2q60 71 156 71zM236 -53h113q4 -19 4 -45q0 -60 -38.5 -92.5t-100.5 -29.5l-27 74q30 8 42.5 20.5t12.5 34.5q0 14 -6 38z" />
    <glyph glyph-name="Ncaron" unicode="&#x147;" horiz-adv-x="755" 
d="M436 782h-115l-114 150h121l50 -76h2l51 76h120zM536 710h141v-710h-144l-313 471h-2v-471h-140v710h140l317 -480h1v480z" />
    <glyph glyph-name="ncaron" unicode="&#x148;" horiz-adv-x="592" 
d="M357 554h-115l-114 150h121l50 -76h2l51 76h120zM355 496q178 0 178 -206v-290h-131v257q0 67 -23 94.5t-71 27.5q-51 0 -81 -34.5t-30 -98.5v-246h-131v488h131v-63h2q60 71 156 71z" />
    <glyph glyph-name="napostrophe" unicode="&#x149;" horiz-adv-x="694" 
d="M-15 494l32 216h124l-63 -216h-93zM458 496q178 0 178 -206v-290h-131v257q0 67 -23 94.5t-71 27.5q-51 0 -81 -34.5t-30 -98.5v-246h-131v488h131v-63h2q60 71 156 71z" />
    <glyph glyph-name="Eng" unicode="&#x14a;" horiz-adv-x="755" 
d="M537 710h140v-659v-78q0 -86 -40.5 -132.5t-112.5 -46.5q-55 0 -103 18l22 104q23 -13 44 -13q23 0 36.5 19t13.5 49v22l-317 478h-2v-471h-140v710h139l318 -480h2v480z" />
    <glyph glyph-name="eng" unicode="&#x14b;" horiz-adv-x="574" 
d="M349 496q167 0 167 -207v-316q0 -86 -39 -132.5t-105 -46.5q-58 0 -102 18l22 104q21 -13 43 -13q23 0 36.5 19t13.5 49v285q0 67 -19 95t-65 28q-44 0 -74 -36t-30 -99v-244h-131v488h131v-63h1q29 34 70 52.5t81 18.5z" />
    <glyph glyph-name="Omacron" unicode="&#x14c;" horiz-adv-x="821" 
d="M260 811v105h304v-105h-304zM411 -8q-160 0 -261 102.5t-101 260.5q0 159 101 261.5t261 102.5q158 0 259.5 -101t101.5 -263t-101.5 -262.5t-259.5 -100.5zM412 123q92 0 153 66t61 166t-61 166t-153 66q-95 0 -156 -67t-61 -165t61 -165t156 -67z" />
    <glyph glyph-name="omacron" unicode="&#x14d;" horiz-adv-x="598" 
d="M148 583v105h304v-105h-304zM299 -8q-115 0 -187 71t-72 181t72 181t187 71q114 0 187 -70t73 -182t-73 -182t-187 -70zM299 109q54 0 90.5 38t36.5 97q0 60 -36 97.5t-91 37.5q-56 0 -91.5 -38.5t-35.5 -96.5q0 -57 36 -96t91 -39z" />
    <glyph glyph-name="Obreve" unicode="&#x14e;" horiz-adv-x="821" 
d="M412 779q-65 0 -111 40t-52 110h99q2 -27 19 -45t45 -18q27 0 45 17t19 46h100q-5 -66 -49.5 -108t-114.5 -42zM411 -8q-160 0 -261 102.5t-101 260.5q0 159 101 261.5t261 102.5q158 0 259.5 -101t101.5 -263t-101.5 -262.5t-259.5 -100.5zM412 123q92 0 153 66t61 166
t-61 166t-153 66q-95 0 -156 -67t-61 -165t61 -165t156 -67z" />
    <glyph glyph-name="obreve" unicode="&#x14f;" horiz-adv-x="598" 
d="M300 551q-65 0 -111 40t-52 110h99q2 -27 19 -45t45 -18q27 0 45 17t19 46h100q-5 -66 -49.5 -108t-114.5 -42zM299 -8q-115 0 -187 71t-72 181t72 181t187 71q114 0 187 -70t73 -182t-73 -182t-187 -70zM299 109q54 0 90.5 38t36.5 97q0 60 -36 97.5t-91 37.5
q-56 0 -91.5 -38.5t-35.5 -96.5q0 -57 36 -96t91 -39z" />
    <glyph glyph-name="Ohungarumlaut" unicode="&#x150;" horiz-adv-x="821" 
d="M250 784l113 147l132 1l-124 -148h-121zM454 784l113 147l132 1l-124 -148h-121zM411 -8q-160 0 -261 102.5t-101 260.5q0 159 101 261.5t261 102.5q158 0 259.5 -101t101.5 -263t-101.5 -262.5t-259.5 -100.5zM412 123q92 0 153 66t61 166t-61 166t-153 66
q-95 0 -156 -67t-61 -165t61 -165t156 -67z" />
    <glyph glyph-name="ohungarumlaut" unicode="&#x151;" horiz-adv-x="598" 
d="M124 556l113 147l132 1l-124 -148h-121zM328 556l113 147l132 1l-124 -148h-121zM299 -8q-115 0 -187 71t-72 181t72 181t187 71q114 0 187 -70t73 -182t-73 -182t-187 -70zM299 109q54 0 90.5 38t36.5 97q0 60 -36 97.5t-91 37.5q-56 0 -91.5 -38.5t-35.5 -96.5
q0 -57 36 -96t91 -39z" />
    <glyph glyph-name="OE" unicode="&#x152;" horiz-adv-x="961" 
d="M579 125h336v-125h-471h-32q-160 0 -261.5 101t-101.5 254q0 154 101.5 255t261.5 100h73h410v-125h-316v-172h256v-122h-256v-166zM412 131h32v449h-32q-92 0 -154.5 -64.5t-62.5 -160.5q0 -95 62.5 -160t154.5 -64z" />
    <glyph glyph-name="oe" unicode="&#x153;" horiz-adv-x="810" 
d="M783 249q0 -30 -4 -48h-294q8 -43 33.5 -68t65.5 -25q55 0 89 52l90 -76q-30 -41 -79 -66.5t-108 -25.5q-102 0 -164 73h-2q-62 -73 -158 -73q-99 0 -160.5 70.5t-61.5 181.5q0 110 65 181t162 71q92 0 153 -72h1q64 72 163 72q91 0 150 -70t59 -177zM571 381
q-68 0 -85 -84h169q-18 84 -84 84zM253 109q40 0 68 38.5t28 96.5q0 60 -25.5 97.5t-66.5 37.5q-39 0 -66.5 -38.5t-27.5 -96.5t25 -96.5t65 -38.5z" />
    <glyph glyph-name="Racute" unicode="&#x154;" horiz-adv-x="657" 
d="M466 932l-124 -148h-126l113 147zM624 0h-166l-159 243h-82v-243h-139v710h269q123 0 185 -64.5t62 -171.5q0 -166 -146 -214zM217 585v-218h98q64 0 99 29.5t35 80.5q0 50 -33.5 79t-94.5 29h-104z" />
    <glyph glyph-name="racute" unicode="&#x155;" horiz-adv-x="375" 
d="M368 704l-124 -148h-126l113 147zM198 416q57 80 148 80q8 0 10 -1v-142q-13 1 -34 1q-59 0 -92 -35.5t-33 -91.5v-227h-131v488h131v-72h1z" />
    <glyph glyph-name="Rcommaaccent" unicode="&#x156;" horiz-adv-x="657" 
d="M448 260l176 -260h-166l-159 243h-82v-243h-139v710h269q123 0 185 -64.5t62 -171.5q0 -166 -146 -214zM217 585v-218h98q64 0 99 29.5t35 80.5q0 50 -33.5 79t-94.5 29h-104zM270 -53h113q4 -19 4 -45q0 -60 -38.5 -92.5t-100.5 -29.5l-27 74q30 8 42.5 20.5t12.5 34.5
q0 14 -6 38z" />
    <glyph glyph-name="rcommaaccent" unicode="&#x157;" horiz-adv-x="375" 
d="M346 496q8 0 10 -1v-142q-13 1 -34 1q-59 0 -92 -35.5t-33 -91.5v-227h-131v488h131v-72h1q57 80 148 80zM75 -53h113q4 -19 4 -45q0 -60 -38.5 -92.5t-100.5 -29.5l-27 74q30 8 42.5 20.5t12.5 34.5q0 14 -6 38z" />
    <glyph glyph-name="Rcaron" unicode="&#x158;" horiz-adv-x="657" 
d="M379 782h-115l-114 150h121l50 -76h2l51 76h120zM624 0h-166l-159 243h-82v-243h-139v710h269q123 0 185 -64.5t62 -171.5q0 -166 -146 -214zM217 585v-218h98q64 0 99 29.5t35 80.5q0 50 -33.5 79t-94.5 29h-104z" />
    <glyph glyph-name="rcaron" unicode="&#x159;" horiz-adv-x="375" 
d="M281 554h-115l-114 150h121l50 -76h2l51 76h120zM198 416q57 80 148 80q8 0 10 -1v-142q-13 1 -34 1q-59 0 -92 -35.5t-33 -91.5v-227h-131v488h131v-72h1z" />
    <glyph glyph-name="Sacute" unicode="&#x15a;" horiz-adv-x="584" 
d="M220 784l113 147l137 1l-124 -148h-126zM292 -8q-151 0 -259 112l84 104q38 -44 85 -66.5t92 -22.5q50 0 76 20.5t26 54.5q0 37 -27 56.5t-97 43.5q-48 17 -80 32.5t-66 41.5t-51 63t-17 85q0 85 66 143t162 60q130 1 239 -90l-81 -106q-84 70 -155 70q-38 0 -61.5 -19
t-23.5 -52q-1 -31 25 -49.5t94 -45.5q110 -43 144 -66q76 -52 76 -151q0 -107 -76 -162.5t-175 -55.5z" />
    <glyph glyph-name="sacute" unicode="&#x15b;" horiz-adv-x="448" 
d="M146 556l113 147l137 1l-124 -148h-126zM224 -8q-115 0 -198 71l64 91q60 -57 135 -57q28 0 44 11t16 29q0 16 -19 27t-70 27q-71 24 -110.5 59.5t-39.5 99.5q0 65 50 105.5t126 40.5q100 0 178 -61l-63 -96q-55 52 -117 52q-18 0 -33 -9.5t-15 -27.5q0 -14 17.5 -25.5
t56.5 -26.5q40 -15 59 -22.5t45 -22t36.5 -28t19 -35.5t8.5 -50q0 -68 -48.5 -110t-141.5 -42z" />
    <glyph glyph-name="Scircumflex" unicode="&#x15c;" horiz-adv-x="584" 
d="M289 857l-50 -75h-120l111 150h116l117 -150h-121l-51 75h-2zM323 427q110 -43 144 -66q76 -52 76 -151q0 -107 -76 -162.5t-175 -55.5q-151 0 -259 112l84 104q38 -44 85 -66.5t92 -22.5q50 0 76 20.5t26 54.5q0 37 -27 56.5t-97 43.5q-48 17 -80 32.5t-66 41.5t-51 63
t-17 85q0 85 66 143t162 60q130 1 239 -90l-81 -106q-84 70 -155 70q-38 0 -61.5 -19t-23.5 -52q-1 -31 25 -49.5t94 -45.5z" />
    <glyph glyph-name="scircumflex" unicode="&#x15d;" horiz-adv-x="448" 
d="M227 629l-50 -75h-120l111 150h116l117 -150h-121l-51 75h-2zM246 302q40 -15 59 -22.5t45 -22t36.5 -28t19 -35.5t8.5 -50q0 -68 -48.5 -110t-141.5 -42q-115 0 -198 71l64 91q60 -57 135 -57q28 0 44 11t16 29q0 16 -19 27t-70 27q-71 24 -110.5 59.5t-39.5 99.5
q0 65 50 105.5t126 40.5q100 0 178 -61l-63 -96q-55 52 -117 52q-18 0 -33 -9.5t-15 -27.5q0 -14 17.5 -25.5t56.5 -26.5z" />
    <glyph glyph-name="Scedilla" unicode="&#x15e;" horiz-adv-x="584" 
d="M307 -8l-13 -22l1 -1q93 -3 93 -81q0 -36 -30.5 -57.5t-92.5 -21.5q-31 0 -61 6v59q18 -7 52 -7q47 0 47 28q0 14 -21.5 23t-60.5 9v37l16 32q-120 20 -204 108l84 104q38 -44 85 -66.5t92 -22.5q50 0 76 20.5t26 54.5q0 37 -27 56.5t-97 43.5q-48 17 -80 32.5t-66 41.5
t-51 63t-17 85q0 85 66 143t162 60q130 1 239 -90l-81 -106q-84 70 -155 70q-38 0 -61.5 -19t-23.5 -52q-1 -31 25 -49.5t94 -45.5q110 -43 144 -66q76 -52 76 -151q0 -103 -70.5 -158.5t-165.5 -59.5z" />
    <glyph glyph-name="scedilla" unicode="&#x15f;" horiz-adv-x="448" 
d="M235 -8l-13 -22l1 -1q93 -3 93 -81q0 -36 -30.5 -57.5t-92.5 -21.5q-31 0 -61 6v59q18 -7 52 -7q47 0 47 28q0 14 -21.5 23t-60.5 9v37l17 33q-78 13 -140 66l64 91q60 -57 135 -57q28 0 44 11t16 29q0 16 -19 27t-70 27q-71 24 -110.5 59.5t-39.5 99.5q0 65 50 105.5
t126 40.5q100 0 178 -61l-63 -96q-55 52 -117 52q-18 0 -33 -9.5t-15 -27.5q0 -14 17.5 -25.5t56.5 -26.5q40 -15 59 -22.5t45 -22t36.5 -28t19 -35.5t8.5 -50q0 -66 -46 -107.5t-133 -44.5z" />
    <glyph glyph-name="Scaron" unicode="&#x160;" horiz-adv-x="584" 
d="M348 782h-115l-114 150h121l50 -76h2l51 76h120zM323 427q110 -43 144 -66q76 -52 76 -151q0 -107 -76 -162.5t-175 -55.5q-151 0 -259 112l84 104q38 -44 85 -66.5t92 -22.5q50 0 76 20.5t26 54.5q0 37 -27 56.5t-97 43.5q-48 17 -80 32.5t-66 41.5t-51 63t-17 85
q0 85 66 143t162 60q130 1 239 -90l-81 -106q-84 70 -155 70q-38 0 -61.5 -19t-23.5 -52q-1 -31 25 -49.5t94 -45.5z" />
    <glyph glyph-name="scaron" unicode="&#x161;" horiz-adv-x="448" 
d="M286 554h-115l-114 150h121l50 -76h2l51 76h120zM246 302q40 -15 59 -22.5t45 -22t36.5 -28t19 -35.5t8.5 -50q0 -68 -48.5 -110t-141.5 -42q-115 0 -198 71l64 91q60 -57 135 -57q28 0 44 11t16 29q0 16 -19 27t-70 27q-71 24 -110.5 59.5t-39.5 99.5q0 65 50 105.5
t126 40.5q100 0 178 -61l-63 -96q-55 52 -117 52q-18 0 -33 -9.5t-15 -27.5q0 -14 17.5 -25.5t56.5 -26.5z" />
    <glyph glyph-name="uni0162" unicode="&#x162;" horiz-adv-x="591" 
d="M309 0l-17 -30l1 -1q93 -3 93 -81q0 -36 -30.5 -57.5t-92.5 -21.5q-31 0 -61 6v59q18 -7 52 -7q47 0 47 28q0 14 -21.5 23t-60.5 9v37l18 36h-12v584h-196v126h533v-126h-197v-584h-56z" />
    <glyph glyph-name="uni0163" unicode="&#x163;" horiz-adv-x="373" 
d="M210 -31q93 -3 93 -81q0 -36 -30.5 -57.5t-92.5 -21.5q-31 0 -61 6v59q18 -7 52 -7q47 0 47 28q0 14 -21.5 23t-60.5 9v37l20 40q-77 34 -77 150v226h-58v108h58v160l130 14v-174h133v-108h-133v-208q0 -62 43 -62q28 0 62 17l34 -105q-55 -30 -127 -30l-12 -22z" />
    <glyph glyph-name="Tcaron" unicode="&#x164;" horiz-adv-x="591" 
d="M351 782h-115l-114 150h121l50 -76h2l51 76h120zM29 710h533v-126h-197v-584h-140v584h-196v126z" />
    <glyph glyph-name="tcaron" unicode="&#x165;" horiz-adv-x="373" 
d="M255 580l31 207h125l-64 -207h-92zM218 -8q-65 0 -102 41t-37 121v226h-58v108h58v160l130 14v-174h133v-108h-133v-208q0 -62 43 -62q28 0 62 17l34 -105q-56 -30 -130 -30z" />
    <glyph glyph-name="Tbar" unicode="&#x166;" horiz-adv-x="591" 
d="M562 584h-197v-173h117v-111h-117v-300h-140v300h-112v111h112v173h-196v126h533v-126z" />
    <glyph glyph-name="tbar" unicode="&#x167;" horiz-adv-x="373" 
d="M314 127l34 -105q-56 -30 -130 -30q-65 0 -102 41t-37 121v67h-50v83h50v76h-58v108h58v160l130 14v-174h133v-108h-133v-76h109v-83h-109v-49q0 -62 43 -62q28 0 62 17z" />
    <glyph glyph-name="Utilde" unicode="&#x168;" horiz-adv-x="713" 
d="M438 780q-41 0 -87 30q-36 21 -55 21q-35 0 -56 -50l-78 34q16 53 46.5 84.5t73.5 31.5q36 0 86 -27q36 -22 54 -22q36 0 57 49l76 -26q-16 -57 -46 -91t-71 -34zM355 -8q-130 0 -208 79.5t-78 222.5v416h141v-407q0 -79 38.5 -129t106.5 -50q66 0 107 48t41 131v407h141
v-416q0 -140 -76.5 -221t-212.5 -81z" />
    <glyph glyph-name="utilde" unicode="&#x169;" horiz-adv-x="577" 
d="M228 603q-35 0 -56 -50l-78 34q16 53 46.5 84.5t73.5 31.5q36 0 86 -27q36 -22 54 -22q36 0 57 49l76 -26q-16 -57 -46 -91t-71 -34t-87 30q-36 21 -55 21zM384 488h131v-488h-131v60h-2q-56 -68 -145 -68q-179 0 -179 202v294h130v-259q0 -66 20.5 -93t67.5 -27
q45 0 76.5 37.5t31.5 104.5v237z" />
    <glyph glyph-name="Umacron" unicode="&#x16a;" horiz-adv-x="713" 
d="M204 811v105h304v-105h-304zM355 -8q-130 0 -208 79.5t-78 222.5v416h141v-407q0 -79 38.5 -129t106.5 -50q66 0 107 48t41 131v407h141v-416q0 -140 -76.5 -221t-212.5 -81z" />
    <glyph glyph-name="umacron" unicode="&#x16b;" horiz-adv-x="577" 
d="M440 688v-105h-304v105h304zM384 488h131v-488h-131v60h-2q-56 -68 -145 -68q-179 0 -179 202v294h130v-259q0 -66 20.5 -93t67.5 -27q45 0 76.5 37.5t31.5 104.5v237z" />
    <glyph glyph-name="Ubreve" unicode="&#x16c;" horiz-adv-x="713" 
d="M356 779q-65 0 -111 40t-52 110h99q2 -27 19 -45t45 -18q27 0 45 17t19 46h100q-5 -66 -49.5 -108t-114.5 -42zM355 -8q-130 0 -208 79.5t-78 222.5v416h141v-407q0 -79 38.5 -129t106.5 -50q66 0 107 48t41 131v407h141v-416q0 -140 -76.5 -221t-212.5 -81z" />
    <glyph glyph-name="ubreve" unicode="&#x16d;" horiz-adv-x="577" 
d="M288 551q-65 0 -111 40t-52 110h99q2 -27 19 -45t45 -18q27 0 45 17t19 46h100q-5 -66 -49.5 -108t-114.5 -42zM384 488h131v-488h-131v60h-2q-56 -68 -145 -68q-179 0 -179 202v294h130v-259q0 -66 20.5 -93t67.5 -27q45 0 76.5 37.5t31.5 104.5v237z" />
    <glyph glyph-name="Uring" unicode="&#x16e;" horiz-adv-x="713" 
d="M355 761q-44 0 -75.5 30t-31.5 74q0 43 30.5 74t76.5 31t77.5 -30t31.5 -75q0 -44 -30.5 -74t-78.5 -30zM355 829q16 0 27 11t11 27q0 15 -11 26t-27 11q-15 0 -26 -11.5t-11 -26.5q0 -16 10.5 -26.5t26.5 -10.5zM355 -8q-130 0 -208 79.5t-78 222.5v416h141v-407
q0 -79 38.5 -129t106.5 -50q66 0 107 48t41 131v407h141v-416q0 -140 -76.5 -221t-212.5 -81z" />
    <glyph glyph-name="uring" unicode="&#x16f;" horiz-adv-x="577" 
d="M287 533q-44 0 -75.5 30t-31.5 74q0 43 30.5 74t76.5 31t77.5 -30t31.5 -75q0 -44 -30.5 -74t-78.5 -30zM287 676q-15 0 -26 -11.5t-11 -26.5q0 -16 10.5 -26.5t26.5 -10.5t27 11t11 27q0 15 -11 26t-27 11zM384 488h131v-488h-131v60h-2q-56 -68 -145 -68
q-179 0 -179 202v294h130v-259q0 -66 20.5 -93t67.5 -27q45 0 76.5 37.5t31.5 104.5v237z" />
    <glyph glyph-name="Uhungarumlaut" unicode="&#x170;" horiz-adv-x="713" 
d="M184 784l113 147l132 1l-124 -148h-121zM388 784l113 147l132 1l-124 -148h-121zM355 -8q-130 0 -208 79.5t-78 222.5v416h141v-407q0 -79 38.5 -129t106.5 -50q66 0 107 48t41 131v407h141v-416q0 -140 -76.5 -221t-212.5 -81z" />
    <glyph glyph-name="uhungarumlaut" unicode="&#x171;" horiz-adv-x="577" 
d="M362 704l-124 -148h-121l113 147zM442 556h-121l113 147l132 1zM384 251v237h131v-488h-131v60h-2q-56 -68 -145 -68q-179 0 -179 202v294h130v-259q0 -66 20.5 -93t67.5 -27q45 0 76.5 37.5t31.5 104.5z" />
    <glyph glyph-name="Uogonek" unicode="&#x172;" horiz-adv-x="713" 
d="M503 710h141v-416q0 -113 -50.5 -189t-143.5 -101h1q-41 -11 -65 -31t-24 -44q0 -39 41 -39q20 0 40 6l6 -70q-27 -13 -73 -13q-52 0 -82.5 25.5t-30.5 66.5q0 47 48 88v2q-112 13 -177 91t-65 208v416h141v-407q0 -79 38.5 -129t106.5 -50q66 0 107 48t41 131v407z" />
    <glyph glyph-name="uogonek" unicode="&#x173;" horiz-adv-x="577" 
d="M502 0q-37 -6 -59 -27t-22 -45q0 -41 41 -41q22 0 39 7l7 -71q-27 -12 -73 -12q-52 0 -82.5 25t-30.5 66q0 25 16 52.5t46 46.5v59h-2q-56 -68 -145 -68q-179 0 -179 202v294h130v-259q0 -66 20.5 -93t67.5 -27q45 0 76.5 37.5t31.5 104.5v237h131v-488h-13z" />
    <glyph glyph-name="Wcircumflex" unicode="&#x174;" horiz-adv-x="1033" 
d="M516 857l-50 -75h-120l111 150h116l117 -150h-121l-51 75h-2zM857 710h150l-224 -710h-130l-133 505h-3l-138 -505h-129l-224 710h150l138 -480h2l126 480h149l126 -480h1z" />
    <glyph glyph-name="wcircumflex" unicode="&#x175;" horiz-adv-x="772" 
d="M384 629l-50 -75h-120l111 150h116l117 -150h-121l-51 75h-2zM621 488h131l-166 -488h-113l-86 301h-2l-86 -301h-112l-167 488h131l95 -297h2l85 297h105l86 -297h2z" />
    <glyph glyph-name="Ycircumflex" unicode="&#x176;" horiz-adv-x="632" 
d="M315 857l-50 -75h-120l111 150h116l117 -150h-121l-51 75h-2zM460 710h163l-237 -398v-312h-142v312l-235 398h161l145 -259h2z" />
    <glyph glyph-name="ycircumflex" unicode="&#x177;" horiz-adv-x="539" 
d="M269 629l-50 -75h-120l111 150h116l117 -150h-121l-51 75h-2zM386 488h136l-263 -686h-134l86 228l-194 458h136l120 -302h1z" />
    <glyph glyph-name="Ydieresis" unicode="&#x178;" horiz-adv-x="632" 
d="M211 785q-34 0 -57.5 23.5t-23.5 56.5t23.5 56.5t57.5 23.5q33 0 57 -23.5t24 -56.5t-24 -56.5t-57 -23.5zM421 786q-34 0 -57.5 23.5t-23.5 55.5t23.5 55.5t57.5 23.5q32 0 56 -23.5t24 -55.5t-24 -55.5t-56 -23.5zM460 710h163l-237 -398v-312h-142v312l-235 398h161
l145 -259h2z" />
    <glyph glyph-name="Zacute" unicode="&#x179;" horiz-adv-x="624" 
d="M454 932l-124 -148h-126l113 147zM230 125h340v-125h-519v110l332 473v1h-318v126h504v-107l-339 -476v-2z" />
    <glyph glyph-name="zacute" unicode="&#x17a;" horiz-adv-x="486" 
d="M389 704l-124 -148h-126l113 147zM448 400l-239 -291v-2h234v-107h-406v89l235 291v1h-218v107h394v-88z" />
    <glyph glyph-name="Zdotaccent" unicode="&#x17b;" horiz-adv-x="624" 
d="M310 785q-33 0 -57 23.5t-24 56.5t24 56.5t57 23.5q34 0 58 -23.5t24 -56.5t-24 -56.5t-58 -23.5zM230 125h340v-125h-519v110l332 473v1h-318v126h504v-107l-339 -476v-2z" />
    <glyph glyph-name="zdotaccent" unicode="&#x17c;" horiz-adv-x="486" 
d="M245 557q-33 0 -57 23.5t-24 56.5t24 56.5t57 23.5q34 0 58 -23.5t24 -56.5t-24 -56.5t-58 -23.5zM448 400l-239 -291v-2h234v-107h-406v89l235 291v1h-218v107h394v-88z" />
    <glyph glyph-name="Zcaron" unicode="&#x17d;" horiz-adv-x="624" 
d="M367 782h-115l-114 150h121l50 -76h2l51 76h120zM230 125h340v-125h-519v110l332 473v1h-318v126h504v-107l-339 -476v-2z" />
    <glyph glyph-name="zcaron" unicode="&#x17e;" horiz-adv-x="486" 
d="M302 554h-115l-114 150h121l50 -76h2l51 76h120zM448 400l-239 -291v-2h234v-107h-406v89l235 291v1h-218v107h394v-88z" />
    <glyph glyph-name="longs" unicode="&#x17f;" horiz-adv-x="344" 
d="M84 0v380h-51v108h51v84q0 85 40 129t114 44q73 0 126 -36l-26 -102q-42 21 -73 21q-50 0 -50 -65v-563h-131z" />
    <glyph glyph-name="uni018F" unicode="&#x18f;" horiz-adv-x="725" 
d="M343 719q148 0 240.5 -101t92.5 -265q0 -159 -89.5 -260t-228.5 -101q-136 0 -224 94t-88 255q0 34 4 50h480q-10 91 -59.5 144t-125.5 53q-81 0 -150 -39l-66 116q97 54 214 54zM353 124q62 0 107.5 39t62.5 108h-336q11 -66 56.5 -106.5t109.5 -40.5z" />
    <glyph glyph-name="florin" unicode="&#x192;" horiz-adv-x="549" 
d="M106 -154q-100 0 -146 43l46 89q39 -17 76 -17q65 0 77 87l40 312h-75l15 109h75l14 105q23 171 183 171q97 0 146 -43l-46 -89q-40 16 -76 16q-65 0 -77 -87l-8 -73h132l-15 -109h-133l-44 -343q-24 -171 -184 -171z" />
    <glyph glyph-name="uni019D" unicode="&#x19d;" horiz-adv-x="755" 
d="M536 710h141v-710h-144l-313 471h-2v-471v-27q0 -87 -40.5 -133t-112.5 -46q-54 0 -102 18l22 104q23 -13 43 -13q24 0 37 18.5t13 49.5v222v517h140l317 -480h1v480z" />
    <glyph glyph-name="Ohorn" unicode="&#x1a0;" horiz-adv-x="862" 
d="M727 774h122v-73q0 -140 -113 -177q36 -78 36 -169q0 -162 -101.5 -262.5t-259.5 -100.5q-160 0 -261 102.5t-101 260.5q0 159 101 261.5t261 102.5q177 0 280 -124q24 13 30 37.5t6 71.5v70zM412 123q92 0 153 66t61 166t-61 166t-153 66q-95 0 -156 -67t-61 -165
t61 -165t156 -67z" />
    <glyph glyph-name="ohorn" unicode="&#x1a1;" horiz-adv-x="683" 
d="M551 565h122v-73q0 -146 -121 -179l-1 -1q8 -35 8 -68q0 -112 -73 -182t-187 -70q-115 0 -187 71t-72 181t72 181t187 71q146 0 219 -108q22 13 27.5 37.5t5.5 69.5v70zM299 109q54 0 90.5 38t36.5 97q0 60 -36 97.5t-91 37.5q-56 0 -91.5 -38.5t-35.5 -96.5
q0 -57 36 -96t91 -39z" />
    <glyph glyph-name="Uhorn" unicode="&#x1af;" horiz-adv-x="816" 
d="M707 774h122v-73q0 -89 -48.5 -138t-136.5 -49v-220q0 -140 -76.5 -221t-212.5 -81q-130 0 -208 79.5t-78 222.5v416h141v-407q0 -79 38.5 -129t106.5 -50q66 0 107 48t41 131v407h141v-124q18 4 30 11.5t18.5 16.5t10 25.5t4 29t0.5 35.5v70z" />
    <glyph glyph-name="uhorn" unicode="&#x1b0;" horiz-adv-x="702" 
d="M570 565h122v-73q0 -87 -46.5 -136t-130.5 -51v-305h-131v60h-2q-56 -68 -145 -68q-179 0 -179 202v294h130v-259q0 -66 20.5 -93t67.5 -27q45 0 76.5 37.5t31.5 104.5v237h131v-109q19 5 30.5 15t16.5 27t6.5 32t1.5 42v70z" />
    <glyph glyph-name="Gcaron" unicode="&#x1e6;" horiz-adv-x="753" 
d="M456 781h-115l-114 150h121l50 -76h2l51 76h120zM396 387h295v-306q-49 -40 -124 -64t-155 -24q-158 0 -260.5 97t-102.5 264q0 159 97 262t260 103q79 0 154 -31t128 -91l-100 -84q-76 73 -182 73q-90 0 -150 -63t-60 -169q0 -100 59 -166t157 -66q78 0 144 40v105h-160
v120z" />
    <glyph glyph-name="gcaron" unicode="&#x1e7;" horiz-adv-x="605" 
d="M354 554h-115l-114 150h121l50 -76h2l51 76h120zM413 488h130v-432q0 -262 -254 -262q-112 0 -201 49l31 111q82 -46 158 -46q66 0 102.5 31t36.5 78v49h-3q-52 -57 -142 -57q-102 0 -167.5 67t-65.5 173q0 108 64 177.5t162 69.5q88 0 146 -58h3v50zM295 127
q54 0 88.5 35.5t34.5 91.5q0 55 -35 89t-88 34q-55 0 -89.5 -34.5t-34.5 -89.5q0 -57 35 -91.5t89 -34.5z" />
    <glyph glyph-name="uni01EA" unicode="&#x1ea;" horiz-adv-x="821" 
d="M475 -3q-31 -9 -49 -28.5t-18 -40.5q0 -41 41 -41q21 0 39 7l7 -71q-27 -12 -73 -12q-52 0 -82.5 25t-30.5 66q0 50 51 91v2q-140 16 -225.5 115.5t-85.5 244.5q0 159 101 261.5t261 102.5q158 0 259.5 -101t101.5 -263q0 -144 -82 -240.5t-215 -117.5zM195 355
q0 -98 61 -165t156 -67q92 0 153 66t61 166t-61 166t-153 66q-95 0 -156 -67t-61 -165z" />
    <glyph glyph-name="uni01EB" unicode="&#x1eb;" horiz-adv-x="598" 
d="M339 -6q-28 -9 -44 -28t-16 -38q0 -41 41 -41q21 0 39 7l7 -71q-27 -12 -73 -12q-52 0 -82.5 25t-30.5 66q0 54 55 94v2q-89 20 -142 86t-53 160q0 110 72 181t187 71q114 0 187 -70t73 -182q0 -102 -60.5 -169.5t-159.5 -80.5zM172 244q0 -57 36 -96t91 -39
q54 0 90.5 38t36.5 97q0 60 -36 97.5t-91 37.5q-56 0 -91.5 -38.5t-35.5 -96.5z" />
    <glyph glyph-name="Aringacute" unicode="&#x1fa;" horiz-adv-x="698" 
d="M349 761q-44 0 -75.5 30t-31.5 74q0 43 30.5 74t76.5 31q45 0 75 -28l60 46l140 1l-166 -132q-3 -41 -33 -68.5t-76 -27.5zM349 904q-15 0 -26 -11.5t-11 -26.5q0 -16 10.5 -26.5t26.5 -10.5t27 11t11 27q0 15 -11 26t-27 11zM535 0l-48 142h-273l-48 -142h-147l263 710
h135l265 -710h-147zM255 262h191l-95 279h-2z" />
    <glyph glyph-name="aringacute" unicode="&#x1fb;" horiz-adv-x="607" 
d="M301 534q-44 0 -75.5 30t-31.5 74q0 43 30.5 74t76.5 31q44 0 73 -26l64 48l139 1l-167 -132q-2 -42 -32.5 -71t-76.5 -29zM301 677q-15 0 -26 -11.5t-11 -26.5q0 -16 10.5 -26.5t26.5 -10.5t27 11t11 27q0 15 -11 26t-27 11zM415 433v55h130v-488h-124v59h-3
q-51 -67 -146 -67q-102 0 -167.5 69.5t-65.5 181.5q0 110 65.5 181.5t164.5 71.5q91 0 143 -63h3zM296 109q52 0 88 37t36 96t-35 98t-88 39q-54 0 -90 -37.5t-36 -99.5q0 -59 35 -96t90 -37z" />
    <glyph glyph-name="AEacute" unicode="&#x1fc;" horiz-adv-x="956" 
d="M649 932l-124 -148h-126l113 147zM572 125h337v-125h-475v142h-210l-70 -142h-148l356 710h527v-126h-317v-169h258v-124h-258v-166zM283 262h151v300h-2z" />
    <glyph glyph-name="aeacute" unicode="&#x1fd;" horiz-adv-x="793" 
d="M582 695l-124 -148h-126l113 147zM766 249q0 -39 -4 -47l-320 -1q11 -43 42 -68t75 -25q55 0 97 52l91 -76q-73 -92 -196 -92q-101 0 -164 71h-3q-62 -71 -173 -71q-90 0 -135.5 41.5t-45.5 108.5q0 72 49 112.5t147 41.5h87v7q0 46 -17.5 64.5t-53.5 18.5
q-64 0 -125 -32l-53 97q84 45 186 45q104 0 143 -66h3q58 66 154 66q94 0 155 -70t61 -177zM544 381q-37 0 -64 -22t-37 -63h194q-10 39 -34.5 62t-58.5 23zM225 95q37 0 62.5 23.5t25.5 48.5v38l-73 -1q-82 0 -82 -54q0 -24 17.5 -39.5t49.5 -15.5z" />
    <glyph glyph-name="Oslashacute" unicode="&#x1fe;" horiz-adv-x="821" 
d="M594 931l-124 -148h-126l113 147zM778 677l-81 -89q75 -97 75 -233q0 -162 -101.5 -262.5t-259.5 -100.5q-118 0 -208 59l-78 -86l-67 63l76 83q-85 99 -85 244q0 159 101 261.5t261 102.5q129 0 220 -68l80 87zM195 355q0 -77 39 -136l302 328q-54 40 -124 40
q-95 0 -156 -67t-61 -165zM626 355q0 68 -30 123l-297 -323q49 -32 113 -32q92 0 153 66t61 166z" />
    <glyph glyph-name="oslashacute" unicode="&#x1ff;" horiz-adv-x="598" 
d="M482 704l-124 -148h-126l113 147zM560 461l-53 -57q52 -68 52 -160q0 -112 -73 -182t-187 -70q-80 0 -141 36l-52 -56l-57 54l49 52q-58 69 -58 166q0 110 72 181t187 71q86 0 150 -41l54 59zM172 244q0 -36 16 -68l174 187q-29 16 -63 16q-56 0 -91.5 -38.5t-35.5 -96.5
zM426 244q0 33 -12 60l-170 -183q26 -12 55 -12q54 0 90.5 38t36.5 97z" />
    <glyph glyph-name="Scommaaccent" unicode="&#x218;" horiz-adv-x="584" 
d="M292 -8q-151 0 -259 112l84 104q38 -44 85 -66.5t92 -22.5q50 0 76 20.5t26 54.5q0 37 -27 56.5t-97 43.5q-48 17 -80 32.5t-66 41.5t-51 63t-17 85q0 85 66 143t162 60q130 1 239 -90l-81 -106q-84 70 -155 70q-38 0 -61.5 -19t-23.5 -52q-1 -31 25 -49.5t94 -45.5
q110 -43 144 -66q76 -52 76 -151q0 -107 -76 -162.5t-175 -55.5zM217 -220l-27 74q30 8 42.5 20.5t12.5 34.5q0 14 -6 38h113q4 -19 4 -45q0 -60 -38.5 -92.5t-100.5 -29.5z" />
    <glyph glyph-name="scommaaccent" unicode="&#x219;" horiz-adv-x="448" 
d="M224 -8q-115 0 -198 71l64 91q60 -57 135 -57q28 0 44 11t16 29q0 16 -19 27t-70 27q-71 24 -110.5 59.5t-39.5 99.5q0 65 50 105.5t126 40.5q100 0 178 -61l-63 -96q-55 52 -117 52q-18 0 -33 -9.5t-15 -27.5q0 -14 17.5 -25.5t56.5 -26.5q40 -15 59 -22.5t45 -22
t36.5 -28t19 -35.5t8.5 -50q0 -68 -48.5 -110t-141.5 -42zM145 -220l-27 74q30 8 42.5 20.5t12.5 34.5q0 14 -6 38h113q4 -19 4 -45q0 -60 -38.5 -92.5t-100.5 -29.5z" />
    <glyph glyph-name="uni021A" unicode="&#x21a;" horiz-adv-x="591" 
d="M225 0v584h-196v126h533v-126h-197v-584h-140zM215 -220l-27 74q30 8 42.5 20.5t12.5 34.5q0 14 -6 38h113q4 -19 4 -45q0 -60 -38.5 -92.5t-100.5 -29.5z" />
    <glyph glyph-name="uni021B" unicode="&#x21b;" horiz-adv-x="373" 
d="M218 -8q-65 0 -102 41t-37 121v226h-58v108h58v160l130 14v-174h133v-108h-133v-208q0 -62 43 -62q28 0 62 17l34 -105q-56 -30 -130 -30zM132 -220l-27 74q30 8 42.5 20.5t12.5 34.5q0 14 -6 38h113q4 -19 4 -45q0 -60 -38.5 -92.5t-100.5 -29.5z" />
    <glyph glyph-name="uni0232" unicode="&#x232;" horiz-adv-x="632" 
d="M470 916v-105h-304v105h304zM460 710h163l-237 -398v-312h-142v312l-235 398h161l145 -259h2z" />
    <glyph glyph-name="uni0233" unicode="&#x233;" horiz-adv-x="539" 
d="M424 688v-105h-304v105h304zM386 488h136l-263 -686h-134l86 228l-194 458h136l120 -302h1z" />
    <glyph glyph-name="uni0237" unicode="&#x237;" horiz-adv-x="257" 
d="M52 -206q-58 0 -102 18l22 108q22 -12 43 -12q50 0 50 68v512h131v-517q0 -86 -39 -131.5t-105 -45.5z" />
    <glyph glyph-name="uni0259" unicode="&#x259;" horiz-adv-x="560" 
d="M261 496q112 0 186 -68.5t74 -184.5q0 -110 -69 -180.5t-174 -70.5q-106 0 -172.5 69.5t-66.5 177.5q0 36 3 48h346q-12 46 -47.5 71t-86.5 25q-60 0 -123 -30l-51 98q87 45 181 45zM274 107q90 0 113 84h-218q8 -40 36.5 -62t68.5 -22z" />
    <glyph glyph-name="uni0272" unicode="&#x272;" horiz-adv-x="592" 
d="M355 496q178 0 178 -206v-290h-131v257q0 67 -23 94.5t-71 27.5q-51 0 -81 -34.5t-30 -98.5v-246v-27q0 -86 -39 -132.5t-105 -46.5q-58 0 -102 18l22 104q23 -13 43 -13q24 0 37 18.5t13 49.5v222v295h131v-63h2q60 71 156 71z" />
    <glyph glyph-name="circumflex" unicode="&#x2c6;" horiz-adv-x="472" 
d="M287 533l-51 75h-2l-50 -75h-120l111 150h116l117 -150h-121z" />
    <glyph glyph-name="caron" unicode="&#x2c7;" horiz-adv-x="472" 
d="M288 683h120l-115 -150h-115l-114 150h121l50 -76h2z" />
    <glyph glyph-name="breve" unicode="&#x2d8;" horiz-adv-x="461" 
d="M230 530q-65 0 -111 40t-52 110h99q2 -27 19 -45t45 -18q27 0 45 17t19 46h100q-5 -66 -49.5 -108t-114.5 -42z" />
    <glyph glyph-name="dotaccent" unicode="&#x2d9;" horiz-adv-x="501" 
d="M250 536q-33 0 -57 23.5t-24 56.5t24 56.5t57 23.5q34 0 58 -23.5t24 -56.5t-24 -56.5t-58 -23.5z" />
    <glyph glyph-name="ring" unicode="&#x2da;" horiz-adv-x="460" 
d="M229 513q-44 0 -75.5 30t-31.5 74q0 43 30.5 74t76.5 31t77.5 -30t31.5 -75q0 -44 -30.5 -74t-78.5 -30zM229 581q16 0 27 11t11 27q0 15 -11 26t-27 11q-15 0 -26 -11.5t-11 -26.5q0 -16 10.5 -26.5t26.5 -10.5z" />
    <glyph glyph-name="ogonek" unicode="&#x2db;" horiz-adv-x="473" 
d="M273 -189q-52 0 -82.5 25t-30.5 66q0 30 22 61.5t62 50.5l103 -13q-39 -5 -63.5 -26.5t-24.5 -46.5q0 -41 41 -41q21 0 39 7l7 -71q-27 -12 -73 -12z" />
    <glyph glyph-name="tilde" unicode="&#x2dc;" horiz-adv-x="498" 
d="M328 531q-41 0 -87 30q-36 21 -55 21q-35 0 -56 -50l-78 34q16 53 46.5 84.5t73.5 31.5q36 0 86 -27q36 -22 54 -22q36 0 57 49l76 -26q-16 -57 -46 -91t-71 -34z" />
    <glyph glyph-name="hungarumlaut" unicode="&#x2dd;" horiz-adv-x="534" 
d="M46 535l113 147l132 1l-124 -148h-121zM250 535l113 147l132 1l-124 -148h-121z" />
    <glyph glyph-name="gravecomb" unicode="&#x300;" horiz-adv-x="0" 
d="M-15 535l-123 148l137 -1l113 -147h-127z" />
    <glyph glyph-name="acutecomb" unicode="&#x301;" horiz-adv-x="0" 
d="M-105 535l113 147l137 1l-124 -148h-126z" />
    <glyph glyph-name="uni0302" unicode="&#x302;" horiz-adv-x="0" 
d="M51 533l-51 75h-2l-50 -75h-120l111 150h116l117 -150h-121z" />
    <glyph glyph-name="tildecomb" unicode="&#x303;" horiz-adv-x="0" 
d="M83 531q-41 0 -87 30q-36 21 -55 21q-35 0 -56 -50l-78 34q16 53 46.5 84.5t73.5 31.5q36 0 86 -27q36 -22 54 -22q36 0 57 49l76 -26q-16 -57 -46 -91t-71 -34z" />
    <glyph glyph-name="uni0304" unicode="&#x304;" horiz-adv-x="0" 
d="M-151 562v105h304v-105h-304z" />
    <glyph glyph-name="uni0306" unicode="&#x306;" horiz-adv-x="0" 
d="M0 530q-65 0 -111 40t-52 110h99q2 -27 19 -45t45 -18q27 0 45 17t19 46h100q-5 -66 -49.5 -108t-114.5 -42z" />
    <glyph glyph-name="uni0307" unicode="&#x307;" horiz-adv-x="0" 
d="M0 536q-33 0 -57 23.5t-24 56.5t24 56.5t57 23.5q34 0 58 -23.5t24 -56.5t-24 -56.5t-58 -23.5z" />
    <glyph glyph-name="uni0308" unicode="&#x308;" horiz-adv-x="0" 
d="M-106 536q-34 0 -57.5 23.5t-23.5 56.5t23.5 56.5t57.5 23.5q33 0 57 -23.5t24 -56.5t-24 -56.5t-57 -23.5zM104 537q-34 0 -57.5 23.5t-23.5 55.5t23.5 55.5t57.5 23.5q32 0 56 -23.5t24 -55.5t-24 -55.5t-56 -23.5z" />
    <glyph glyph-name="hookabovecomb" unicode="&#x309;" horiz-adv-x="0" 
d="M-35 514q-18 18 -18 30q0 15 41 37t41 39q0 19 -29 19q-35 0 -67 -30l-45 43q20 20 53.5 34t68.5 14q49 0 76 -22t27 -57q0 -64 -90 -81l-7 -24z" />
    <glyph glyph-name="uni030A" unicode="&#x30a;" horiz-adv-x="0" 
d="M-2 513q-44 0 -75.5 30t-31.5 74q0 43 30.5 74t76.5 31t77.5 -30t31.5 -75q0 -44 -30.5 -74t-78.5 -30zM-2 581q16 0 27 11t11 27q0 15 -11 26t-27 11q-15 0 -26 -11.5t-11 -26.5q0 -16 10.5 -26.5t26.5 -10.5z" />
    <glyph glyph-name="uni030B" unicode="&#x30b;" horiz-adv-x="0" 
d="M-161 535l113 147l132 1l-124 -148h-121zM43 535l113 147l132 1l-124 -148h-121z" />
    <glyph glyph-name="uni030C" unicode="&#x30c;" horiz-adv-x="0" 
d="M52 683h120l-115 -150h-115l-114 150h121l50 -76h2z" />
    <glyph glyph-name="uni0312" unicode="&#x312;" horiz-adv-x="0" 
d="M82 708l27 -73q-30 -9 -42.5 -21.5t-12.5 -34.5q0 -14 6 -38h-113q-4 20 -4 45q0 60 38.5 92.5t100.5 29.5z" />
    <glyph glyph-name="uni031B" unicode="&#x31b;" horiz-adv-x="0" 
d="M-22 450l-3 70q28 2 45 11t24.5 27.5t9 34.5t1.5 47v70h122v-73q0 -93 -52 -142t-147 -45z" />
    <glyph glyph-name="dotbelowcomb" unicode="&#x323;" horiz-adv-x="0" 
d="M0 -90q33 0 57 -23.5t24 -56.5t-24 -56.5t-57 -23.5q-34 0 -58 23.5t-24 56.5t24 56.5t58 23.5z" />
    <glyph glyph-name="uni0326" unicode="&#x326;" horiz-adv-x="0" 
d="M-82 -220l-27 74q30 8 42.5 20.5t12.5 34.5q0 14 -6 38h113q4 -19 4 -45q0 -60 -38.5 -92.5t-100.5 -29.5z" />
    <glyph glyph-name="uni0327" unicode="&#x327;" horiz-adv-x="0" 
d="M-5 -31q93 -3 93 -81q0 -36 -30.5 -57.5t-92.5 -21.5q-31 0 -61 6v59q18 -7 52 -7q47 0 47 28q0 14 -21.5 23t-60.5 9v37l21 42h72l-20 -36z" />
    <glyph glyph-name="uni0328" unicode="&#x328;" horiz-adv-x="0" 
d="M-78 -189q-52 0 -82.5 25t-30.5 66q0 30 22 61.5t62 50.5l103 -13q-39 -5 -63.5 -26.5t-24.5 -46.5q0 -41 41 -41q21 0 39 7l7 -71q-27 -12 -73 -12z" />
    <glyph glyph-name="uni0335" unicode="&#x335;" horiz-adv-x="0" 
d="M-143 220v84h289v-84h-289z" />
    <glyph glyph-name="uni0374" unicode="&#x374;" horiz-adv-x="283" 
d="M34 471l49 259h131l-73 -259h-107z" />
    <glyph glyph-name="uni0375" unicode="&#x375;" horiz-adv-x="278" 
d="M63 -155l49 259h131l-73 -259h-107z" />
    <glyph glyph-name="uni037E" unicode="&#x37e;" horiz-adv-x="252" 
d="M121 336q-34 0 -57.5 23t-23.5 56t23.5 56.5t57.5 23.5q33 0 57 -23.5t24 -56.5t-24 -56t-57 -23zM25 -133l31 260h134l-69 -260h-96z" />
    <glyph glyph-name="tonos" unicode="&#x384;" horiz-adv-x="465" 
d="M141 535l55 173h145l-81 -173h-119z" />
    <glyph glyph-name="dieresistonos" unicode="&#x385;" horiz-adv-x="566" 
d="M207 535l5 173h111l-28 -173h-88zM101 536q-34 0 -57.5 23.5t-23.5 56.5t23.5 56.5t57.5 23.5t57.5 -23.5t23.5 -56.5t-23.5 -56.5t-57.5 -23.5zM418 537q-33 0 -56.5 23.5t-23.5 55.5t23.5 55.5t56.5 23.5t57 -23.5t24 -55.5t-24 -55.5t-57 -23.5z" />
    <glyph glyph-name="Alphatonos" unicode="&#x386;" horiz-adv-x="698" 
d="M535 0l-48 142h-273l-48 -142h-147l263 710h135l265 -710h-147zM188 709l-98 -173h-117l70 173h145zM255 262h191l-95 279h-2z" />
    <glyph glyph-name="anoteleia" unicode="&#x387;" horiz-adv-x="269" 
d="M135 336q-34 0 -57.5 23t-23.5 56t23.5 56.5t57.5 23.5q33 0 57 -23.5t24 -56.5t-24 -56t-57 -23z" />
    <glyph glyph-name="Epsilontonos" unicode="&#x388;" horiz-adv-x="600" 
d="M-192 537l70 173h145l-98 -173h-117zM78 0v710h454v-126h-316v-170h253v-124h-253v-165h337v-125h-475z" />
    <glyph glyph-name="Etatonos" unicode="&#x389;" horiz-adv-x="729" 
d="M-192 537l70 173h145l-98 -173h-117zM78 0v710h141v-307h291v307h141v-710h-141v277h-291v-277h-141z" />
    <glyph glyph-name="Iotatonos" unicode="&#x38a;" horiz-adv-x="307" 
d="M-191 537l70 173h145l-98 -173h-117zM83 0v710h141v-710h-141z" />
    <glyph glyph-name="Omicrontonos" unicode="&#x38c;" horiz-adv-x="821" 
d="M411 -8q-160 0 -261 102.5t-101 260.5q0 159 101 261.5t261 102.5q158 0 259.5 -101t101.5 -263t-101.5 -262.5t-259.5 -100.5zM-116 537l70 173h145l-98 -173h-117zM412 123q92 0 153 66t61 166t-61 166t-153 66q-95 0 -156 -67t-61 -165t61 -165t156 -67z" />
    <glyph glyph-name="Upsilontonos" unicode="&#x38e;" horiz-adv-x="632" 
d="M-241 537l70 173h145l-98 -173h-117zM460 710h163l-237 -398v-312h-142v312l-235 398h161l145 -259h2z" />
    <glyph glyph-name="Omegatonos" unicode="&#x38f;" horiz-adv-x="764" 
d="M590 127v-2h117v-125h-278v125q140 107 140 259q0 90 -52 147.5t-135 57.5q-84 -1 -135.5 -58t-51.5 -147q0 -152 140 -259v-125h-278v125h117v1q-126 108 -126 264q0 143 92.5 236t241.5 93q148 0 240.5 -93t92.5 -236q0 -157 -125 -263zM-65 710h145l-98 -173h-117z
" />
    <glyph glyph-name="iotadieresistonos" unicode="&#x390;" horiz-adv-x="296" 
d="M89 556l5 173h111l-28 -173h-88zM-17 557q-34 0 -57.5 23.5t-23.5 56.5t23.5 56.5t57.5 23.5t57.5 -23.5t23.5 -56.5t-23.5 -56.5t-57.5 -23.5zM300 558q-33 0 -56.5 23.5t-23.5 55.5t23.5 55.5t56.5 23.5t57 -23.5t24 -55.5t-24 -55.5t-57 -23.5zM195 -8
q-126 0 -126 138v358h131v-331q0 -30 6.5 -39t24.5 -9q22 0 44 7l15 -105q-52 -19 -95 -19z" />
    <glyph glyph-name="Alpha" unicode="&#x391;" horiz-adv-x="698" 
d="M535 0l-48 142h-273l-48 -142h-147l263 710h135l265 -710h-147zM255 262h191l-95 279h-2z" />
    <glyph glyph-name="Beta" unicode="&#x392;" horiz-adv-x="644" 
d="M459 377q69 -17 106.5 -64t37.5 -117q0 -88 -59.5 -142t-171.5 -54h-294v710h256q113 0 172.5 -44t59.5 -129q0 -52 -26 -95t-81 -64v-1zM216 586v-167h101q45 0 76 21.5t31 62.5q0 83 -116 83h-92zM330 124q58 0 92 23t34 67q0 43 -31.5 67.5t-93.5 24.5h-115v-182h114z
" />
    <glyph glyph-name="Gamma" unicode="&#x393;" horiz-adv-x="575" 
d="M78 0v710h467v-125h-326v-585h-141z" />
    <glyph glyph-name="uni0394" unicode="&#x394;" horiz-adv-x="686" 
d="M413 710l237 -602v-108h-114h-486h-15v107l237 603h141zM192 125h299l-147 409h-2z" />
    <glyph glyph-name="Epsilon" unicode="&#x395;" horiz-adv-x="600" 
d="M78 0v710h454v-126h-316v-170h253v-124h-253v-165h337v-125h-475z" />
    <glyph glyph-name="Zeta" unicode="&#x396;" horiz-adv-x="624" 
d="M230 125h340v-125h-519v110l332 473v1h-318v126h504v-107l-339 -476v-2z" />
    <glyph glyph-name="Eta" unicode="&#x397;" horiz-adv-x="729" 
d="M78 0v710h141v-307h291v307h141v-710h-141v277h-291v-277h-141z" />
    <glyph glyph-name="Theta" unicode="&#x398;" horiz-adv-x="829" 
d="M411 -8q-160 0 -261 102.5t-101 260.5q0 159 101 261.5t261 102.5q158 0 259.5 -101t101.5 -263t-101.5 -262.5t-259.5 -100.5zM412 123q92 0 153 66t61 166t-61 166t-153 66q-95 0 -156 -67t-61 -165t61 -165t156 -67zM281 290v122h267v-122h-267z" />
    <glyph glyph-name="Iota" unicode="&#x399;" horiz-adv-x="307" 
d="M83 0v710h141v-710h-141z" />
    <glyph glyph-name="Kappa" unicode="&#x39a;" horiz-adv-x="666" 
d="M289 285h-1l-70 -83v-202h-140v710h140v-313h1l246 313h178l-262 -313l270 -397h-173z" />
    <glyph glyph-name="Lambda" unicode="&#x39b;" horiz-adv-x="680" 
d="M509 0l-169 513h-2l-169 -513h-150l251 710h138l252 -710h-151z" />
    <glyph glyph-name="Mu" unicode="&#x39c;" horiz-adv-x="876" 
d="M657 710h141v-710h-139v441h-2l-173 -306h-91l-173 306h-2v-441h-140v710h142l218 -404h2z" />
    <glyph glyph-name="Nu" unicode="&#x39d;" horiz-adv-x="755" 
d="M536 710h141v-710h-144l-313 471h-2v-471h-140v710h140l317 -480h1v480z" />
    <glyph glyph-name="Xi" unicode="&#x39e;" horiz-adv-x="636" 
d="M61 582v128h514v-128h-514zM116 290v123h401v-123h-401zM54 0v128h528v-128h-528z" />
    <glyph glyph-name="Omicron" unicode="&#x39f;" horiz-adv-x="821" 
d="M411 -8q-160 0 -261 102.5t-101 260.5q0 159 101 261.5t261 102.5q158 0 259.5 -101t101.5 -263t-101.5 -262.5t-259.5 -100.5zM412 123q92 0 153 66t61 166t-61 166t-153 66q-95 0 -156 -67t-61 -165t61 -165t156 -67z" />
    <glyph glyph-name="Pi" unicode="&#x3a0;" horiz-adv-x="700" 
d="M78 0v710h545v-710h-142v584h-262v-584h-141z" />
    <glyph glyph-name="Rho" unicode="&#x3a1;" horiz-adv-x="624" 
d="M78 0v710h263q124 0 185.5 -64.5t61.5 -171.5q0 -114 -69.5 -172.5t-190.5 -58.5h-111v-243h-139zM217 368h93q65 0 98.5 29t33.5 80q0 50 -33 79t-93 29h-99v-217z" />
    <glyph glyph-name="Sigma" unicode="&#x3a3;" horiz-adv-x="590" 
d="M551 585h-314v-2l166 -227l-167 -230v-1h315v-125h-504v98l187 258l-187 252v102h504v-125z" />
    <glyph glyph-name="Tau" unicode="&#x3a4;" horiz-adv-x="591" 
d="M225 0v584h-196v126h533v-126h-197v-584h-140z" />
    <glyph glyph-name="Upsilon" unicode="&#x3a5;" horiz-adv-x="632" 
d="M460 710h163l-237 -398v-312h-142v312l-235 398h161l145 -259h2z" />
    <glyph glyph-name="Phi" unicode="&#x3a6;" horiz-adv-x="822" 
d="M782 357q0 -121 -79 -198t-220 -93v-66h-140v66q-143 15 -222.5 92.5t-79.5 198.5q0 124 80 206t222 99v60h140v-60q141 -18 220 -100t79 -205zM184 358q0 -67 43 -112.5t120 -59.5v353q-77 -15 -120 -63t-43 -118zM479 187q75 14 117 59t42 112q0 69 -42 117t-117 64
v-352z" />
    <glyph glyph-name="Chi" unicode="&#x3a7;" horiz-adv-x="702" 
d="M512 0l-160 249h-2l-160 -249h-164l232 357l-225 353h161l156 -245h2l156 245h161l-225 -353l232 -357h-164z" />
    <glyph glyph-name="Psi" unicode="&#x3a8;" horiz-adv-x="798" 
d="M605 710h137l-1 -257q0 -142 -69.5 -218.5t-203.5 -77.5v-157h-139v157q-132 2 -202.5 77.5t-69.5 218.5v257h137v-241q-1 -96 31 -140.5t104 -47.5v429h139v-429q70 3 103 47t33 141z" />
    <glyph glyph-name="uni03A9" unicode="&#x3a9;" horiz-adv-x="764" 
d="M590 127v-2h117v-125h-278v125q140 107 140 259q0 90 -52 147.5t-135 57.5q-84 -1 -135.5 -58t-51.5 -147q0 -152 140 -259v-125h-278v125h117v1q-126 108 -126 264q0 143 92.5 236t241.5 93q148 0 240.5 -93t92.5 -236q0 -157 -125 -263z" />
    <glyph glyph-name="Iotadieresis" unicode="&#x3aa;" horiz-adv-x="307" 
d="M46 785q-34 0 -58 23.5t-24 56.5t24 56.5t58 23.5q33 0 57 -23.5t24 -56.5t-24 -56.5t-57 -23.5zM263 786q-34 0 -57.5 23.5t-23.5 55.5t24 55.5t57 23.5q32 0 56 -23.5t24 -55.5t-24 -55.5t-56 -23.5zM83 0v710h141v-710h-141z" />
    <glyph glyph-name="Upsilondieresis" unicode="&#x3ab;" horiz-adv-x="632" 
d="M206 785q-34 0 -58 23.5t-24 56.5t24 56.5t58 23.5q33 0 57 -23.5t24 -56.5t-24 -56.5t-57 -23.5zM423 786q-34 0 -57.5 23.5t-23.5 55.5t24 55.5t57 23.5q32 0 56 -23.5t24 -55.5t-24 -55.5t-56 -23.5zM460 710h163l-237 -398v-312h-142v312l-235 398h161l145 -259h2z
" />
    <glyph glyph-name="alphatonos" unicode="&#x3ac;" horiz-adv-x="598" 
d="M440 729l-81 -173h-119l55 173h145zM573 113l14 -103q-44 -18 -86 -18q-82 0 -99 73h-2q-48 -73 -144 -73q-100 0 -159 69t-59 182q0 111 62.5 182t160.5 71q99 0 149 -81h2l4 73h123l-27 -216v-111q0 -29 6.5 -41t24.5 -12q15 0 30 5zM278 109q49 0 81.5 35.5t39.5 95.5
v6q-1 62 -31.5 97.5t-81.5 35.5q-50 0 -82.5 -37.5t-32.5 -99.5q0 -59 29 -96t78 -37z" />
    <glyph glyph-name="epsilontonos" unicode="&#x3ad;" horiz-adv-x="505" 
d="M395 729l-81 -173h-119l55 173h145zM427 142l55 -92q-55 -35 -109.5 -46.5t-129.5 -11.5q-92 0 -146 37t-54 105q0 85 81 121q-66 37 -66 102q0 63 49.5 100.5t142.5 38.5q140 0 223 -50l-49 -92q-76 31 -154 29q-82 0 -82 -41q0 -17 18.5 -29.5t57.5 -13.5h82v-100h-90
q-39 0 -58.5 -15t-19.5 -33q0 -46 100 -46q87 0 149 37z" />
    <glyph glyph-name="etatonos" unicode="&#x3ae;" horiz-adv-x="588" 
d="M436 729l-81 -173h-119l55 173h145zM352 496q176 0 176 -208v-486h-131v453q0 124 -92 124q-49 0 -78 -35.5t-29 -99.5v-244h-131v488h131v-63h1q62 71 153 71z" />
    <glyph glyph-name="iotatonos" unicode="&#x3af;" horiz-adv-x="296" 
d="M77 556l55 173h145l-81 -173h-119zM195 -8q-126 0 -126 138v358h131v-331q0 -30 6.5 -39t24.5 -9q22 0 44 7l15 -105q-52 -19 -95 -19z" />
    <glyph glyph-name="upsilondieresistonos" unicode="&#x3b0;" horiz-adv-x="564" 
d="M232 556l5 173h111l-28 -173h-88zM126 557q-34 0 -57.5 23.5t-23.5 56.5t23.5 56.5t57.5 23.5t57.5 -23.5t23.5 -56.5t-23.5 -56.5t-57.5 -23.5zM443 558q-33 0 -56.5 23.5t-23.5 55.5t23.5 55.5t56.5 23.5t57 -23.5t24 -55.5t-24 -55.5t-57 -23.5zM282 -8
q-104 0 -164.5 62.5t-60.5 183.5v250h131v-241q0 -69 25.5 -103.5t68.5 -34.5q95 0 95 138v241h131v-250q0 -122 -60 -184t-166 -62z" />
    <glyph glyph-name="alpha" unicode="&#x3b1;" horiz-adv-x="598" 
d="M573 113l14 -103q-44 -18 -86 -18q-82 0 -99 73h-2q-48 -73 -144 -73q-100 0 -159 69t-59 182q0 111 62.5 182t160.5 71q99 0 149 -81h2l4 73h123l-27 -216v-111q0 -29 6.5 -41t24.5 -12q15 0 30 5zM278 109q49 0 81.5 35.5t39.5 95.5v6q-1 62 -31.5 97.5t-81.5 35.5
q-50 0 -82.5 -37.5t-32.5 -99.5q0 -59 29 -96t78 -37z" />
    <glyph glyph-name="beta" unicode="&#x3b2;" horiz-adv-x="599" 
d="M447 400q54 -26 85 -74.5t31 -105.5q0 -105 -62 -166.5t-166 -61.5q-84 0 -136 50h-1v-240h-131v687q0 125 64 190.5t170 65.5q105 0 165 -54t60 -135q0 -109 -79 -155v-1zM316 103q52 0 83.5 31t31.5 81q0 48 -35.5 81t-96.5 33h-36v106h29q32 0 54.5 10.5t33.5 27.5
t15 33t4 34q0 38 -24.5 63.5t-69.5 25.5q-46 0 -76.5 -31t-30.5 -98v-274q0 -50 33.5 -86.5t84.5 -36.5z" />
    <glyph glyph-name="gamma" unicode="&#x3b3;" horiz-adv-x="539" 
d="M522 488l-188 -490q5 -17 8 -36.5t4.5 -42t2 -37.5t0.5 -42.5v-37.5h-128v31.5t-0.5 36t-2 34.5t-4.5 40t-9 39.5t-14 44.5l-174 460h139l114 -335h2l111 335h139z" />
    <glyph glyph-name="delta" unicode="&#x3b4;" horiz-adv-x="577" 
d="M397 466q145 -83 145 -229q0 -111 -70.5 -178t-178.5 -67q-113 0 -184 68.5t-71 178.5q0 73 37 129.5t99 90.5q-71 58 -71 135q0 65 51 107.5t140 43.5q132 0 221 -52l-50 -100q-74 39 -159 39q-74 0 -74 -42q0 -21 19 -37.5t67 -42.5q43 -23 79 -44zM293 109
q49 0 82.5 33.5t33.5 92.5q0 94 -114 150q-9 4 -25 14q-46 -25 -72.5 -66.5t-26.5 -93.5q0 -57 34 -93.5t88 -36.5z" />
    <glyph glyph-name="epsilon" unicode="&#x3b5;" horiz-adv-x="505" 
d="M427 142l55 -92q-55 -35 -109.5 -46.5t-129.5 -11.5q-92 0 -146 37t-54 105q0 85 81 121q-66 37 -66 102q0 63 49.5 100.5t142.5 38.5q140 0 223 -50l-49 -92q-76 31 -154 29q-82 0 -82 -41q0 -17 18.5 -29.5t57.5 -13.5h82v-100h-90q-39 0 -58.5 -15t-19.5 -33
q0 -46 100 -46q87 0 149 37z" />
    <glyph glyph-name="zeta" unicode="&#x3b6;" horiz-adv-x="472" 
d="M471 639q-130 -101 -215.5 -209.5t-86.5 -194.5q0 -27 8.5 -46t33 -34t43 -22.5t61.5 -22.5q90 -29 122.5 -64.5t32.5 -89.5q0 -89 -85 -176l-109 56q20 22 30 33.5t20.5 31t10.5 36.5q0 24 -22 41.5t-87 35.5q-41 12 -70.5 26t-59.5 38t-45.5 63.5t-15.5 92.5
q3 173 255 391h-218v111h397v-97z" />
    <glyph glyph-name="eta" unicode="&#x3b7;" horiz-adv-x="588" 
d="M352 496q176 0 176 -208v-486h-131v453q0 124 -92 124q-49 0 -78 -35.5t-29 -99.5v-244h-131v488h131v-63h1q62 71 153 71z" />
    <glyph glyph-name="theta" unicode="&#x3b8;" horiz-adv-x="593" 
d="M296 745q118 0 188.5 -94t70.5 -282q0 -82 -14.5 -149t-44.5 -119t-81 -80.5t-119 -28.5q-117 0 -187 93t-70 284q0 109 24.5 190.5t84 133.5t148.5 52zM296 629q-55 0 -86 -53t-38 -151h249q-14 204 -125 204zM296 107q113 0 125 210h-250q13 -210 125 -210z" />
    <glyph glyph-name="iota" unicode="&#x3b9;" horiz-adv-x="296" 
d="M195 -8q-126 0 -126 138v358h131v-331q0 -30 6.5 -39t24.5 -9q22 0 44 7l15 -105q-52 -19 -95 -19z" />
    <glyph glyph-name="kappa" unicode="&#x3ba;" horiz-adv-x="581" 
d="M268 190h-2l-69 -70v-120h-131v488h131v-202h1l199 202h162l-201 -205l213 -283h-158z" />
    <glyph glyph-name="lambda" unicode="&#x3bb;" horiz-adv-x="558" 
d="M404 0q-19 56 -56 164.5t-55 162.5h-1l-131 -327h-141l211 490l-27 71q-23 68 -73 68q-30 0 -59 -9l-17 106q59 19 109 19q60 0 98 -37.5t71 -124.5q90 -243 208 -583h-137z" />
    <glyph glyph-name="uni03BC" unicode="&#x3bc;" horiz-adv-x="582" 
d="M390 488h131v-488h-121l-7 61h-2q-53 -69 -133 -69q-47 0 -73 23l-1 -1q9 -52 9 -111v-101h-130v686h130v-250q0 -129 94 -129q45 0 74 36t29 99v244z" />
    <glyph glyph-name="nu" unicode="&#x3bd;" horiz-adv-x="540" 
d="M384 488h139l-191 -488h-123l-192 488h138l115 -328h1z" />
    <glyph glyph-name="xi" unicode="&#x3be;" horiz-adv-x="499" 
d="M330 108q84 -31 117.5 -66.5t33.5 -87.5q0 -44 -26 -92.5t-59 -81.5l-109 56q62 66 62 102q0 22 -21 38t-73 34q-46 16 -78.5 31t-66.5 40t-52 60.5t-18 81.5q0 52 31.5 99t87.5 75v1q-85 54 -85 153q0 94 65 144t151 50q118 0 207 -52l-51 -104q-74 39 -144 39
q-46 0 -71.5 -24.5t-25.5 -60.5q0 -100 180 -100h53v-109h-112q-72 0 -112.5 -29.5t-40.5 -73.5q0 -41 36 -66t121 -57z" />
    <glyph glyph-name="omicron" unicode="&#x3bf;" horiz-adv-x="585" 
d="M293 -8q-112 0 -183.5 70t-71.5 182t71.5 182t183.5 70t183 -70t71 -182t-71 -182t-183 -70zM292 109q52 0 87.5 38t35.5 97t-35 97t-88 38q-52 0 -87 -38t-35 -97t35 -97t87 -38z" />
    <glyph glyph-name="pi" unicode="&#x3c0;" horiz-adv-x="624" 
d="M602 488v-111h-79v-377h-130v377h-161v-377h-130v377h-77v111h577z" />
    <glyph glyph-name="rho" unicode="&#x3c1;" horiz-adv-x="600" 
d="M304 496q111 0 185 -71t74 -182t-64.5 -181t-163.5 -70q-88 0 -143 52h-3v-242h-131v441q0 111 66.5 182t179.5 71zM305 109q55 0 90.5 37.5t35.5 95.5q0 61 -36.5 99t-90.5 38q-51 0 -86 -39.5t-35 -97.5q0 -59 35.5 -96t86.5 -37z" />
    <glyph glyph-name="uni03C2" unicode="&#x3c2;" horiz-adv-x="510" 
d="M383 -220l-110 56q22 22 31.5 32.5t19.5 29.5t10 38q0 23 -17.5 38t-69.5 34q-48 18 -80.5 36t-65.5 46.5t-50 71t-17 97.5q0 106 72 171.5t188 65.5q59 0 114 -24t91 -69l-88 -76q-47 52 -113 52q-60 0 -95.5 -33.5t-35.5 -87.5q0 -53 37 -86t118 -63q83 -30 114 -65.5
t31 -89.5q0 -36 -15.5 -72.5t-29 -54.5t-39.5 -47z" />
    <glyph glyph-name="sigma" unicode="&#x3c3;" horiz-adv-x="602" 
d="M586 379h-115v-2q71 -64 71 -155q0 -101 -70 -165.5t-182 -64.5q-110 0 -180 67.5t-70 179.5q0 111 71.5 180t186.5 69h288v-109zM292 109q53 0 85 36.5t32 93.5q0 84 -65 140h-45q-56 0 -91.5 -39.5t-35.5 -100.5q0 -59 35 -94.5t85 -35.5z" />
    <glyph glyph-name="tau" unicode="&#x3c4;" horiz-adv-x="470" 
d="M288 -8q-141 0 -141 163v224h-129v109h426v-109h-165v-200q0 -39 11 -54.5t40 -15.5q27 0 66 18l32 -104q-62 -31 -140 -31z" />
    <glyph glyph-name="upsilon" unicode="&#x3c5;" horiz-adv-x="564" 
d="M282 -8q-104 0 -164.5 62.5t-60.5 183.5v250h131v-241q0 -69 25.5 -103.5t68.5 -34.5q95 0 95 138v241h131v-250q0 -122 -60 -184t-166 -62z" />
    <glyph glyph-name="phi" unicode="&#x3c6;" horiz-adv-x="719" 
d="M681 264q0 -112 -71 -187.5t-193 -79.5v-195h-130v195q-109 4 -177 73t-68 183q0 76 22.5 133.5t65.5 114.5l126 -28q-84 -100 -84 -208q0 -65 30.5 -106t85.5 -49v175q0 101 47.5 156t125.5 55q102 0 161 -64.5t59 -167.5zM416 108q64 6 99 49.5t35 104.5
q0 46 -20.5 82.5t-53.5 36.5q-37 0 -48.5 -28.5t-11.5 -76.5v-168z" />
    <glyph glyph-name="chi" unicode="&#x3c7;" horiz-adv-x="533" 
d="M517 -87l15 -103q-36 -16 -79 -16q-52 0 -82.5 28.5t-57.5 94.5l-47 109h-1l-113 -224h-141l194 353l-88 175q-24 50 -61 50q-10 0 -25 -3l-17 104q37 15 81 15q49 0 78.5 -28t55.5 -88l41 -99h1l105 207h140l-184 -332l97 -195q26 -52 59 -52q1 0 29 4z" />
    <glyph glyph-name="psi" unicode="&#x3c8;" horiz-adv-x="725" 
d="M543 488h128v-253q0 -117 -66.5 -179.5t-176.5 -64.5v-189h-130v189q-111 2 -177.5 64.5t-66.5 179.5v253h128v-242q0 -65 32.5 -99t84.5 -36v529h128v-529q52 2 84 36.5t32 98.5v242z" />
    <glyph glyph-name="omega" unicode="&#x3c9;" horiz-adv-x="759" 
d="M629 502q43 -55 66.5 -115t23.5 -155q0 -111 -56 -175.5t-135 -64.5q-105 0 -147 84h-3q-42 -84 -147 -84q-80 0 -135.5 64.5t-55.5 175.5q0 94 23 154t66 116l119 -23q-32 -48 -53.5 -111.5t-21.5 -122.5q0 -66 21 -101t56 -35q30 0 49.5 36t19.5 99v122h120v-122
q0 -63 20 -99t50 -36q35 0 56 35t21 101q0 58 -22 121.5t-53 112.5z" />
    <glyph glyph-name="iotadieresis" unicode="&#x3ca;" horiz-adv-x="296" 
d="M28 557q-34 0 -58 23.5t-24 56.5t24 56.5t58 23.5q33 0 57 -23.5t24 -56.5t-24 -56.5t-57 -23.5zM245 558q-34 0 -57.5 23.5t-23.5 55.5t24 55.5t57 23.5q32 0 56 -23.5t24 -55.5t-24 -55.5t-56 -23.5zM195 -8q-126 0 -126 138v358h131v-331q0 -30 6.5 -39t24.5 -9
q22 0 44 7l15 -105q-52 -19 -95 -19z" />
    <glyph glyph-name="upsilondieresis" unicode="&#x3cb;" horiz-adv-x="564" 
d="M171 557q-34 0 -58 23.5t-24 56.5t24 56.5t58 23.5q33 0 57 -23.5t24 -56.5t-24 -56.5t-57 -23.5zM388 558q-34 0 -57.5 23.5t-23.5 55.5t24 55.5t57 23.5q32 0 56 -23.5t24 -55.5t-24 -55.5t-56 -23.5zM282 -8q-104 0 -164.5 62.5t-60.5 183.5v250h131v-241
q0 -69 25.5 -103.5t68.5 -34.5q95 0 95 138v241h131v-250q0 -122 -60 -184t-166 -62z" />
    <glyph glyph-name="omicrontonos" unicode="&#x3cc;" horiz-adv-x="585" 
d="M233 556l55 173h145l-81 -173h-119zM293 -8q-112 0 -183.5 70t-71.5 182t71.5 182t183.5 70t183 -70t71 -182t-71 -182t-183 -70zM292 109q52 0 87.5 38t35.5 97t-35 97t-88 38q-52 0 -87 -38t-35 -97t35 -97t87 -38z" />
    <glyph glyph-name="upsilontonos" unicode="&#x3cd;" horiz-adv-x="564" 
d="M220 556l55 173h145l-81 -173h-119zM282 -8q-104 0 -164.5 62.5t-60.5 183.5v250h131v-241q0 -69 25.5 -103.5t68.5 -34.5q95 0 95 138v241h131v-250q0 -122 -60 -184t-166 -62z" />
    <glyph glyph-name="omegatonos" unicode="&#x3ce;" horiz-adv-x="759" 
d="M521 729l-81 -173h-119l55 173h145zM629 502q43 -55 66.5 -115t23.5 -155q0 -111 -56 -175.5t-135 -64.5q-105 0 -147 84h-3q-42 -84 -147 -84q-80 0 -135.5 64.5t-55.5 175.5q0 94 23 154t66 116l119 -23q-32 -48 -53.5 -111.5t-21.5 -122.5q0 -66 21 -101t56 -35
q30 0 49.5 36t19.5 99v122h120v-122q0 -63 20 -99t50 -36q35 0 56 35t21 101q0 58 -22 121.5t-53 112.5z" />
    <glyph glyph-name="uni03D7" unicode="&#x3d7;" horiz-adv-x="596" 
d="M354 283q36 -96 84.5 -140t143.5 -62v-73q-113 -123 -195 -173.5t-186 -50.5q-115 0 -194 45l23 109q70 -49 153 -49q118 0 235 106v2q-109 64 -153 189h-1l-67 -73v-113h-131v488h131v-205h1l186 205h158z" />
    <glyph glyph-name="Wgrave" unicode="&#x1e80;" horiz-adv-x="1033" 
d="M579 784h-127l-123 148l137 -1zM857 710h150l-224 -710h-130l-133 505h-3l-138 -505h-129l-224 710h150l138 -480h2l126 480h149l126 -480h1z" />
    <glyph glyph-name="wgrave" unicode="&#x1e81;" horiz-adv-x="772" 
d="M449 556h-127l-123 148l137 -1zM621 488h131l-166 -488h-113l-86 301h-2l-86 -301h-112l-167 488h131l95 -297h2l85 297h105l86 -297h2z" />
    <glyph glyph-name="Wacute" unicode="&#x1e82;" horiz-adv-x="1033" 
d="M708 932l-124 -148h-126l113 147zM857 710h150l-224 -710h-130l-133 505h-3l-138 -505h-129l-224 710h150l138 -480h2l126 480h149l126 -480h1z" />
    <glyph glyph-name="wacute" unicode="&#x1e83;" horiz-adv-x="772" 
d="M576 704l-124 -148h-126l113 147zM621 488h131l-166 -488h-113l-86 301h-2l-86 -301h-112l-167 488h131l95 -297h2l85 297h105l86 -297h2z" />
    <glyph glyph-name="Wdieresis" unicode="&#x1e84;" horiz-adv-x="1033" 
d="M412 785q-34 0 -57.5 23.5t-23.5 56.5t23.5 56.5t57.5 23.5q33 0 57 -23.5t24 -56.5t-24 -56.5t-57 -23.5zM622 786q-34 0 -57.5 23.5t-23.5 55.5t23.5 55.5t57.5 23.5q32 0 56 -23.5t24 -55.5t-24 -55.5t-56 -23.5zM857 710h150l-224 -710h-130l-133 505h-3l-138 -505
h-129l-224 710h150l138 -480h2l126 480h149l126 -480h1z" />
    <glyph glyph-name="wdieresis" unicode="&#x1e85;" horiz-adv-x="772" 
d="M280 557q-34 0 -57.5 23.5t-23.5 56.5t23.5 56.5t57.5 23.5q33 0 57 -23.5t24 -56.5t-24 -56.5t-57 -23.5zM490 558q-34 0 -57.5 23.5t-23.5 55.5t23.5 55.5t57.5 23.5q32 0 56 -23.5t24 -55.5t-24 -55.5t-56 -23.5zM621 488h131l-166 -488h-113l-86 301h-2l-86 -301
h-112l-167 488h131l95 -297h2l85 297h105l86 -297h2z" />
    <glyph glyph-name="uni1E9E" unicode="&#x1e9e;" horiz-adv-x="772" 
d="M537 424q36 -14 50 -19.5t43 -19t41 -23t30.5 -26t26 -33.5t14 -41t6.5 -52q0 -55 -22.5 -99t-58.5 -69t-76.5 -37.5t-80.5 -12.5q-120 0 -220 83l64 121q37 -37 80 -57t77 -20q43 0 66.5 20.5t23.5 54.5q0 37 -26.5 56.5t-96.5 44.5q-57 19 -119 53h-2l123 235v1
q-85 10 -132 10q-72 0 -108 -30t-37 -99v-465h-139v472q1 247 272 247q144 0 331 -48l-130 -245v-2z" />
    <glyph glyph-name="uni1EA0" unicode="&#x1ea0;" horiz-adv-x="698" 
d="M682 0h-147l-48 142h-273l-48 -142h-147l263 710h135zM255 262h191l-95 279h-2zM350 -90q33 0 57 -23.5t24 -56.5t-24 -56.5t-57 -23.5q-34 0 -58 23.5t-24 56.5t24 56.5t58 23.5z" />
    <glyph glyph-name="uni1EA1" unicode="&#x1ea1;" horiz-adv-x="607" 
d="M415 488h130v-488h-124v59h-3q-51 -67 -146 -67q-102 0 -167.5 69.5t-65.5 181.5q0 110 65.5 181.5t164.5 71.5q91 0 143 -63h3v55zM296 109q52 0 88 37t36 96t-35 98t-88 39q-54 0 -90 -37.5t-36 -99.5q0 -59 35 -96t90 -37zM294 -90q33 0 57 -23.5t24 -56.5t-24 -56.5
t-57 -23.5q-34 0 -58 23.5t-24 56.5t24 56.5t58 23.5z" />
    <glyph glyph-name="uni1EA2" unicode="&#x1ea2;" horiz-adv-x="698" 
d="M350 888q-35 0 -67 -30l-45 43q20 20 53.5 34t68.5 14q49 0 76 -22t27 -57q0 -64 -90 -81l-7 -24l-51 -2q-18 18 -18 30q0 15 41 37t41 39q0 19 -29 19zM535 0l-48 142h-273l-48 -142h-147l263 710h135l265 -710h-147zM255 262h191l-95 279h-2z" />
    <glyph glyph-name="uni1EA3" unicode="&#x1ea3;" horiz-adv-x="607" 
d="M302 660q-35 0 -67 -30l-45 43q20 20 53.5 34t68.5 14q49 0 76 -22t27 -57q0 -64 -90 -81l-7 -24l-51 -2q-18 18 -18 30q0 15 41 37t41 39q0 19 -29 19zM415 488h130v-488h-124v59h-3q-51 -67 -146 -67q-102 0 -167.5 69.5t-65.5 181.5q0 110 65.5 181.5t164.5 71.5
q91 0 143 -63h3v55zM296 109q52 0 88 37t36 96t-35 98t-88 39q-54 0 -90 -37.5t-36 -99.5q0 -59 35 -96t90 -37z" />
    <glyph glyph-name="uni1EA4" unicode="&#x1ea4;" horiz-adv-x="698" 
d="M744 959l-149 -147h-98l113 146zM348 841l-50 -75h-120l111 150h116l117 -150h-121l-51 75h-2zM282 710h135l265 -710h-147l-48 142h-273l-48 -142h-147zM255 262h191l-95 279h-2z" />
    <glyph glyph-name="uni1EA5" unicode="&#x1ea5;" horiz-adv-x="607" 
d="M667 795l-149 -147h-98l113 147h134zM300 629l-50 -75h-120l111 150h116l117 -150h-121l-51 75h-2zM415 433v55h130v-488h-124v59h-3q-51 -67 -146 -67q-102 0 -167.5 69.5t-65.5 181.5q0 110 65.5 181.5t164.5 71.5q91 0 143 -63h3zM296 109q52 0 88 37t36 96t-35 98
t-88 39q-54 0 -90 -37.5t-36 -99.5q0 -59 35 -96t90 -37z" />
    <glyph glyph-name="uni1EA6" unicode="&#x1ea6;" horiz-adv-x="698" 
d="M646 812h-96l-121 147h132zM349 841l-50 -75h-120l111 150h116l117 -150h-121l-51 75h-2zM535 0l-48 142h-273l-48 -142h-147l263 710h135l265 -710h-147zM255 262h191l-95 279h-2z" />
    <glyph glyph-name="uni1EA7" unicode="&#x1ea7;" horiz-adv-x="607" 
d="M556 649h-96l-121 147l132 -1zM300 629l-50 -75h-120l111 150h116l117 -150h-121l-51 75h-2zM415 433v55h130v-488h-124v59h-3q-51 -67 -146 -67q-102 0 -167.5 69.5t-65.5 181.5q0 110 65.5 181.5t164.5 71.5q91 0 143 -63h3zM296 109q52 0 88 37t36 96t-35 98t-88 39
q-54 0 -90 -37.5t-36 -99.5q0 -59 35 -96t90 -37z" />
    <glyph glyph-name="uni1EA8" unicode="&#x1ea8;" horiz-adv-x="698" 
d="M569 906q-38 0 -68 -30l-45 44q47 47 123 47q46 0 71.5 -22t25.5 -57q0 -30 -22.5 -51t-62.5 -29l-7 -25l-50 -1q-19 16 -19 30q0 15 39 37t39 39q0 18 -24 18zM348 841l-50 -75h-120l111 150h116l117 -150h-121l-51 75h-2zM535 0l-48 142h-273l-48 -142h-147l263 710
h135l265 -710h-147zM255 262h191l-95 279h-2z" />
    <glyph glyph-name="uni1EA9" unicode="&#x1ea9;" horiz-adv-x="607" 
d="M491 807q45 0 71.5 -22t26.5 -57q0 -30 -23 -51t-62 -30l-8 -24l-50 -2q-19 19 -19 31q0 10 12.5 19.5t27 16.5t27 17.5t12.5 21.5q0 19 -25 19q-37 0 -67 -30l-46 43q20 20 54 34t69 14zM300 629l-50 -75h-120l111 150h116l117 -150h-121l-51 75h-2zM415 433v55h130
v-488h-124v59h-3q-51 -67 -146 -67q-102 0 -167.5 69.5t-65.5 181.5q0 110 65.5 181.5t164.5 71.5q91 0 143 -63h3zM296 109q52 0 88 37t36 96t-35 98t-88 39q-54 0 -90 -37.5t-36 -99.5q0 -59 35 -96t90 -37z" />
    <glyph glyph-name="uni1EAA" unicode="&#x1eaa;" horiz-adv-x="698" 
d="M289 908q-23 0 -43 -36l-62 22q14 35 39.5 56t57.5 21q28 0 78 -24q28 -13 45 -13q30 0 50 36l61 -16q-14 -39 -40.5 -61t-61.5 -22q-33 0 -73 21q-36 16 -51 16zM346 798l-59 -61h-115l120 117h108l126 -117h-116l-60 61h-4zM535 0l-48 142h-273l-48 -142h-147l263 710
h135l265 -710h-147zM255 262h191l-95 279h-2z" />
    <glyph glyph-name="uni1EAB" unicode="&#x1eab;" horiz-adv-x="607" 
d="M249 771q-26 0 -47 -50l-78 34q16 52 44.5 84t64.5 32q12 0 22 -1.5t19.5 -5t13.5 -5.5t14.5 -8t11.5 -7q36 -22 55 -22q35 0 56 49l77 -26q-15 -57 -46 -91t-71 -34t-88 30q-4 3 -12.5 8t-12 7t-10 4t-13.5 2zM241 704h116l117 -150h-121l-51 75h-2l-50 -75h-120z
M415 488h130v-488h-124v59h-3q-51 -67 -146 -67q-102 0 -167.5 69.5t-65.5 181.5q0 110 65.5 181.5t164.5 71.5q91 0 143 -63h3v55zM296 109q52 0 88 37t36 96t-35 98t-88 39q-54 0 -90 -37.5t-36 -99.5q0 -59 35 -96t90 -37z" />
    <glyph glyph-name="uni1EAC" unicode="&#x1eac;" horiz-adv-x="698" 
d="M348 857l-50 -75h-120l111 150h116l117 -150h-121l-51 75h-2zM682 0h-147l-48 142h-273l-48 -142h-147l263 710h135zM255 262h191l-95 279h-2zM350 -90q33 0 57 -23.5t24 -56.5t-24 -56.5t-57 -23.5q-34 0 -58 23.5t-24 56.5t24 56.5t58 23.5z" />
    <glyph glyph-name="uni1EAD" unicode="&#x1ead;" horiz-adv-x="607" 
d="M300 629l-50 -75h-120l111 150h116l117 -150h-121l-51 75h-2zM415 488h130v-488h-124v59h-3q-51 -67 -146 -67q-102 0 -167.5 69.5t-65.5 181.5q0 110 65.5 181.5t164.5 71.5q91 0 143 -63h3v55zM296 109q52 0 88 37t36 96t-35 98t-88 39q-54 0 -90 -37.5t-36 -99.5
q0 -59 35 -96t90 -37zM294 -90q33 0 57 -23.5t24 -56.5t-24 -56.5t-57 -23.5q-34 0 -58 23.5t-24 56.5t24 56.5t58 23.5z" />
    <glyph glyph-name="uni1EAE" unicode="&#x1eae;" horiz-adv-x="698" 
d="M538 950l-146 -104h-94l101 103zM350 738q-135 0 -171 119h85q18 -52 86 -52t86 52h85q-16 -57 -60.5 -88t-110.5 -31zM535 0l-48 142h-273l-48 -142h-147l263 710h135l265 -710h-147zM255 262h191l-95 279h-2z" />
    <glyph glyph-name="uni1EAF" unicode="&#x1eaf;" horiz-adv-x="607" 
d="M465 867l-124 -148h-126l113 147zM297 551q-65 0 -111 40t-52 110h99q2 -27 19 -45t45 -18q27 0 45 17t19 46h100q-5 -66 -49.5 -108t-114.5 -42zM415 488h130v-488h-124v59h-3q-51 -67 -146 -67q-102 0 -167.5 69.5t-65.5 181.5q0 110 65.5 181.5t164.5 71.5
q91 0 143 -63h3v55zM296 109q52 0 88 37t36 96t-35 98t-88 39q-54 0 -90 -37.5t-36 -99.5q0 -59 35 -96t90 -37z" />
    <glyph glyph-name="uni1EB0" unicode="&#x1eb0;" horiz-adv-x="698" 
d="M402 846h-94l-146 104l139 -1zM264 857q20 -52 86 -52q68 0 86 52h85q-16 -57 -60.5 -88t-110.5 -31q-65 0 -109.5 30.5t-60.5 88.5h84zM535 0l-48 142h-273l-48 -142h-147l263 710h135l265 -710h-147zM255 262h191l-95 279h-2z" />
    <glyph glyph-name="uni1EB1" unicode="&#x1eb1;" horiz-adv-x="607" 
d="M353 719h-127l-123 148l137 -1zM301 638q27 0 45 17t19 46h100q-5 -66 -49.5 -108t-114.5 -42q-65 0 -111 40t-52 110h99q2 -27 19 -45t45 -18zM415 488h130v-488h-124v59h-3q-51 -67 -146 -67q-102 0 -167.5 69.5t-65.5 181.5q0 110 65.5 181.5t164.5 71.5q91 0 143 -63
h3v55zM296 109q52 0 88 37t36 96t-35 98t-88 39q-54 0 -90 -37.5t-36 -99.5q0 -59 35 -96t90 -37z" />
    <glyph glyph-name="uni1EB2" unicode="&#x1eb2;" horiz-adv-x="698" 
d="M347 913q-33 0 -61 -26l-40 39q42 42 109 42q40 0 63 -19t23 -49q0 -24 -20 -42t-54 -26l-7 -13h-27q-25 0 -25 18q0 13 31.5 30.5t31.5 29.5q0 16 -24 16zM350 738q-66 0 -110.5 31t-60.5 88h85q18 -52 86 -52q67 0 86 52h85q-36 -119 -171 -119zM535 0l-48 142h-273
l-48 -142h-147l263 710h135l265 -710h-147zM255 262h191l-95 279h-2z" />
    <glyph glyph-name="uni1EB3" unicode="&#x1eb3;" horiz-adv-x="607" 
d="M302 828q-35 0 -67 -30l-45 43q20 20 53.5 34t68.5 14q49 0 76 -22t27 -57q0 -64 -90 -81l-7 -24l-51 -2q-18 18 -18 30q0 15 41 37t41 39q0 19 -29 19zM302 551q-65 0 -111 40t-52 110h99q2 -27 19 -45t45 -18q27 0 45 17t19 46h100q-5 -66 -49.5 -108t-114.5 -42z
M415 488h130v-488h-124v59h-3q-51 -67 -146 -67q-102 0 -167.5 69.5t-65.5 181.5q0 110 65.5 181.5t164.5 71.5q91 0 143 -63h3v55zM296 109q52 0 88 37t36 96t-35 98t-88 39q-54 0 -90 -37.5t-36 -99.5q0 -59 35 -96t90 -37z" />
    <glyph glyph-name="uni1EB4" unicode="&#x1eb4;" horiz-adv-x="698" 
d="M290 908q-23 0 -43 -36l-62 22q14 35 39.5 56t57.5 21q28 0 78 -24q28 -13 45 -13q30 0 50 36l61 -16q-14 -39 -40.5 -61t-61.5 -22q-33 0 -73 21q-36 16 -51 16zM350 738q-65 0 -109.5 31t-60.5 88h84q20 -52 86 -52q67 0 87 52h84q-16 -58 -60.5 -88.5t-110.5 -30.5z
M535 0l-48 142h-273l-48 -142h-147l263 710h135l265 -710h-147zM255 262h191l-95 279h-2z" />
    <glyph glyph-name="uni1EB5" unicode="&#x1eb5;" horiz-adv-x="607" 
d="M249 771q-26 0 -47 -50l-78 34q16 52 44.5 84t64.5 32q12 0 22 -1.5t19.5 -5t13.5 -5.5t14.5 -8t11.5 -7q36 -22 55 -22q35 0 56 49l77 -26q-15 -57 -46 -91t-71 -34t-88 30q-4 3 -12.5 8t-12 7t-10 4t-13.5 2zM302 638q27 0 45 17t19 46h100q-5 -66 -49.5 -108
t-114.5 -42q-65 0 -111 40t-52 110h99q2 -27 19 -45t45 -18zM415 488h130v-488h-124v59h-3q-51 -67 -146 -67q-102 0 -167.5 69.5t-65.5 181.5q0 110 65.5 181.5t164.5 71.5q91 0 143 -63h3v55zM296 109q52 0 88 37t36 96t-35 98t-88 39q-54 0 -90 -37.5t-36 -99.5
q0 -59 35 -96t90 -37z" />
    <glyph glyph-name="uni1EB6" unicode="&#x1eb6;" horiz-adv-x="698" 
d="M350 779q-65 0 -111 40t-52 110h99q2 -27 19 -45t45 -18q27 0 45 17t19 46h100q-5 -66 -49.5 -108t-114.5 -42zM682 0h-147l-48 142h-273l-48 -142h-147l263 710h135zM255 262h191l-95 279h-2zM350 -90q33 0 57 -23.5t24 -56.5t-24 -56.5t-57 -23.5q-34 0 -58 23.5
t-24 56.5t24 56.5t58 23.5z" />
    <glyph glyph-name="uni1EB7" unicode="&#x1eb7;" horiz-adv-x="607" 
d="M302 551q-65 0 -111 40t-52 110h99q2 -27 19 -45t45 -18q27 0 45 17t19 46h100q-5 -66 -49.5 -108t-114.5 -42zM415 488h130v-488h-124v59h-3q-51 -67 -146 -67q-102 0 -167.5 69.5t-65.5 181.5q0 110 65.5 181.5t164.5 71.5q91 0 143 -63h3v55zM296 109q52 0 88 37
t36 96t-35 98t-88 39q-54 0 -90 -37.5t-36 -99.5q0 -59 35 -96t90 -37zM294 -90q33 0 57 -23.5t24 -56.5t-24 -56.5t-57 -23.5q-34 0 -58 23.5t-24 56.5t24 56.5t58 23.5z" />
    <glyph glyph-name="uni1EB8" unicode="&#x1eb8;" horiz-adv-x="600" 
d="M78 0v710h454v-126h-316v-170h253v-124h-253v-165h337v-125h-475zM317 -90q33 0 57 -23.5t24 -56.5t-24 -56.5t-57 -23.5q-34 0 -58 23.5t-24 56.5t24 56.5t58 23.5z" />
    <glyph glyph-name="uni1EB9" unicode="&#x1eb9;" horiz-adv-x="560" 
d="M521 249q0 -39 -3 -47h-343q12 -44 45 -69t80 -25q71 -1 117 55l85 -79q-73 -92 -211 -92q-109 0 -180 70t-71 183q0 110 68.5 180.5t173.5 70.5q106 0 172.5 -69.5t66.5 -177.5zM286 381q-41 0 -70 -22t-40 -63h215q-22 85 -105 85zM292 -90q33 0 57 -23.5t24 -56.5
t-24 -56.5t-57 -23.5q-34 0 -58 23.5t-24 56.5t24 56.5t58 23.5z" />
    <glyph glyph-name="uni1EBA" unicode="&#x1eba;" horiz-adv-x="600" 
d="M276 762q-18 18 -18 30q0 15 41 37t41 39q0 19 -29 19q-35 0 -67 -30l-45 43q20 20 53.5 34t68.5 14q49 0 76 -22t27 -57q0 -64 -90 -81l-7 -24zM78 0v710h454v-126h-316v-170h253v-124h-253v-165h337v-125h-475z" />
    <glyph glyph-name="uni1EBB" unicode="&#x1ebb;" horiz-adv-x="560" 
d="M289 660q-35 0 -67 -30l-45 43q20 20 53.5 34t68.5 14q49 0 76 -22t27 -57q0 -64 -90 -81l-7 -24l-51 -2q-18 18 -18 30q0 15 41 37t41 39q0 19 -29 19zM521 249q0 -39 -3 -47h-343q12 -44 45 -69t80 -25q71 -1 117 55l85 -79q-73 -92 -211 -92q-109 0 -180 70t-71 183
q0 110 68.5 180.5t173.5 70.5q106 0 172.5 -69.5t66.5 -177.5zM286 381q-41 0 -70 -22t-40 -63h215q-22 85 -105 85z" />
    <glyph glyph-name="uni1EBC" unicode="&#x1ebc;" horiz-adv-x="600" 
d="M394 779q-41 0 -87 30q-36 21 -55 21q-35 0 -56 -50l-78 34q16 53 46.5 84.5t73.5 31.5q36 0 86 -27q36 -22 54 -22q36 0 57 49l76 -26q-16 -57 -46 -91t-71 -34zM78 0v710h454v-126h-316v-170h253v-124h-253v-165h337v-125h-475z" />
    <glyph glyph-name="uni1EBD" unicode="&#x1ebd;" horiz-adv-x="560" 
d="M230 603q-35 0 -56 -50l-78 34q16 53 46.5 84.5t73.5 31.5q36 0 86 -27q36 -22 54 -22q36 0 57 49l76 -26q-16 -57 -46 -91t-71 -34t-87 30q-36 21 -55 21zM521 249q0 -39 -3 -47h-343q12 -44 45 -69t80 -25q71 -1 117 55l85 -79q-73 -92 -211 -92q-109 0 -180 70
t-71 183q0 110 68.5 180.5t173.5 70.5q106 0 172.5 -69.5t66.5 -177.5zM286 381q-41 0 -70 -22t-40 -63h215q-22 85 -105 85z" />
    <glyph glyph-name="uni1EBE" unicode="&#x1ebe;" horiz-adv-x="600" 
d="M571 957l134 1l-149 -147h-98zM309 840l-50 -75h-120l111 150h116l117 -150h-121l-51 75h-2zM216 290v-165h337v-125h-475v710h454v-126h-316v-170h253v-124h-253z" />
    <glyph glyph-name="uni1EBF" unicode="&#x1ebf;" horiz-adv-x="560" 
d="M654 795l-149 -147h-98l113 147h134zM287 629l-50 -75h-120l111 150h116l117 -150h-121l-51 75h-2zM282 496q106 0 172.5 -69.5t66.5 -177.5q0 -39 -3 -47h-343q12 -44 45 -69t80 -25q71 -1 117 55l85 -79q-73 -92 -211 -92q-109 0 -180 70t-71 183q0 110 68.5 180.5
t173.5 70.5zM286 381q-41 0 -70 -22t-40 -63h215q-22 85 -105 85z" />
    <glyph glyph-name="uni1EC0" unicode="&#x1ec0;" horiz-adv-x="600" 
d="M607 811h-96l-121 147h132zM310 840l-50 -75h-120l111 150h116l117 -150h-121l-51 75h-2zM216 290v-165h337v-125h-475v710h454v-126h-316v-170h253v-124h-253z" />
    <glyph glyph-name="uni1EC1" unicode="&#x1ec1;" horiz-adv-x="560" 
d="M543 649h-96l-121 147l132 -1zM287 629l-50 -75h-120l111 150h116l117 -150h-121l-51 75h-2zM282 496q106 0 172.5 -69.5t66.5 -177.5q0 -39 -3 -47h-343q12 -44 45 -69t80 -25q71 -1 117 55l85 -79q-73 -92 -211 -92q-109 0 -180 70t-71 183q0 110 68.5 180.5
t173.5 70.5zM286 381q-41 0 -70 -22t-40 -63h215q-22 85 -105 85z" />
    <glyph glyph-name="uni1EC2" unicode="&#x1ec2;" horiz-adv-x="600" 
d="M540 966q46 0 71.5 -22t25.5 -57q0 -30 -22.5 -51t-62.5 -29l-7 -25l-50 -1q-19 16 -19 30q0 15 39 37t39 39q0 18 -24 18q-38 0 -68 -30l-45 44q47 47 123 47zM309 840l-50 -75h-120l111 150h116l117 -150h-121l-51 75h-2zM216 290v-165h337v-125h-475v710h454v-126
h-316v-170h253v-124h-253z" />
    <glyph glyph-name="uni1EC3" unicode="&#x1ec3;" horiz-adv-x="560" 
d="M478 807q45 0 71.5 -22t26.5 -57q0 -30 -23 -51t-62 -30l-8 -24l-50 -2q-19 19 -19 31q0 10 12.5 19.5t27 16.5t27 17.5t12.5 21.5q0 19 -25 19q-37 0 -67 -30l-46 43q20 20 54 34t69 14zM287 629l-50 -75h-120l111 150h116l117 -150h-121l-51 75h-2zM282 496
q106 0 172.5 -69.5t66.5 -177.5q0 -39 -3 -47h-343q12 -44 45 -69t80 -25q71 -1 117 55l85 -79q-73 -92 -211 -92q-109 0 -180 70t-71 183q0 110 68.5 180.5t173.5 70.5zM286 381q-41 0 -70 -22t-40 -63h215q-22 85 -105 85z" />
    <glyph glyph-name="uni1EC4" unicode="&#x1ec4;" horiz-adv-x="600" 
d="M250 907q-23 0 -43 -36l-62 22q14 35 39.5 56t57.5 21q28 0 78 -24q28 -13 45 -13q30 0 50 36l61 -16q-14 -39 -40.5 -61t-61.5 -22q-33 0 -73 21q-36 16 -51 16zM307 797l-59 -61h-115l120 117h108l126 -117h-116l-60 61h-4zM216 125h337v-125h-475v710h454v-126h-316
v-170h253v-124h-253v-165z" />
    <glyph glyph-name="uni1EC5" unicode="&#x1ec5;" horiz-adv-x="560" 
d="M236 771q-26 0 -47 -50l-78 34q16 52 44.5 84t64.5 32q12 0 22 -1.5t19.5 -5t13.5 -5.5t14.5 -8t11.5 -7q36 -22 55 -22q35 0 56 49l77 -26q-15 -57 -46 -91t-71 -34t-88 30q-4 3 -12.5 8t-12 7t-10 4t-13.5 2zM228 704h116l117 -150h-121l-51 75h-2l-50 -75h-120z
M521 249q0 -39 -3 -47h-343q12 -44 45 -69t80 -25q71 -1 117 55l85 -79q-73 -92 -211 -92q-109 0 -180 70t-71 183q0 110 68.5 180.5t173.5 70.5q106 0 172.5 -69.5t66.5 -177.5zM286 381q-41 0 -70 -22t-40 -63h215q-22 85 -105 85z" />
    <glyph glyph-name="uni1EC6" unicode="&#x1ec6;" horiz-adv-x="600" 
d="M309 856l-50 -75h-120l111 150h116l117 -150h-121l-51 75h-2zM216 125h337v-125h-475v710h454v-126h-316v-170h253v-124h-253v-165zM317 -90q33 0 57 -23.5t24 -56.5t-24 -56.5t-57 -23.5q-34 0 -58 23.5t-24 56.5t24 56.5t58 23.5z" />
    <glyph glyph-name="uni1EC7" unicode="&#x1ec7;" horiz-adv-x="560" 
d="M287 629l-50 -75h-120l111 150h116l117 -150h-121l-51 75h-2zM521 249q0 -39 -3 -47h-343q12 -44 45 -69t80 -25q71 -1 117 55l85 -79q-73 -92 -211 -92q-109 0 -180 70t-71 183q0 110 68.5 180.5t173.5 70.5q106 0 172.5 -69.5t66.5 -177.5zM286 381q-41 0 -70 -22
t-40 -63h215q-22 85 -105 85zM292 -90q33 0 57 -23.5t24 -56.5t-24 -56.5t-57 -23.5q-34 0 -58 23.5t-24 56.5t24 56.5t58 23.5z" />
    <glyph glyph-name="uni1EC8" unicode="&#x1ec8;" horiz-adv-x="307" 
d="M117 762q-18 18 -18 30q0 15 41 37t41 39q0 19 -29 19q-35 0 -67 -30l-45 43q20 20 53.5 34t68.5 14q49 0 76 -22t27 -57q0 -64 -90 -81l-7 -24zM83 0v710h141v-710h-141z" />
    <glyph glyph-name="uni1EC9" unicode="&#x1ec9;" horiz-adv-x="275" 
d="M103 535q-18 18 -18 30q0 15 41 37t41 39q0 19 -29 19q-35 0 -67 -30l-45 43q20 20 53.5 34t68.5 14q49 0 76 -22t27 -57q0 -64 -90 -81l-7 -24zM72 0v488h131v-488h-131z" />
    <glyph glyph-name="uni1ECA" unicode="&#x1eca;" horiz-adv-x="307" 
d="M83 0v710h141v-710h-141zM154 -90q33 0 57 -23.5t24 -56.5t-24 -56.5t-57 -23.5q-34 0 -58 23.5t-24 56.5t24 56.5t58 23.5z" />
    <glyph glyph-name="uni1ECB" unicode="&#x1ecb;" horiz-adv-x="275" 
d="M138 557q-33 0 -57 23.5t-24 56.5t24 56.5t57 23.5q34 0 58 -23.5t24 -56.5t-24 -56.5t-58 -23.5zM72 0v488h131v-488h-131zM138 -90q33 0 57 -23.5t24 -56.5t-24 -56.5t-57 -23.5q-34 0 -58 23.5t-24 56.5t24 56.5t58 23.5z" />
    <glyph glyph-name="uni1ECC" unicode="&#x1ecc;" horiz-adv-x="821" 
d="M411 -8q-160 0 -261 102.5t-101 260.5q0 159 101 261.5t261 102.5q158 0 259.5 -101t101.5 -263t-101.5 -262.5t-259.5 -100.5zM412 123q92 0 153 66t61 166t-61 166t-153 66q-95 0 -156 -67t-61 -165t61 -165t156 -67zM412 -90q33 0 57 -23.5t24 -56.5t-24 -56.5
t-57 -23.5q-34 0 -58 23.5t-24 56.5t24 56.5t58 23.5z" />
    <glyph glyph-name="uni1ECD" unicode="&#x1ecd;" horiz-adv-x="598" 
d="M299 -8q-115 0 -187 71t-72 181t72 181t187 71q114 0 187 -70t73 -182t-73 -182t-187 -70zM299 109q54 0 90.5 38t36.5 97q0 60 -36 97.5t-91 37.5q-56 0 -91.5 -38.5t-35.5 -96.5q0 -57 36 -96t91 -39zM300 -90q33 0 57 -23.5t24 -56.5t-24 -56.5t-57 -23.5
q-34 0 -58 23.5t-24 56.5t24 56.5t58 23.5z" />
    <glyph glyph-name="uni1ECE" unicode="&#x1ece;" horiz-adv-x="821" 
d="M377 763q-18 18 -18 30q0 15 41 37t41 39q0 19 -29 19q-35 0 -67 -30l-45 43q20 20 53.5 34t68.5 14q49 0 76 -22t27 -57q0 -64 -90 -81l-7 -24zM411 -8q-160 0 -261 102.5t-101 260.5q0 159 101 261.5t261 102.5q158 0 259.5 -101t101.5 -263t-101.5 -262.5
t-259.5 -100.5zM412 123q92 0 153 66t61 166t-61 166t-153 66q-95 0 -156 -67t-61 -165t61 -165t156 -67z" />
    <glyph glyph-name="uni1ECF" unicode="&#x1ecf;" horiz-adv-x="598" 
d="M265 535q-18 18 -18 30q0 15 41 37t41 39q0 19 -29 19q-35 0 -67 -30l-45 43q20 20 53.5 34t68.5 14q49 0 76 -22t27 -57q0 -64 -90 -81l-7 -24zM299 -8q-115 0 -187 71t-72 181t72 181t187 71q114 0 187 -70t73 -182t-73 -182t-187 -70zM299 109q54 0 90.5 38t36.5 97
q0 60 -36 97.5t-91 37.5q-56 0 -91.5 -38.5t-35.5 -96.5q0 -57 36 -96t91 -39z" />
    <glyph glyph-name="uni1ED0" unicode="&#x1ed0;" horiz-adv-x="821" 
d="M806 959l-149 -147h-98l113 146zM410 841l-50 -75h-120l111 150h116l117 -150h-121l-51 75h-2zM411 719q158 0 259.5 -101t101.5 -263t-101.5 -262.5t-259.5 -100.5q-160 0 -261 102.5t-101 260.5q0 159 101 261.5t261 102.5zM412 123q92 0 153 66t61 166t-61 166
t-153 66q-95 0 -156 -67t-61 -165t61 -165t156 -67z" />
    <glyph glyph-name="uni1ED1" unicode="&#x1ed1;" horiz-adv-x="598" 
d="M665 795l-149 -147h-98l113 147h134zM298 629l-50 -75h-120l111 150h116l117 -150h-121l-51 75h-2zM299 496q114 0 187 -70t73 -182t-73 -182t-187 -70q-115 0 -187 71t-72 181t72 181t187 71zM299 109q54 0 90.5 38t36.5 97q0 60 -36 97.5t-91 37.5q-56 0 -91.5 -38.5
t-35.5 -96.5q0 -57 36 -96t91 -39z" />
    <glyph glyph-name="uni1ED2" unicode="&#x1ed2;" horiz-adv-x="821" 
d="M708 812h-96l-121 147h132zM411 841l-50 -75h-120l111 150h116l117 -150h-121l-51 75h-2zM411 719q158 0 259.5 -101t101.5 -263t-101.5 -262.5t-259.5 -100.5q-160 0 -261 102.5t-101 260.5q0 159 101 261.5t261 102.5zM412 123q92 0 153 66t61 166t-61 166t-153 66
q-95 0 -156 -67t-61 -165t61 -165t156 -67z" />
    <glyph glyph-name="uni1ED3" unicode="&#x1ed3;" horiz-adv-x="598" 
d="M554 649h-96l-121 147l132 -1zM298 629l-50 -75h-120l111 150h116l117 -150h-121l-51 75h-2zM299 496q114 0 187 -70t73 -182t-73 -182t-187 -70q-115 0 -187 71t-72 181t72 181t187 71zM299 109q54 0 90.5 38t36.5 97q0 60 -36 97.5t-91 37.5q-56 0 -91.5 -38.5
t-35.5 -96.5q0 -57 36 -96t91 -39z" />
    <glyph glyph-name="uni1ED4" unicode="&#x1ed4;" horiz-adv-x="821" 
d="M631 906q-38 0 -68 -30l-45 44q47 47 123 47q46 0 71.5 -22t25.5 -57q0 -30 -22.5 -51t-62.5 -29l-7 -25l-50 -1q-19 16 -19 30q0 15 39 37t39 39q0 18 -24 18zM410 841l-50 -75h-120l111 150h116l117 -150h-121l-51 75h-2zM411 719q158 0 259.5 -101t101.5 -263
t-101.5 -262.5t-259.5 -100.5q-160 0 -261 102.5t-101 260.5q0 159 101 261.5t261 102.5zM412 123q92 0 153 66t61 166t-61 166t-153 66q-95 0 -156 -67t-61 -165t61 -165t156 -67z" />
    <glyph glyph-name="uni1ED5" unicode="&#x1ed5;" horiz-adv-x="598" 
d="M489 807q45 0 71.5 -22t26.5 -57q0 -30 -23 -51t-62 -30l-8 -24l-50 -2q-19 19 -19 31q0 10 12.5 19.5t27 16.5t27 17.5t12.5 21.5q0 19 -25 19q-37 0 -67 -30l-46 43q20 20 54 34t69 14zM298 629l-50 -75h-120l111 150h116l117 -150h-121l-51 75h-2zM299 496
q114 0 187 -70t73 -182t-73 -182t-187 -70q-115 0 -187 71t-72 181t72 181t187 71zM299 109q54 0 90.5 38t36.5 97q0 60 -36 97.5t-91 37.5q-56 0 -91.5 -38.5t-35.5 -96.5q0 -57 36 -96t91 -39z" />
    <glyph glyph-name="uni1ED6" unicode="&#x1ed6;" horiz-adv-x="821" 
d="M351 908q-23 0 -43 -36l-62 22q14 35 39.5 56t57.5 21q28 0 78 -24q28 -13 45 -13q30 0 50 36l61 -16q-14 -39 -40.5 -61t-61.5 -22q-33 0 -73 21q-36 16 -51 16zM408 798l-59 -61h-115l120 117h108l126 -117h-116l-60 61h-4zM411 719q158 0 259.5 -101t101.5 -263
t-101.5 -262.5t-259.5 -100.5q-160 0 -261 102.5t-101 260.5q0 159 101 261.5t261 102.5zM412 123q92 0 153 66t61 166t-61 166t-153 66q-95 0 -156 -67t-61 -165t61 -165t156 -67z" />
    <glyph glyph-name="uni1ED7" unicode="&#x1ed7;" horiz-adv-x="598" 
d="M247 771q-26 0 -47 -50l-78 34q16 52 44.5 84t64.5 32q12 0 22 -1.5t19.5 -5t13.5 -5.5t14.5 -8t11.5 -7q36 -22 55 -22q35 0 56 49l77 -26q-15 -57 -46 -91t-71 -34t-88 30q-4 3 -12.5 8t-12 7t-10 4t-13.5 2zM239 704h116l117 -150h-121l-51 75h-2l-50 -75h-120z
M299 496q114 0 187 -70t73 -182t-73 -182t-187 -70q-115 0 -187 71t-72 181t72 181t187 71zM299 109q54 0 90.5 38t36.5 97q0 60 -36 97.5t-91 37.5q-56 0 -91.5 -38.5t-35.5 -96.5q0 -57 36 -96t91 -39z" />
    <glyph glyph-name="uni1ED8" unicode="&#x1ed8;" horiz-adv-x="821" 
d="M410 857l-50 -75h-120l111 150h116l117 -150h-121l-51 75h-2zM411 719q158 0 259.5 -101t101.5 -263t-101.5 -262.5t-259.5 -100.5q-160 0 -261 102.5t-101 260.5q0 159 101 261.5t261 102.5zM412 123q92 0 153 66t61 166t-61 166t-153 66q-95 0 -156 -67t-61 -165
t61 -165t156 -67zM412 -90q33 0 57 -23.5t24 -56.5t-24 -56.5t-57 -23.5q-34 0 -58 23.5t-24 56.5t24 56.5t58 23.5z" />
    <glyph glyph-name="uni1ED9" unicode="&#x1ed9;" horiz-adv-x="598" 
d="M298 629l-50 -75h-120l111 150h116l117 -150h-121l-51 75h-2zM299 496q114 0 187 -70t73 -182t-73 -182t-187 -70q-115 0 -187 71t-72 181t72 181t187 71zM299 109q54 0 90.5 38t36.5 97q0 60 -36 97.5t-91 37.5q-56 0 -91.5 -38.5t-35.5 -96.5q0 -57 36 -96t91 -39z
M300 -90q33 0 57 -23.5t24 -56.5t-24 -56.5t-57 -23.5q-34 0 -58 23.5t-24 56.5t24 56.5t58 23.5z" />
    <glyph glyph-name="uni1EDA" unicode="&#x1eda;" horiz-adv-x="862" 
d="M603 932l-124 -148h-126l113 147zM727 774h122v-73q0 -140 -113 -177q36 -78 36 -169q0 -162 -101.5 -262.5t-259.5 -100.5q-160 0 -261 102.5t-101 260.5q0 159 101 261.5t261 102.5q177 0 280 -124q24 13 30 37.5t6 71.5v70zM412 123q92 0 153 66t61 166t-61 166
t-153 66q-95 0 -156 -67t-61 -165t61 -165t156 -67z" />
    <glyph glyph-name="uni1EDB" unicode="&#x1edb;" horiz-adv-x="683" 
d="M485 704l-124 -148h-126l113 147zM551 565h122v-73q0 -146 -121 -179l-1 -1q8 -35 8 -68q0 -112 -73 -182t-187 -70q-115 0 -187 71t-72 181t72 181t187 71q146 0 219 -108q22 13 27.5 37.5t5.5 69.5v70zM299 109q54 0 90.5 38t36.5 97q0 60 -36 97.5t-91 37.5
q-56 0 -91.5 -38.5t-35.5 -96.5q0 -57 36 -96t91 -39z" />
    <glyph glyph-name="uni1EDC" unicode="&#x1edc;" horiz-adv-x="862" 
d="M482 784h-127l-123 148l137 -1zM727 774h122v-73q0 -140 -113 -177q36 -78 36 -169q0 -162 -101.5 -262.5t-259.5 -100.5q-160 0 -261 102.5t-101 260.5q0 159 101 261.5t261 102.5q177 0 280 -124q24 13 30 37.5t6 71.5v70zM412 123q92 0 153 66t61 166t-61 166t-153 66
q-95 0 -156 -67t-61 -165t61 -165t156 -67z" />
    <glyph glyph-name="uni1EDD" unicode="&#x1edd;" horiz-adv-x="683" 
d="M378 556h-127l-123 148l137 -1zM551 565h122v-73q0 -146 -121 -179l-1 -1q8 -35 8 -68q0 -112 -73 -182t-187 -70q-115 0 -187 71t-72 181t72 181t187 71q146 0 219 -108q22 13 27.5 37.5t5.5 69.5v70zM299 109q54 0 90.5 38t36.5 97q0 60 -36 97.5t-91 37.5
q-56 0 -91.5 -38.5t-35.5 -96.5q0 -57 36 -96t91 -39z" />
    <glyph glyph-name="uni1EDE" unicode="&#x1ede;" horiz-adv-x="862" 
d="M412 888q-35 0 -67 -30l-45 43q20 20 53.5 34t68.5 14q49 0 76 -22t27 -57q0 -64 -90 -81l-7 -24l-51 -2q-18 18 -18 30q0 15 41 37t41 39q0 19 -29 19zM727 774h122v-73q0 -140 -113 -177q36 -78 36 -169q0 -162 -101.5 -262.5t-259.5 -100.5q-160 0 -261 102.5
t-101 260.5q0 159 101 261.5t261 102.5q177 0 280 -124q24 13 30 37.5t6 71.5v70zM412 123q92 0 153 66t61 166t-61 166t-153 66q-95 0 -156 -67t-61 -165t61 -165t156 -67z" />
    <glyph glyph-name="uni1EDF" unicode="&#x1edf;" horiz-adv-x="683" 
d="M300 660q-35 0 -67 -30l-45 43q20 20 53.5 34t68.5 14q49 0 76 -22t27 -57q0 -64 -90 -81l-7 -24l-51 -2q-18 18 -18 30q0 15 41 37t41 39q0 19 -29 19zM551 565h122v-73q0 -146 -121 -179l-1 -1q8 -35 8 -68q0 -112 -73 -182t-187 -70q-115 0 -187 71t-72 181t72 181
t187 71q146 0 219 -108q22 13 27.5 37.5t5.5 69.5v70zM299 109q54 0 90.5 38t36.5 97q0 60 -36 97.5t-91 37.5q-56 0 -91.5 -38.5t-35.5 -96.5q0 -57 36 -96t91 -39z" />
    <glyph glyph-name="uni1EE0" unicode="&#x1ee0;" horiz-adv-x="862" 
d="M353 831q-35 0 -56 -50l-78 34q16 53 46.5 84.5t73.5 31.5q37 0 86 -27q36 -22 54 -22q36 0 57 49l76 -26q-16 -57 -46 -91t-71 -34t-87 30q-36 21 -55 21zM727 774h122v-73q0 -140 -113 -177q36 -78 36 -169q0 -162 -101.5 -262.5t-259.5 -100.5q-160 0 -261 102.5
t-101 260.5q0 159 101 261.5t261 102.5q177 0 280 -124q24 13 30 37.5t6 71.5v70zM412 123q92 0 153 66t61 166t-61 166t-153 66q-95 0 -156 -67t-61 -165t61 -165t156 -67z" />
    <glyph glyph-name="uni1EE1" unicode="&#x1ee1;" horiz-adv-x="683" 
d="M241 603q-35 0 -56 -50l-78 34q16 53 46.5 84.5t73.5 31.5q37 0 86 -27q36 -22 54 -22q36 0 57 49l76 -26q-16 -57 -46 -91t-71 -34t-87 30q-36 21 -55 21zM551 565h122v-73q0 -146 -121 -179l-1 -1q8 -35 8 -68q0 -112 -73 -182t-187 -70q-115 0 -187 71t-72 181t72 181
t187 71q146 0 219 -108q22 13 27.5 37.5t5.5 69.5v70zM299 109q54 0 90.5 38t36.5 97q0 60 -36 97.5t-91 37.5q-56 0 -91.5 -38.5t-35.5 -96.5q0 -57 36 -96t91 -39z" />
    <glyph glyph-name="uni1EE2" unicode="&#x1ee2;" horiz-adv-x="862" 
d="M727 774h122v-73q0 -140 -113 -177q36 -78 36 -169q0 -162 -101.5 -262.5t-259.5 -100.5q-160 0 -261 102.5t-101 260.5q0 159 101 261.5t261 102.5q177 0 280 -124q24 13 30 37.5t6 71.5v70zM412 123q92 0 153 66t61 166t-61 166t-153 66q-95 0 -156 -67t-61 -165
t61 -165t156 -67zM412 -90q33 0 57 -23.5t24 -56.5t-24 -56.5t-57 -23.5q-34 0 -58 23.5t-24 56.5t24 56.5t58 23.5z" />
    <glyph glyph-name="uni1EE3" unicode="&#x1ee3;" horiz-adv-x="683" 
d="M551 565h122v-73q0 -146 -121 -179l-1 -1q8 -35 8 -68q0 -112 -73 -182t-187 -70q-115 0 -187 71t-72 181t72 181t187 71q146 0 219 -108q22 13 27.5 37.5t5.5 69.5v70zM299 109q54 0 90.5 38t36.5 97q0 60 -36 97.5t-91 37.5q-56 0 -91.5 -38.5t-35.5 -96.5
q0 -57 36 -96t91 -39zM300 -90q33 0 57 -23.5t24 -56.5t-24 -56.5t-57 -23.5q-34 0 -58 23.5t-24 56.5t24 56.5t58 23.5z" />
    <glyph glyph-name="uni1EE4" unicode="&#x1ee4;" horiz-adv-x="713" 
d="M355 -8q-130 0 -208 79.5t-78 222.5v416h141v-407q0 -79 38.5 -129t106.5 -50q66 0 107 48t41 131v407h141v-416q0 -140 -76.5 -221t-212.5 -81zM356 -90q33 0 57 -23.5t24 -56.5t-24 -56.5t-57 -23.5q-34 0 -58 23.5t-24 56.5t24 56.5t58 23.5z" />
    <glyph glyph-name="uni1EE5" unicode="&#x1ee5;" horiz-adv-x="577" 
d="M384 488h131v-488h-131v60h-2q-56 -68 -145 -68q-179 0 -179 202v294h130v-259q0 -66 20.5 -93t67.5 -27q45 0 76.5 37.5t31.5 104.5v237zM293 -90q33 0 57 -23.5t24 -56.5t-24 -56.5t-57 -23.5q-34 0 -58 23.5t-24 56.5t24 56.5t58 23.5z" />
    <glyph glyph-name="uni1EE6" unicode="&#x1ee6;" horiz-adv-x="713" 
d="M321 763q-18 18 -18 30q0 15 41 37t41 39q0 19 -29 19q-35 0 -67 -30l-45 43q20 20 53.5 34t68.5 14q49 0 76 -22t27 -57q0 -64 -90 -81l-7 -24zM355 -8q-130 0 -208 79.5t-78 222.5v416h141v-407q0 -79 38.5 -129t106.5 -50q66 0 107 48t41 131v407h141v-416
q0 -140 -76.5 -221t-212.5 -81z" />
    <glyph glyph-name="uni1EE7" unicode="&#x1ee7;" horiz-adv-x="577" 
d="M288 660q-35 0 -67 -30l-45 43q20 20 53.5 34t68.5 14q49 0 76 -22t27 -57q0 -64 -90 -81l-7 -24l-51 -2q-18 18 -18 30q0 15 41 37t41 39q0 19 -29 19zM384 488h131v-488h-131v60h-2q-56 -68 -145 -68q-179 0 -179 202v294h130v-259q0 -66 20.5 -93t67.5 -27
q45 0 76.5 37.5t31.5 104.5v237z" />
    <glyph glyph-name="uni1EE8" unicode="&#x1ee8;" horiz-adv-x="816" 
d="M527 932l-124 -148h-126l113 147zM707 774h122v-73q0 -89 -48.5 -138t-136.5 -49v-220q0 -140 -76.5 -221t-212.5 -81q-130 0 -208 79.5t-78 222.5v416h141v-407q0 -79 38.5 -129t106.5 -50q66 0 107 48t41 131v407h141v-124q18 4 30 11.5t18.5 16.5t10 25.5t4 29
t0.5 35.5v70z" />
    <glyph glyph-name="uni1EE9" unicode="&#x1ee9;" horiz-adv-x="702" 
d="M471 704l-124 -148h-126l113 147zM570 565h122v-73q0 -87 -46.5 -136t-130.5 -51v-305h-131v60h-2q-56 -68 -145 -68q-179 0 -179 202v294h130v-259q0 -66 20.5 -93t67.5 -27q45 0 76.5 37.5t31.5 104.5v237h131v-109q19 5 30.5 15t16.5 27t6.5 32t1.5 42v70z" />
    <glyph glyph-name="uni1EEA" unicode="&#x1eea;" horiz-adv-x="816" 
d="M438 784h-127l-123 148l137 -1zM707 774h122v-73q0 -89 -48.5 -138t-136.5 -49v-220q0 -140 -76.5 -221t-212.5 -81q-130 0 -208 79.5t-78 222.5v416h141v-407q0 -79 38.5 -129t106.5 -50q66 0 107 48t41 131v407h141v-124q18 4 30 11.5t18.5 16.5t10 25.5t4 29t0.5 35.5
v70z" />
    <glyph glyph-name="uni1EEB" unicode="&#x1eeb;" horiz-adv-x="702" 
d="M373 556h-127l-123 148l137 -1zM570 565h122v-73q0 -87 -46.5 -136t-130.5 -51v-305h-131v60h-2q-56 -68 -145 -68q-179 0 -179 202v294h130v-259q0 -66 20.5 -93t67.5 -27q45 0 76.5 37.5t31.5 104.5v237h131v-109q19 5 30.5 15t16.5 27t6.5 32t1.5 42v70z" />
    <glyph glyph-name="uni1EEC" unicode="&#x1eec;" horiz-adv-x="816" 
d="M356 888q-35 0 -67 -30l-45 43q20 20 53.5 34t68.5 14q49 0 76 -22t27 -57q0 -64 -90 -81l-7 -24l-51 -2q-18 18 -18 30q0 15 41 37t41 39q0 19 -29 19zM707 774h122v-73q0 -89 -48.5 -138t-136.5 -49v-220q0 -140 -76.5 -221t-212.5 -81q-130 0 -208 79.5t-78 222.5v416
h141v-407q0 -79 38.5 -129t106.5 -50q66 0 107 48t41 131v407h141v-124q18 4 30 11.5t18.5 16.5t10 25.5t4 29t0.5 35.5v70z" />
    <glyph glyph-name="uni1EED" unicode="&#x1eed;" horiz-adv-x="702" 
d="M288 660q-35 0 -67 -30l-45 43q20 20 53.5 34t68.5 14q49 0 76 -22t27 -57q0 -64 -90 -81l-7 -24l-51 -2q-18 18 -18 30q0 15 41 37t41 39q0 19 -29 19zM570 565h122v-73q0 -87 -46.5 -136t-130.5 -51v-305h-131v60h-2q-56 -68 -145 -68q-179 0 -179 202v294h130v-259
q0 -66 20.5 -93t67.5 -27q45 0 76.5 37.5t31.5 104.5v237h131v-109q19 5 30.5 15t16.5 27t6.5 32t1.5 42v70z" />
    <glyph glyph-name="uni1EEE" unicode="&#x1eee;" horiz-adv-x="816" 
d="M297 831q-35 0 -56 -50l-78 34q16 53 46.5 84.5t73.5 31.5q37 0 86 -27q36 -22 54 -22q36 0 57 49l76 -26q-16 -57 -46 -91t-71 -34t-87 30q-36 21 -55 21zM707 774h122v-73q0 -89 -48.5 -138t-136.5 -49v-220q0 -140 -76.5 -221t-212.5 -81q-130 0 -208 79.5t-78 222.5
v416h141v-407q0 -79 38.5 -129t106.5 -50q66 0 107 48t41 131v407h141v-124q18 4 30 11.5t18.5 16.5t10 25.5t4 29t0.5 35.5v70z" />
    <glyph glyph-name="uni1EEF" unicode="&#x1eef;" horiz-adv-x="702" 
d="M229 603q-35 0 -56 -50l-78 34q16 53 46.5 84.5t73.5 31.5q36 0 86 -27q36 -22 54 -22q36 0 57 49l76 -26q-16 -57 -46 -91t-71 -34t-87 30q-36 21 -55 21zM570 565h122v-73q0 -87 -46.5 -136t-130.5 -51v-305h-131v60h-2q-56 -68 -145 -68q-179 0 -179 202v294h130v-259
q0 -66 20.5 -93t67.5 -27q45 0 76.5 37.5t31.5 104.5v237h131v-109q19 5 30.5 15t16.5 27t6.5 32t1.5 42v70z" />
    <glyph glyph-name="uni1EF0" unicode="&#x1ef0;" horiz-adv-x="816" 
d="M707 774h122v-73q0 -89 -48.5 -138t-136.5 -49v-220q0 -140 -76.5 -221t-212.5 -81q-130 0 -208 79.5t-78 222.5v416h141v-407q0 -79 38.5 -129t106.5 -50q66 0 107 48t41 131v407h141v-124q18 4 30 11.5t18.5 16.5t10 25.5t4 29t0.5 35.5v70zM356 -90q33 0 57 -23.5
t24 -56.5t-24 -56.5t-57 -23.5q-34 0 -58 23.5t-24 56.5t24 56.5t58 23.5z" />
    <glyph glyph-name="uni1EF1" unicode="&#x1ef1;" horiz-adv-x="702" 
d="M570 565h122v-73q0 -87 -46.5 -136t-130.5 -51v-305h-131v60h-2q-56 -68 -145 -68q-179 0 -179 202v294h130v-259q0 -66 20.5 -93t67.5 -27q45 0 76.5 37.5t31.5 104.5v237h131v-109q19 5 30.5 15t16.5 27t6.5 32t1.5 42v70zM293 -90q33 0 57 -23.5t24 -56.5t-24 -56.5
t-57 -23.5q-34 0 -58 23.5t-24 56.5t24 56.5t58 23.5z" />
    <glyph glyph-name="Ygrave" unicode="&#x1ef2;" horiz-adv-x="632" 
d="M391 784h-127l-123 148l137 -1zM460 710h163l-237 -398v-312h-142v312l-235 398h161l145 -259h2z" />
    <glyph glyph-name="ygrave" unicode="&#x1ef3;" horiz-adv-x="539" 
d="M352 555h-127l-123 148l137 -1zM386 488h136l-263 -686h-134l86 228l-194 458h136l120 -302h1z" />
    <glyph glyph-name="uni1EF4" unicode="&#x1ef4;" horiz-adv-x="632" 
d="M244 0v312l-235 398h161l145 -259h2l143 259h163l-237 -398v-312h-142zM316 -90q33 0 57 -23.5t24 -56.5t-24 -56.5t-57 -23.5q-34 0 -58 23.5t-24 56.5t24 56.5t58 23.5z" />
    <glyph glyph-name="uni1EF5" unicode="&#x1ef5;" horiz-adv-x="539" 
d="M386 488h136l-263 -686h-134l86 228l-194 458h136l120 -302h1zM413 -90q33 0 57 -23.5t24 -56.5t-24 -56.5t-57 -23.5q-34 0 -58 23.5t-24 56.5t24 56.5t58 23.5z" />
    <glyph glyph-name="uni1EF6" unicode="&#x1ef6;" horiz-adv-x="632" 
d="M317 888q-35 0 -67 -30l-45 43q20 20 53.5 34t68.5 14q49 0 76 -22t27 -57q0 -64 -90 -81l-7 -24l-51 -2q-18 18 -18 30q0 15 41 37t41 39q0 19 -29 19zM460 710h163l-237 -398v-312h-142v312l-235 398h161l145 -259h2z" />
    <glyph glyph-name="uni1EF7" unicode="&#x1ef7;" horiz-adv-x="539" 
d="M271 660q-35 0 -67 -30l-45 43q20 20 53.5 34t68.5 14q49 0 76 -22t27 -57q0 -64 -90 -81l-7 -24l-51 -2q-18 18 -18 30q0 15 41 37t41 39q0 19 -29 19zM386 488h136l-263 -686h-134l86 228l-194 458h136l120 -302h1z" />
    <glyph glyph-name="uni1EF8" unicode="&#x1ef8;" horiz-adv-x="632" 
d="M258 831q-35 0 -56 -50l-78 34q16 53 46.5 84.5t73.5 31.5q36 0 86 -27q36 -22 54 -22q36 0 57 49l76 -26q-16 -57 -46 -91t-71 -34t-87 30q-36 21 -55 21zM460 710h163l-237 -398v-312h-142v312l-235 398h161l145 -259h2z" />
    <glyph glyph-name="uni1EF9" unicode="&#x1ef9;" horiz-adv-x="539" 
d="M212 603q-35 0 -56 -50l-78 34q16 53 46.5 84.5t73.5 31.5q36 0 86 -27q36 -22 54 -22q36 0 57 49l76 -26q-16 -57 -46 -91t-71 -34t-87 30q-36 21 -55 21zM386 488h136l-263 -686h-134l86 228l-194 458h136l120 -302h1z" />
    <glyph glyph-name="uni2002" unicode="&#x2002;" horiz-adv-x="467" 
 />
    <glyph glyph-name="uni2003" unicode="&#x2003;" horiz-adv-x="934" 
 />
    <glyph glyph-name="uni2009" unicode="&#x2009;" horiz-adv-x="28" 
 />
    <glyph glyph-name="endash" unicode="&#x2013;" horiz-adv-x="564" 
d="M49 242v112h467v-112h-467z" />
    <glyph glyph-name="emdash" unicode="&#x2014;" horiz-adv-x="1031" 
d="M49 242v112h933v-112h-933z" />
    <glyph glyph-name="uni2015" unicode="&#x2015;" horiz-adv-x="1194" 
d="M49 242v112h1096v-112h-1096z" />
    <glyph glyph-name="quoteleft" unicode="&#x2018;" horiz-adv-x="227" 
d="M194 709l-30 -260h-134l63 260h101z" />
    <glyph glyph-name="quoteright" unicode="&#x2019;" horiz-adv-x="227" 
d="M33 450l30 260h134l-63 -260h-101z" />
    <glyph glyph-name="quotesinglbase" unicode="&#x201a;" horiz-adv-x="244" 
d="M25 -133l31 260h134l-69 -260h-96z" />
    <glyph glyph-name="quotedblleft" unicode="&#x201c;" horiz-adv-x="415" 
d="M194 710l-30 -260h-135l64 260h101zM382 710l-30 -260h-134l63 260h101z" />
    <glyph glyph-name="quotedblright" unicode="&#x201d;" horiz-adv-x="415" 
d="M33 450l30 260h134l-63 -260h-101zM221 450l30 260h135l-64 -260h-101z" />
    <glyph glyph-name="quotedblbase" unicode="&#x201e;" horiz-adv-x="432" 
d="M26 -78l30 260h134l-63 -260h-101zM214 -78l30 260h135l-64 -260h-101z" />
    <glyph glyph-name="dagger" unicode="&#x2020;" horiz-adv-x="393" 
d="M197 227l-38 63l6 127l-1 108h-20l-94 -4v74l94 -4h19l-3 95h75l-4 -95h19l93 5v-75l-93 4h-20v-108l5 -127z" />
    <glyph glyph-name="daggerdbl" unicode="&#x2021;" horiz-adv-x="393" 
d="M160 54l4 94h-20l-94 -4v74l94 -4h20v59l-5 97l5 97v58h-20l-94 -4v73l94 -4h19l-4 96h75l-5 -96h20l94 5v-74l-95 4h-18v-58l4 -97l-5 -97l1 -59h19l94 4v-73l-94 3h-20l5 -94h-74z" />
    <glyph glyph-name="bullet" unicode="&#x2022;" horiz-adv-x="424" 
d="M212 199q-49 0 -83.5 34t-34.5 83t34.5 83.5t83.5 34.5t83.5 -34.5t34.5 -83.5t-34.5 -83t-83.5 -34z" />
    <glyph glyph-name="ellipsis" unicode="&#x2026;" horiz-adv-x="1000" 
d="M166 -8q-34 0 -57.5 23t-23.5 56t23.5 56.5t57.5 23.5q33 0 57 -23.5t24 -56.5t-24 -56t-57 -23zM500 -8q-34 0 -57.5 23t-23.5 56t23.5 56.5t57.5 23.5q33 0 57 -23.5t24 -56.5t-24 -56t-57 -23zM834 -8q-34 0 -57.5 23t-23.5 56t23.5 56.5t57.5 23.5q33 0 57 -23.5
t24 -56.5t-24 -56t-57 -23z" />
    <glyph glyph-name="perthousand" unicode="&#x2030;" horiz-adv-x="1469" 
d="M402 -23l-98 42l315 706l98 -42zM240 320q-85 0 -143 56t-58 144q0 83 56.5 141t144.5 58q86 0 144 -55.5t58 -143.5q0 -84 -56.5 -142t-145.5 -58zM241 413q44 0 71.5 30.5t27.5 75.5q0 47 -28.5 76t-70.5 29q-43 0 -70.5 -30t-27.5 -75q0 -46 28.5 -76t69.5 -30z
M777 -8q-84 0 -142.5 55.5t-58.5 143.5q0 83 56.5 141t144.5 58q86 0 144 -55.5t58 -143.5q0 -84 -56 -141.5t-146 -57.5zM1228 -8q-85 0 -143.5 55.5t-58.5 143.5q0 84 56 141.5t146 57.5q84 0 143 -56t59 -143q0 -84 -56.5 -141.5t-145.5 -57.5zM778 85q44 0 71.5 30.5
t27.5 74.5q0 46 -28.5 75.5t-70.5 29.5q-43 0 -70.5 -30.5t-27.5 -74.5q0 -46 28.5 -75.5t69.5 -29.5zM1228 85q44 0 71.5 30t27.5 75q0 46 -28.5 75.5t-70.5 29.5q-43 0 -70.5 -30.5t-27.5 -74.5q0 -46 28.5 -75.5t69.5 -29.5z" />
    <glyph glyph-name="guilsinglleft" unicode="&#x2039;" horiz-adv-x="308" 
d="M285 39h-127l-118 208l120 211h127l-122 -211z" />
    <glyph glyph-name="guilsinglright" unicode="&#x203a;" horiz-adv-x="305" 
d="M24 39l120 208l-122 211h127l120 -211l-118 -208h-127z" />
    <glyph glyph-name="uni203D" unicode="&#x203d;" horiz-adv-x="468" 
d="M219 745q89 0 150 -50t61 -142q0 -56 -23 -95.5t-65 -80.5q-5 -5 -19.5 -18t-20 -18t-16 -16t-14.5 -18t-8 -16t-5 -18l-3 -42h-108l-23 312h142l-6 -78h2q33 38 33 72q0 40 -22.5 61.5t-63.5 21.5q-63 0 -103 -54l-93 87q34 42 88.5 67t116.5 25zM200 151q33 0 57 -23.5
t24 -56.5t-24 -56t-57 -23q-34 0 -57.5 23t-23.5 56t23.5 56.5t57.5 23.5z" />
    <glyph glyph-name="uni2042" unicode="&#x2042;" horiz-adv-x="834" 
d="M373 383l5 103l-86 -54l-40 68l89 46l-90 48l41 69l86 -55l-5 102h79l-5 -102l87 54l40 -68l-91 -47l91 -47l-40 -69l-85 55l3 -103h-79zM162 48l5 103l-86 -54l-40 68l89 46l-90 48l41 69l86 -55l-5 102h79l-5 -102l87 54l40 -68l-91 -47l91 -47l-40 -69l-85 55l3 -103
h-79zM593 48l5 103l-86 -54l-40 68l89 46l-90 48l41 69l86 -55l-5 102h79l-5 -102l87 54l40 -68l-91 -47l91 -47l-40 -69l-85 55l3 -103h-79z" />
    <glyph glyph-name="fraction" unicode="&#x2044;" horiz-adv-x="234" 
d="M24 -23l-99 42l315 706l98 -42z" />
    <glyph glyph-name="uni2051" unicode="&#x2051;" horiz-adv-x="403" 
d="M162 383l5 103l-86 -54l-40 68l89 46l-90 48l41 69l86 -55l-5 102h79l-5 -102l87 54l40 -68l-91 -47l91 -47l-40 -69l-85 55l3 -103h-79zM162 22l5 103l-86 -55l-40 69l89 46l-90 47l41 70l86 -55l-5 102h79l-5 -102l87 53l40 -68l-91 -46l91 -47l-40 -69l-85 55l3 -103
h-79z" />
    <glyph glyph-name="uni2070" unicode="&#x2070;" horiz-adv-x="411" 
d="M205 427q-83 0 -131 58.5t-48 155.5q0 101 49 158t130 57q84 0 132 -58.5t48 -156.5q0 -101 -49.5 -157.5t-130.5 -56.5zM206 522q35 0 55 31t20 88t-20.5 88.5t-54.5 31.5q-35 0 -56 -31t-21 -89q0 -56 20.5 -87.5t56.5 -31.5z" />
    <glyph glyph-name="uni2074" unicode="&#x2074;" horiz-adv-x="357" 
d="M181 436v63h-168v62l190 287h80v-262h54v-87h-54v-63h-102zM113 580h76v118z" />
    <glyph glyph-name="uni2075" unicode="&#x2075;" horiz-adv-x="346" 
d="M192 702q54 0 91.5 -36.5t37.5 -93.5q0 -64 -44 -103.5t-111 -39.5q-95 0 -153 62l76 63q26 -33 66 -33q26 0 44 14t18 38q0 27 -17 40.5t-43 13.5q-31 0 -54 -24l-56 22l14 223h237v-93h-152l-4 -61q29 8 50 8z" />
    <glyph glyph-name="uni2076" unicode="&#x2076;" horiz-adv-x="360" 
d="M208 701q51 0 88.5 -35.5t37.5 -95.5q0 -61 -45 -100.5t-109 -39.5q-65 0 -111 48t-46 123q0 94 62 168t170 94l28 -81q-114 -30 -145 -98q34 17 70 17zM181 519q24 0 41 15t17 39q0 22 -15.5 36.5t-41.5 14.5q-35 0 -61 -29v-4q0 -35 17 -53.5t43 -18.5z" />
    <glyph glyph-name="uni2077" unicode="&#x2077;" horiz-adv-x="316" 
d="M25 848h268v-68l-136 -355l-103 20l126 309h-155v94z" />
    <glyph glyph-name="uni2078" unicode="&#x2078;" horiz-adv-x="367" 
d="M267 660q32 -14 53.5 -42.5t21.5 -67.5q0 -55 -45.5 -88t-113.5 -33t-113 33t-45 88q0 38 21.5 67t52.5 42v2q-20 9 -34.5 32t-14.5 51q0 53 37.5 81.5t95.5 28.5t95.5 -28.5t37.5 -81.5q0 -28 -14.5 -51.5t-34.5 -32.5zM183 775q-19 0 -32 -12t-13 -29q0 -16 12.5 -27
t32.5 -11q19 0 31.5 10.5t12.5 27.5q0 18 -12 29t-32 12zM183 514q25 0 40.5 14t15.5 35t-16 36t-40 14q-24 0 -39.5 -14.5t-15.5 -35.5q0 -22 15.5 -35.5t39.5 -13.5z" />
    <glyph glyph-name="uni2079" unicode="&#x2079;" horiz-adv-x="359" 
d="M179 854q66 0 111 -47.5t45 -123.5q0 -95 -60.5 -170t-166.5 -93l-28 82q113 26 143 98l-1 1q-33 -18 -71 -18q-51 0 -88.5 35.5t-37.5 94.5q0 62 45 101.5t109 39.5zM120 711q0 -22 16 -36.5t41 -14.5q36 0 61 28v5q0 34 -17 53t-43 19q-24 0 -41 -15t-17 -39z" />
    <glyph glyph-name="uni207A" unicode="&#x207a;" horiz-adv-x="352" 
d="M313 675v-83h-94v-96h-88v96h-94v83h94v96h88v-96h94z" />
    <glyph glyph-name="uni207B" unicode="&#x207b;" horiz-adv-x="358" 
d="M42 588v91h275v-91h-275z" />
    <glyph glyph-name="uni207C" unicode="&#x207c;" horiz-adv-x="376" 
d="M50 664v80h276v-80h-276zM50 501v82h276v-82h-276z" />
    <glyph glyph-name="uni207D" unicode="&#x207d;" horiz-adv-x="227" 
d="M122 367q-73 132 -73 273q0 155 79 274l75 -32q-23 -35 -42.5 -104t-19.5 -138q0 -135 61 -244z" />
    <glyph glyph-name="uni207E" unicode="&#x207e;" horiz-adv-x="227" 
d="M105 367l-80 29q61 109 61 244q0 69 -19.5 138t-42.5 104l75 32q79 -119 79 -274q0 -141 -73 -273z" />
    <glyph glyph-name="uni207F" unicode="&#x207f;" horiz-adv-x="360" 
d="M221 233q110 0 110 -127v-172h-95v148q0 65 -51 65q-60 0 -60 -66v-147h-95v295h95v-37h1q38 41 95 41z" />
    <glyph glyph-name="uni2080" unicode="&#x2080;" horiz-adv-x="411" 
d="M205 -75q-83 0 -131 58.5t-48 155.5q0 101 49 158t130 57q84 0 132 -58.5t48 -156.5q0 -101 -49.5 -157.5t-130.5 -56.5zM206 20q35 0 55 31t20 88t-20.5 88.5t-54.5 31.5q-35 0 -56 -31t-21 -89q0 -56 20.5 -87.5t56.5 -31.5z" />
    <glyph glyph-name="uni2081" unicode="&#x2081;" horiz-adv-x="284" 
d="M127 -66v285l-63 -44l-50 79l136 92h79v-412h-102z" />
    <glyph glyph-name="uni2082" unicode="&#x2082;" horiz-adv-x="341" 
d="M171 27h143v-93h-290l-1 68l129 129q54 54 54 84q0 19 -12.5 30.5t-33.5 11.5q-39 0 -65 -37l-75 54q20 34 59 56t90 22q59 0 100.5 -34t41.5 -91q0 -38 -15 -68t-58 -69l-67 -61v-2z" />
    <glyph glyph-name="uni2083" unicode="&#x2083;" horiz-adv-x="348" 
d="M260 146q64 -30 64 -99q0 -55 -41.5 -87.5t-108.5 -32.5q-57 0 -100.5 27.5t-59.5 69.5l92 37q15 -44 61 -44q23 0 37 12t14 32q0 21 -16 33t-44 12h-28v76h35q22 0 35 10.5t13 27.5q0 19 -12.5 30.5t-33.5 11.5q-38 0 -51 -35l-85 45q14 36 51 58t85 22q62 0 103 -30
t41 -83q0 -60 -51 -92v-1z" />
    <glyph glyph-name="uni2084" unicode="&#x2084;" horiz-adv-x="357" 
d="M181 -66v63h-168v62l190 287h80v-262h54v-87h-54v-63h-102zM113 78h76v118z" />
    <glyph glyph-name="uni2085" unicode="&#x2085;" horiz-adv-x="346" 
d="M192 200q54 0 91.5 -36.5t37.5 -93.5q0 -64 -44 -103.5t-111 -39.5q-95 0 -153 62l76 63q26 -33 66 -33q26 0 44 14t18 38q0 27 -17 40.5t-43 13.5q-31 0 -54 -24l-56 22l14 223h237v-93h-152l-4 -61q29 8 50 8z" />
    <glyph glyph-name="uni2086" unicode="&#x2086;" horiz-adv-x="360" 
d="M208 199q51 0 88.5 -35.5t37.5 -95.5q0 -61 -45 -100.5t-109 -39.5q-65 0 -111 48t-46 123q0 94 62 168t170 94l28 -81q-114 -30 -145 -98q34 17 70 17zM181 17q24 0 41 15t17 39q0 22 -15.5 36.5t-41.5 14.5q-35 0 -61 -29v-4q0 -35 17 -53.5t43 -18.5z" />
    <glyph glyph-name="uni2087" unicode="&#x2087;" horiz-adv-x="316" 
d="M25 346h268v-68l-136 -355l-103 20l126 309h-155v94z" />
    <glyph glyph-name="uni2088" unicode="&#x2088;" horiz-adv-x="367" 
d="M267 158q32 -14 53.5 -42.5t21.5 -67.5q0 -55 -45.5 -88t-113.5 -33t-113 33t-45 88q0 38 21.5 67t52.5 42v2q-20 9 -34.5 32t-14.5 51q0 53 37.5 81.5t95.5 28.5t95.5 -28.5t37.5 -81.5q0 -28 -14.5 -51.5t-34.5 -32.5zM183 273q-19 0 -32 -12t-13 -29q0 -16 12.5 -27
t32.5 -11q19 0 31.5 10.5t12.5 27.5q0 18 -12 29t-32 12zM183 12q25 0 40.5 14t15.5 35t-16 36t-40 14q-24 0 -39.5 -14.5t-15.5 -35.5q0 -22 15.5 -35.5t39.5 -13.5z" />
    <glyph glyph-name="uni2089" unicode="&#x2089;" horiz-adv-x="359" 
d="M179 352q66 0 111 -47.5t45 -123.5q0 -95 -60.5 -170t-166.5 -93l-28 82q113 26 143 98l-1 1q-33 -18 -71 -18q-51 0 -88.5 35.5t-37.5 94.5q0 62 45 101.5t109 39.5zM120 209q0 -22 16 -36.5t41 -14.5q36 0 61 28v5q0 34 -17 53t-43 19q-24 0 -41 -15t-17 -39z" />
    <glyph glyph-name="uni208A" unicode="&#x208a;" horiz-adv-x="351" 
d="M313 167v-84h-93v-95h-89v95h-93v84h93v97l89 -1v-96h93z" />
    <glyph glyph-name="uni208B" unicode="&#x208b;" horiz-adv-x="360" 
d="M42 79v91h275v-91h-275z" />
    <glyph glyph-name="uni208C" unicode="&#x208c;" horiz-adv-x="375" 
d="M49 173v80h276v-80h-276zM49 10v81h276v-81h-276z" />
    <glyph glyph-name="uni208D" unicode="&#x208d;" horiz-adv-x="232" 
d="M123 -139q-74 134 -74 273q0 155 79 273l79 -32q-23 -35 -42.5 -104.5t-19.5 -136.5q0 -138 61 -243z" />
    <glyph glyph-name="uni208E" unicode="&#x208e;" horiz-adv-x="232" 
d="M109 -139l-83 30q61 105 61 243q0 67 -19.5 136.5t-42.5 104.5l79 32q79 -118 79 -273q0 -139 -74 -273z" />
    <glyph glyph-name="uni2090" unicode="&#x2090;" horiz-adv-x="385" 
d="M259 228h90v-294h-90v32h-2q-33 -38 -91 -38q-64 0 -102.5 42.5t-38.5 110.5q0 67 38 109.5t97 42.5q60 0 98 -45h1v40zM188 14q30 0 49 18.5t19 48.5t-19 48.5t-48 18.5q-30 0 -50 -18.5t-20 -48.5t19.5 -48.5t49.5 -18.5z" />
    <glyph glyph-name="uni2091" unicode="&#x2091;" horiz-adv-x="355" 
d="M333 81q0 -18 -3 -27l1 -1h-211q17 -46 73 -46q36 0 62 26l66 -50q-49 -56 -138 -56q-69 0 -114 43t-45 111q0 65 45 108t113 43q65 0 108 -42.5t43 -108.5zM184 156q-46 0 -62 -39h121q-16 39 -59 39z" />
    <glyph glyph-name="uni2092" unicode="&#x2092;" horiz-adv-x="369" 
d="M184 -73q-70 0 -115 43t-45 110t45 109.5t115 42.5q71 0 116 -42.5t45 -109.5t-45 -110t-116 -43zM184 12q28 0 47 19.5t19 48.5q0 30 -18.5 49t-47.5 19q-28 0 -46 -19t-18 -49q0 -29 18 -48.5t46 -19.5z" />
    <glyph glyph-name="uni2093" unicode="&#x2093;" horiz-adv-x="323" 
d="M216 -66l-54 72h-1l-56 -72h-104l105 152l-103 142h109l48 -70h2l48 70h109l-105 -141l108 -153h-106z" />
    <glyph glyph-name="dong" unicode="&#x20ab;" horiz-adv-x="609" 
d="M609 638v-84h-59v-554h-125v59h-2q-53 -67 -150 -67q-102 0 -168 69.5t-66 181.5q0 110 65.5 181.5t164.5 71.5q93 0 147 -63h3v121h-99v84h99v98h131v-98h59zM297 109q55 0 92 37t37 96t-36.5 98t-92.5 39q-54 0 -89.5 -37.5t-35.5 -99.5q0 -59 35 -96t90 -37zM74 -166
v114h474v-114h-474z" />
    <glyph glyph-name="Euro" unicode="&#x20ac;" horiz-adv-x="605" 
d="M505 153l76 -101q-86 -59 -191 -59q-111 0 -198 64t-114 180h-65v67h56q-1 9 -1 28q0 20 1 30h-56v67h67q26 109 108 176t202 67q102 0 186 -58l-79 -100q-48 33 -107 33q-53 0 -96.5 -31.5t-65.5 -86.5h223v-67h-239q-2 -20 -2 -30q0 -19 1 -28h240v-67h-224
q22 -55 66 -87.5t97 -32.5q61 0 115 36z" />
    <glyph glyph-name="uni20BA" unicode="&#x20ba;" horiz-adv-x="573" 
d="M446 267l109 -40q-39 -123 -105 -175t-167 -52h-195v185l-66 -32l-33 73l99 48v63l-66 -32l-33 72l99 48v285h141v-217l109 53l33 -72l-142 -69v-63l110 53l33 -72l-143 -69v-144h44q66 0 105 35.5t68 121.5z" />
    <glyph glyph-name="uni2113" unicode="&#x2113;" horiz-adv-x="463" 
d="M400 123l41 -27q-65 -105 -176 -105q-155 0 -175 145q-25 -22 -55 -44l-25 35q9 8 37 29.5t41 33.5l2 260q1 119 46 174t122 55q55 0 85.5 -41t30.5 -105q0 -144 -181 -315v-21q1 -145 96 -145q60 0 111 71zM271 615q-32 0 -55.5 -38t-22.5 -121v-179q136 141 136 248
q0 90 -58 90z" />
    <glyph glyph-name="uni2116" unicode="&#x2116;" horiz-adv-x="1114" 
d="M900 409q-70 0 -115 43t-45 110t45 109.5t115 42.5t115.5 -42.5t45.5 -109.5t-45.5 -110t-115.5 -43zM536 230v480h141v-710h-144l-313 471h-2v-471h-140v710h140l317 -480h1zM900 630q-28 0 -46 -19t-18 -49q0 -29 18 -48.5t46 -19.5q27 0 46 19t19 49q0 31 -18 49.5
t-47 18.5zM751 263v89h303v-89h-303z" />
    <glyph glyph-name="trademark" unicode="&#x2122;" horiz-adv-x="688" 
d="M105 387v252h-84v71h248v-71h-84v-252h-80zM312 387v323h81l86 -169l86 169h82v-323h-79v176l-63 -115h-51l-64 115v-176h-78z" />
    <glyph glyph-name="uni2126" unicode="&#x2126;" horiz-adv-x="764" 
d="M590 127v-2h117v-125h-278v125q140 107 140 259q0 90 -52 147.5t-135 57.5q-84 -1 -135.5 -58t-51.5 -147q0 -152 140 -259v-125h-278v125h117v1q-126 108 -126 264q0 143 92.5 236t241.5 93q148 0 240.5 -93t92.5 -236q0 -157 -125 -263z" />
    <glyph glyph-name="estimated" unicode="&#x212e;" horiz-adv-x="794" 
d="M397 -10q-146 0 -246.5 93.5t-100.5 227.5q0 136 101.5 228.5t245.5 92.5q147 0 247 -93.5t100 -227.5v-9h-509v-225q66 -52 163 -52q132 0 210 84h59q-47 -55 -118.5 -87t-151.5 -32zM234 343h325v204q-70 49 -161 49q-95 0 -163 -52z" />
    <glyph glyph-name="oneeighth" unicode="&#x215b;" horiz-adv-x="850" 
d="M516 725l98 -42l-314 -706l-99 42zM229 299h-102v285l-63 -44l-50 79l136 92h79v-412zM750 224q32 -14 53.5 -42.5t21.5 -67.5q0 -55 -45.5 -88t-113.5 -33t-113 33t-45 88q0 38 21.5 67t52.5 42v2q-20 9 -34.5 32t-14.5 51q0 53 37.5 81.5t95.5 28.5t95.5 -28.5
t37.5 -81.5q0 -28 -14.5 -51.5t-34.5 -32.5zM666 339q-19 0 -32 -12t-13 -29q0 -16 12.5 -27t32.5 -11q19 0 31.5 10.5t12.5 27.5q0 18 -12 29t-32 12zM666 78q25 0 40.5 14t15.5 35t-16 36t-40 14q-24 0 -39.5 -14.5t-15.5 -35.5q0 -22 15.5 -35.5t39.5 -13.5z" />
    <glyph glyph-name="threeeighths" unicode="&#x215c;" horiz-adv-x="892" 
d="M557 725l98 -42l-314 -706l-99 42zM324 412q0 -55 -41.5 -87.5t-108.5 -32.5q-57 0 -100.5 27.5t-59.5 69.5l92 37q15 -44 61 -44q23 0 37 12t14 32q0 21 -16 33t-44 12h-28v76h35q22 0 35 10.5t13 27.5q0 19 -12.5 30.5t-33.5 11.5q-38 0 -51 -35l-85 45q14 36 51 58
t85 22q62 0 103 -30t41 -83q0 -60 -51 -92v-1q64 -30 64 -99zM792 224q32 -14 53.5 -42.5t21.5 -67.5q0 -55 -45.5 -88t-113.5 -33t-113 33t-45 88q0 38 21.5 67t52.5 42v2q-20 9 -34.5 32t-14.5 51q0 53 37.5 81.5t95.5 28.5t95.5 -28.5t37.5 -81.5q0 -28 -14.5 -51.5
t-34.5 -32.5zM708 339q-19 0 -32 -12t-13 -29q0 -16 12.5 -27t32.5 -11q19 0 31.5 10.5t12.5 27.5q0 18 -12 29t-32 12zM708 78q25 0 40.5 14t15.5 35t-16 36t-40 14q-24 0 -39.5 -14.5t-15.5 -35.5q0 -22 15.5 -35.5t39.5 -13.5z" />
    <glyph glyph-name="fiveeighths" unicode="&#x215d;" horiz-adv-x="885" 
d="M551 725l98 -42l-314 -706l-99 42zM321 435q0 -64 -44 -103.5t-111 -39.5q-95 0 -153 62l76 63q26 -33 66 -33q26 0 44 14t18 38q0 27 -17 40.5t-43 13.5q-31 0 -54 -24l-56 22l14 223h237v-93h-152l-4 -61q29 8 50 8q54 0 91.5 -36.5t37.5 -93.5zM785 224
q32 -14 53.5 -42.5t21.5 -67.5q0 -55 -45.5 -88t-113.5 -33t-113 33t-45 88q0 38 21.5 67t52.5 42v2q-20 9 -34.5 32t-14.5 51q0 53 37.5 81.5t95.5 28.5t95.5 -28.5t37.5 -81.5q0 -28 -14.5 -51.5t-34.5 -32.5zM701 339q-19 0 -32 -12t-13 -29q0 -16 12.5 -27t32.5 -11
q19 0 31.5 10.5t12.5 27.5q0 18 -12 29t-32 12zM701 78q25 0 40.5 14t15.5 35t-16 36t-40 14q-24 0 -39.5 -14.5t-15.5 -35.5q0 -22 15.5 -35.5t39.5 -13.5z" />
    <glyph glyph-name="seveneighths" unicode="&#x215e;" horiz-adv-x="818" 
d="M484 725l98 -42l-314 -706l-99 42zM293 711v-68l-136 -355l-103 20l126 309h-155v94h268zM718 224q32 -14 53.5 -42.5t21.5 -67.5q0 -55 -45.5 -88t-113.5 -33t-113 33t-45 88q0 38 21.5 67t52.5 42v2q-20 9 -34.5 32t-14.5 51q0 53 37.5 81.5t95.5 28.5t95.5 -28.5
t37.5 -81.5q0 -28 -14.5 -51.5t-34.5 -32.5zM634 339q-19 0 -32 -12t-13 -29q0 -16 12.5 -27t32.5 -11q19 0 31.5 10.5t12.5 27.5q0 18 -12 29t-32 12zM634 78q25 0 40.5 14t15.5 35t-16 36t-40 14q-24 0 -39.5 -14.5t-15.5 -35.5q0 -22 15.5 -35.5t39.5 -13.5z" />
    <glyph glyph-name="arrowleft" unicode="&#x2190;" horiz-adv-x="625" 
d="M267 73l-267 194l267 195l-1 -136h313v-118h-313z" />
    <glyph glyph-name="arrowup" unicode="&#x2191;" horiz-adv-x="566" 
d="M477 312l-135 1v-313h-118v313l-136 -1l195 267z" />
    <glyph glyph-name="arrowright" unicode="&#x2192;" horiz-adv-x="625" 
d="M358 73l1 135h-313v118h313l-1 136l267 -195z" />
    <glyph glyph-name="arrowdown" unicode="&#x2193;" horiz-adv-x="566" 
d="M477 267l-194 -267l-195 267l136 -1v313h118v-313z" />
    <glyph glyph-name="arrowboth" unicode="&#x2194;" horiz-adv-x="842" 
d="M842 267l-267 -194l1 135h-310l1 -135l-267 194l267 195l-1 -136h310l-1 136z" />
    <glyph glyph-name="arrowupdn" unicode="&#x2195;" horiz-adv-x="565" 
d="M341 423v-311l136 1l-195 -267l-194 267l135 -1v311l-135 -1l194 267l195 -267z" />
    <glyph glyph-name="uni2196" unicode="&#x2196;" horiz-adv-x="572" 
d="M121 168l-52 326l327 -51l-97 -96l221 -221l-83 -83l-222 221z" />
    <glyph glyph-name="uni2197" unicode="&#x2197;" horiz-adv-x="572" 
d="M452 168l-94 96l-222 -221l-83 83l221 221l-97 96l327 51z" />
    <glyph glyph-name="uni2198" unicode="&#x2198;" horiz-adv-x="572" 
d="M178 124l96 94l-221 222l83 83l221 -221l96 97l51 -327z" />
    <glyph glyph-name="uni2199" unicode="&#x2199;" horiz-adv-x="572" 
d="M394 124l-326 -52l51 327l96 -97l221 221l83 -83l-221 -222z" />
    <glyph glyph-name="partialdiff" unicode="&#x2202;" horiz-adv-x="589" 
d="M281 694q64 0 112.5 -28t75.5 -69.5t44 -98.5t22.5 -104.5t5.5 -97.5q0 -148 -70 -226.5t-179 -78.5q-103 0 -173.5 64t-70.5 164q0 104 62 164t151 60q83 0 142 -44l1 2q-24 177 -142 178q-32 0 -136 -33l-36 107q102 41 191 41zM294 117q50 0 83 40t34 108
q-49 66 -120 66q-49 0 -78.5 -28.5t-29.5 -78.5q0 -45 31 -76t80 -31z" />
    <glyph glyph-name="emptyset" unicode="&#x2205;" horiz-adv-x="726" 
d="M613 509q64 -85 64 -191q0 -129 -91.5 -222.5t-223.5 -93.5q-107 0 -191 66l-50 -50l-53 53l50 50q-68 85 -68 197q0 129 91 222t223 93q111 0 196 -69l45 45l54 -54zM154 317q0 -68 38 -122l294 295q-55 39 -122 39q-89 0 -149.5 -62t-60.5 -150zM362 106q88 0 149 62.5
t61 149.5q0 65 -34 116l-293 -292q52 -36 117 -36z" />
    <glyph glyph-name="uni2206" unicode="&#x2206;" horiz-adv-x="686" 
d="M413 710l237 -602v-108h-114h-486h-15v107l237 603h141zM192 125h299l-147 409h-2z" />
    <glyph glyph-name="product" unicode="&#x220f;" horiz-adv-x="699" 
d="M78 -105v815h544v-815h-141v689h-263v-689h-140z" />
    <glyph glyph-name="summation" unicode="&#x2211;" horiz-adv-x="615" 
d="M570 584h-335v-2l189 -265l-189 -264v-3h335v-126h-520v98l220 295l-220 291v102h520v-126z" />
    <glyph glyph-name="minus" unicode="&#x2212;" horiz-adv-x="572" 
d="M49 220v114h474v-114h-474z" />
    <glyph glyph-name="radical" unicode="&#x221a;" horiz-adv-x="735" 
d="M695 822h94l-390 -822h-86l-167 500h-114v109h219l139 -433h2z" />
    <glyph glyph-name="infinity" unicode="&#x221e;" horiz-adv-x="771" 
d="M552 450q71 0 119 -49.5t48 -122.5q0 -76 -49 -123.5t-118 -47.5q-93 0 -168 95q-73 -95 -164 -95q-71 0 -119 49t-48 122q0 77 49 124.5t118 47.5q90 0 165 -95q79 95 167 95zM228 207q48 0 100 71q-27 36 -49.5 54.5t-50.5 18.5q-30 0 -50 -19.5t-20 -53.5
q0 -33 20 -52t50 -19zM546 207q28 0 47.5 19t19.5 52q0 34 -19.5 53.5t-47.5 19.5q-50 0 -103 -73q55 -71 103 -71z" />
    <glyph glyph-name="integral" unicode="&#x222b;" horiz-adv-x="421" 
d="M54 -173q-39 -1 -80 6l15 100h8q47 0 59.5 19t23.5 89l78 513q11 70 51 108t95 40q29 1 53.5 -2.5t37.5 -7t15 -3.5l-15 -93q-14 1 -35 1q-46 0 -58.5 -18.5t-23.5 -90.5l-78 -514q-10 -69 -50 -106.5t-96 -40.5z" />
    <glyph glyph-name="uni2236" unicode="&#x2236;" horiz-adv-x="273" 
d="M134 395q-34 0 -57.5 23t-23.5 56t23.5 56.5t57.5 23.5q33 0 57 -23.5t24 -56.5t-24 -56t-57 -23zM134 50q-34 0 -57.5 23t-23.5 56t23.5 56.5t57.5 23.5q33 0 57 -23.5t24 -56.5t-24 -56t-57 -23z" />
    <glyph glyph-name="approxequal" unicode="&#x2248;" horiz-adv-x="593" 
d="M411 309q-33 0 -98 24.5t-105 24.5q-55 0 -118 -39l-36 87q18 19 58.5 41.5t82.5 22.5q41 0 105 -25t97 -25q55 0 104 43l38 -87q-55 -67 -128 -67zM411 87q-34 0 -98.5 25t-104.5 25q-58 0 -118 -39l-36 86q17 20 57.5 42.5t83.5 22.5q41 0 105 -25t97 -25q55 0 104 43
l38 -88q-55 -67 -128 -67z" />
    <glyph glyph-name="notequal" unicode="&#x2260;" horiz-adv-x="590" 
d="M532 335h-160l-54 -116h214v-114h-267l-50 -106l-83 32l35 74h-109v114h162l54 116h-216v114h269l54 116l83 -33l-39 -83h107v-114z" />
    <glyph glyph-name="lessequal" unicode="&#x2264;" horiz-adv-x="585" 
d="M520 166l-464 200v94l464 203v-126l-295 -123l295 -125v-123zM522 0h-467v114h467v-114z" />
    <glyph glyph-name="greaterequal" unicode="&#x2265;" horiz-adv-x="585" 
d="M65 166v123l295 125l-295 123v126l464 -203v-94zM63 0v114h467v-114h-467z" />
    <glyph glyph-name="filledbox" unicode="&#x25a0;" horiz-adv-x="643" 
d="M45 0v551h552v-551h-552z" />
    <glyph glyph-name="uni25A1" unicode="&#x25a1;" horiz-adv-x="643" 
d="M45 0v551h552v-551h-552zM146 100h351v351h-351v-351z" />
    <glyph glyph-name="triagup" unicode="&#x25b2;" horiz-adv-x="642" 
d="M7 0l314 580l313 -580h-627z" />
    <glyph glyph-name="uni25B3" unicode="&#x25b3;" horiz-adv-x="642" 
d="M7 0l314 580l313 -580h-627zM170 96h302l-151 279z" />
    <glyph glyph-name="uni25B6" unicode="&#x25b6;" horiz-adv-x="637" 
d="M50 -38v627l579 -314z" />
    <glyph glyph-name="uni25B7" unicode="&#x25b7;" horiz-adv-x="637" 
d="M50 -38v627l579 -314zM146 125l279 150l-279 151v-301z" />
    <glyph glyph-name="triagdn" unicode="&#x25bc;" horiz-adv-x="642" 
d="M321 -28l-314 579h627z" />
    <glyph glyph-name="uni25BD" unicode="&#x25bd;" horiz-adv-x="642" 
d="M321 -28l-314 579h627zM321 175l151 280h-302z" />
    <glyph glyph-name="uni25C0" unicode="&#x25c0;" horiz-adv-x="637" 
d="M587 -38l-580 313l580 314v-627z" />
    <glyph glyph-name="uni25C1" unicode="&#x25c1;" horiz-adv-x="637" 
d="M587 -38l-580 313l580 314v-627zM490 125v301l-279 -151z" />
    <glyph glyph-name="uni25C6" unicode="&#x25c6;" horiz-adv-x="693" 
d="M347 -64l-340 339l340 340l339 -340z" />
    <glyph glyph-name="uni25C7" unicode="&#x25c7;" horiz-adv-x="693" 
d="M347 -64l-340 339l340 340l339 -340zM347 74l201 201l-201 202l-201 -202z" />
    <glyph glyph-name="lozenge" unicode="&#x25ca;" horiz-adv-x="500" 
d="M246 0l-207 338l207 339l215 -339zM247 193l85 145l-85 149l-81 -149z" />
    <glyph glyph-name="circle" unicode="&#x25cb;" horiz-adv-x="648" 
d="M324 -8q-117 0 -200 83t-83 200q0 118 83 201.5t200 83.5t200 -83.5t83 -201.5q0 -117 -83 -200t-200 -83zM324 92q76 0 129.5 53.5t53.5 129.5t-53.5 130t-129.5 54t-129.5 -54t-53.5 -130t53.5 -129.5t129.5 -53.5z" />
    <glyph glyph-name="uni25CF" unicode="&#x25cf;" horiz-adv-x="648" 
d="M324 -8q-117 0 -200 83t-83 200q0 118 83 201.5t200 83.5t200 -83.5t83 -201.5q0 -117 -83 -200t-200 -83z" />
    <glyph glyph-name="uni2605" unicode="&#x2605;" horiz-adv-x="756" 
d="M150 -37l87 267l-228 167h282l86 268l88 -268h282l-229 -167l88 -267l-229 165z" />
    <glyph glyph-name="uni2606" unicode="&#x2606;" horiz-adv-x="756" 
d="M150 -37l87 267l-228 167h282l86 268l88 -268h282l-229 -167l88 -267l-229 165zM467 149l-34 104l91 67h-111l-35 105l-34 -105h-113l91 -67l-33 -104l88 65z" />
    <glyph glyph-name="uni2610" unicode="&#x2610;" horiz-adv-x="643" 
d="M45 0v551h552v-551h-552zM146 100h351v351h-351v-351z" />
    <glyph glyph-name="uni2611" unicode="&#x2611;" horiz-adv-x="738" 
d="M756 740l-159 -259v-481h-552v551h477l148 242zM497 100v217l-124 -202l-193 200l72 70l103 -106l105 172h-314v-351h351z" />
    <glyph glyph-name="uni2612" unicode="&#x2612;" horiz-adv-x="643" 
d="M45 0v551h552v-551h-552zM146 100h351v351h-351v-351zM232 117l-71 72l88 89l-88 88l71 72l88 -88l90 89l72 -73l-89 -89l89 -89l-72 -70l-88 88z" />
    <glyph glyph-name="uni261A" unicode="&#x261a;" horiz-adv-x="1016" 
d="M955 538q7 0 12 -5t5 -12v-416q0 -7 -5 -12t-12 -5h-102q-9 0 -14 6.5t-2 15.5l3 11h-69q-7 0 -12 4.5t-5 11.5v23q-44 -9 -130 -9q5 -15 -11 -26t-34 -11q-2 0 -4 0.5t-3.5 1.5t-4 3.5l-5 5l-7.5 7.5t-9 10q5 -15 -12 -28t-32 -13q-8 0 -30 23q-2 3 -4 5
q-2 -19 -17.5 -31.5t-30.5 -12.5q-12 0 -70 54q-6 -1 -16 -1q-54 0 -54 40q0 32 36 58l-6 59q-3 25 21.5 38t85.5 24q-130 -2 -266 -2q-66 0 -98 39q-4 5 -6 10t-2.5 9.5t0 9.5t1.5 8.5t3 7.5t3.5 6t2.5 4l1 2q6 8 15 8l114 -4q18 -1 45.5 0.5t57.5 5t61.5 7.5t59.5 8
t50.5 7.5t36.5 6.5l13 2q3 2 6 0q45 -8 91 -15q14 -2 70.5 -9.5t76.5 -12.5v33q0 7 6 12t11 5h69l-2 12q-3 8 2 14.5t14 6.5h102z" />
    <glyph glyph-name="uni261B" unicode="&#x261b;" horiz-adv-x="1016" 
d="M61 538h102q9 0 13.5 -6.5t2.5 -14.5l-3 -12h70q4 0 10.5 -5t6.5 -12v-33q20 5 77 12.5t70 9.5q40 6 90 15q3 2 6 0l26 -4q25 -4 64 -10t82 -11.5t85.5 -9t67.5 -2.5l113 4q10 0 15 -8l1 -3q2 -2 4 -5t4 -7t3 -9t1 -10.5t-2.5 -11.5t-6.5 -11q-32 -39 -99 -39
q-135 0 -265 2q61 -11 85 -23.5t22 -38.5l-6 -59q36 -26 36 -58q0 -40 -55 -40q-10 0 -15 1q-58 -54 -70 -54q-16 0 -31.5 12t-17.5 32q-3 -3 -6.5 -7t-5.5 -6l-4.5 -4.5t-3.5 -4t-2.5 -3t-2.5 -2t-2.5 -1t-2.5 -0.5h-3q-15 0 -32.5 13t-12.5 28q-3 -3 -6.5 -7t-5 -6
t-4 -4.5t-4 -3.5t-3 -2.5t-2.5 -2t-2 -1.5t-2.5 -1h-2.5q-18 0 -34 11t-11 26q-86 0 -131 9v-23q0 -16 -16 -16h-69l3 -11q2 -9 -3 -15.5t-13 -6.5h-102q-7 0 -12 5t-5 12v416q0 17 17 17z" />
    <glyph glyph-name="uni261C" unicode="&#x261c;" horiz-adv-x="1016" 
d="M837 110q21 79 27 113.5t6 89.5q0 50 -33 204q-3 8 2 14.5t14 6.5h102q7 0 12 -5t5 -12v-416q0 -7 -5 -12t-12 -5h-102q-9 0 -14 6.5t-2 15.5zM754 137l-1 351q0 7 6 12t11 5l28 1q27 -115 27 -192q0 -79 -21 -193h-33q-7 0 -12 4.5t-5 11.5zM716 452v-289
q-33 -12 -92 -12q5 -15 -11 -26t-34 -11q-2 0 -4 0.5t-3.5 1.5t-4 3.5l-5 5l-7.5 7.5t-9 10q5 -15 -12 -28t-32 -13q-8 0 -30 23q-2 3 -4 5q-2 -19 -17.5 -31.5t-30.5 -12.5q-12 0 -70 54q-6 -1 -16 -1q-54 0 -54 40q0 32 36 58l-6 59q-3 25 21.5 38t85.5 24
q-130 -2 -266 -2q-66 0 -98 39q-4 5 -6 10t-2.5 9.5t0 9.5t1.5 8.5t3 7.5t3.5 6t2.5 4l1 2q6 8 15 8l114 -4q18 -1 45.5 0.5t57.5 5t61.5 7.5t59.5 8t50.5 7.5t36.5 6.5l13 2q3 2 6 0q45 -8 91 -15q76 -13 110 -25zM170 446q-30 -18 -51.5 -19.5t-58.5 9.5
q25 -27 66.5 -22.5t43.5 32.5zM527 341q2 -36 -4.5 -54t-14.5 -21t-25 -3q-11 0 -14 5.5t-5 26.5q-6 -19 -10.5 -24.5t-14.5 -5.5q-20 -1 -32 27q-3 -27 -21 -33q-48 -16 -65 -33q30 10 51 12.5t112 -3.5q41 -5 53.5 21t-10.5 85zM410 174q1 28 -22.5 36.5t-57.5 -2.5
q29 0 49 -8.5t25 -17.5z" />
    <glyph glyph-name="uni261D" unicode="&#x261d;" horiz-adv-x="631" 
d="M159 118q-13 37 -24 110l-16 91v6l3 13q2 14 5.5 36.5t7.5 50.5t8 59.5t7.5 61.5t5 57.5t0.5 45.5l-4 114q0 9 9 15l3 2q2 1 4.5 2.5t7 3.5t9.5 3t10 1t11 -2.5t11 -6.5q39 -31 39 -98q0 -136 -2 -266q12 61 24.5 85.5t37.5 21.5l59 -6q26 36 59 36q39 0 39 -54v-16
q53 -57 53 -70q0 -15 -12.5 -30.5t-31.5 -17.5q3 -3 7 -6.5t6 -5.5t5 -4.5t4 -4t2.5 -3t2 -2.5t1.5 -2.5t1 -2.5v-3q0 -15 -13.5 -32t-27.5 -12q3 -3 7.5 -7t6.5 -6l4.5 -4.5t3.5 -4t2.5 -3t1.5 -2.5t0.5 -2.5t0.5 -3.5q0 -18 -11 -34t-26 -11q0 -57 -11 -92h-290zM165 664
q18 1 27.5 21.5t5 46.5t-22.5 42q11 -37 9.5 -58.5t-19.5 -51.5zM271 307q59 -23 84.5 -10.5t20.5 53.5q-12 105 10 163q-20 -20 -33 -65q-7 -18 -34 -21q28 -12 28 -32q0 -10 -5.5 -14.5t-25.5 -10.5q21 -2 27 -5t6 -14q0 -17 -3 -25t-21 -14.5t-54 -4.5zM437 424
q-4 2 -9.5 6t-15 24.5t-9.5 49.5q-11 -34 -2.5 -57.5t36.5 -22.5zM474 80q7 0 11.5 -5t4.5 -12v-33q-112 -21 -193 -21q-77 0 -192 27l1 28q0 4 5.5 10.5t11.5 6.5zM501 -3q9 2 15.5 -3t6.5 -13v-102q0 -7 -5 -12t-12 -5h-416q-7 0 -12 5t-5 12v102q0 9 7 13.5t15 2.5
q154 -33 203 -33q55 0 89.5 6t113.5 27z" />
    <glyph glyph-name="uni261E" unicode="&#x261e;" horiz-adv-x="1016" 
d="M179 110q2 -9 -3 -15.5t-13 -6.5h-102q-7 0 -12 5t-5 12v416q0 17 17 17h102q9 0 13.5 -6.5t2.5 -14.5q-33 -154 -33 -204q0 -56 6 -91.5t27 -111.5zM261 137q0 -16 -16 -16h-33q-22 119 -22 193q0 77 27 192l29 -1q4 0 10.5 -5t6.5 -12zM299 452q35 12 111 25
q40 6 90 15q3 2 6 0l26 -4q25 -4 64 -10t82 -11.5t85.5 -9t67.5 -2.5l113 4q10 0 15 -8l1 -3q2 -2 4 -5t4 -7t3 -9t1 -10.5t-2.5 -11.5t-6.5 -11q-32 -39 -99 -39q-135 0 -265 2q61 -11 85 -23.5t22 -38.5l-6 -59q36 -26 36 -58q0 -40 -55 -40q-10 0 -15 1q-58 -54 -70 -54
q-16 0 -31.5 12t-17.5 32q-3 -3 -6.5 -7t-5.5 -6l-4.5 -4.5t-3.5 -4t-2.5 -3t-2.5 -2t-2.5 -1t-2.5 -0.5h-3q-15 0 -32.5 13t-12.5 28q-3 -3 -6.5 -7t-5 -6t-4 -4.5t-4 -3.5t-3 -2.5t-2.5 -2t-2 -1.5t-2.5 -1h-2.5q-18 0 -34 11t-11 26q-58 0 -93 12v289zM846 446
q2 -28 43 -32.5t67 22.5q-37 -11 -58.5 -9.5t-51.5 19.5zM489 341q-23 -59 -10.5 -85t52.5 -21q92 6 113 3.5t51 -12.5q-18 17 -65 33q-17 5 -22 33q-11 -28 -31 -27q-10 0 -15 5.5t-11 24.5q-1 -20 -4 -26t-14 -6q-17 0 -25.5 3t-14.5 21t-4 54zM606 174q2 4 6 9.5t24.5 15
t49.5 9.5q-34 11 -57.5 2.5t-22.5 -36.5z" />
    <glyph glyph-name="uni261F" unicode="&#x261f;" horiz-adv-x="631" 
d="M501 655q-76 21 -111.5 27t-91.5 6q-49 0 -203 -33q-8 -2 -15 2.5t-7 13.5v102q0 7 5 12t12 5h416q17 0 17 -17v-102q0 -8 -6.5 -13t-15.5 -3zM474 573l-351 -2q-6 0 -11.5 6.5t-5.5 10.5l-1 29q115 27 192 27q76 0 193 -22v-33q0 -16 -16 -16zM159 535h290
q11 -36 11 -93q15 5 26 -11t11 -34q0 -6 -4 -10.5t-23 -21.5q14 5 27.5 -12.5t13.5 -32.5q0 -2 -0.5 -3.5t-1.5 -3l-2 -3t-3.5 -4t-5 -4.5t-7.5 -6.5t-9 -8.5q20 -2 32 -17.5t12 -31.5q0 -13 -53 -70v-15q0 -55 -39 -55q-33 0 -59 36l-59 -6q-25 -2 -37.5 22t-24.5 85
q2 -130 2 -265q0 -68 -39 -99q-5 -4 -11 -6.5t-11 -2.5t-10 1t-9.5 3t-7 4t-4.5 4l-3 1q-9 5 -9 15l4 113q1 25 -2.5 67.5t-9 85.5t-11.5 82t-10 64l-4 26v5q1 8 7 41.5t9 49.5q11 73 24 111zM271 345q36 2 54 -4t21 -14.5t3 -25.5q0 -11 -6 -14t-27 -4q20 -6 25.5 -11
t5.5 -15q0 -21 -28 -31q28 -5 34 -22q14 -44 33 -65q-22 58 -10 164q5 40 -20.5 52.5t-84.5 -10.5zM437 228q-28 1 -36.5 -22.5t2.5 -57.5q0 29 8.5 49t16.5 25zM165 -12q18 -30 19.5 -51.5t-9.5 -58.5q27 26 23 67t-33 43z" />
    <glyph glyph-name="uni2713" unicode="&#x2713;" horiz-adv-x="572" 
d="M209 115l-192 200l72 70l102 -106l315 514l86 -53z" />
    <glyph glyph-name="uni2715" unicode="&#x2715;" horiz-adv-x="366" 
d="M90 113l-72 72l93 93l-93 92l72 72l92 -92l93 93l73 -73l-93 -93l93 -93l-72 -71l-92 93z" />
    <glyph glyph-name="uni2780" unicode="&#x2780;" horiz-adv-x="764" 
d="M382 -10q-148 0 -253 104.5t-105 252.5t105 253t253 105t253 -105t105 -253t-105 -252.5t-253 -104.5zM382 82q110 0 187.5 77.5t77.5 187.5q0 109 -77.5 187t-187.5 78t-188 -77.5t-78 -187.5t78 -187.5t188 -77.5zM345 143v285l-63 -44l-50 79l136 92h79v-412h-102z
" />
    <glyph glyph-name="uni2781" unicode="&#x2781;" horiz-adv-x="764" 
d="M382 705q148 0 253 -105t105 -253t-105 -252.5t-253 -104.5t-253 104.5t-105 252.5t105 253t253 105zM382 82q109 0 187 79t78 186q0 109 -77.5 187t-187.5 78t-188 -77.5t-78 -187.5t78 -187.5t188 -77.5zM389 238v-2h143v-93h-290l-1 68l129 129q54 54 54 84
q0 19 -12.5 30.5t-33.5 11.5q-39 0 -65 -37l-75 54q20 34 59 56t90 22q59 0 100.5 -34t41.5 -91q0 -38 -15 -68t-58 -69z" />
    <glyph glyph-name="uni2782" unicode="&#x2782;" horiz-adv-x="764" 
d="M382 705q148 0 253 -105t105 -253t-105 -252.5t-253 -104.5t-253 104.5t-105 252.5t105 253t253 105zM382 82q110 0 187.5 77.5t77.5 187.5q0 109 -77.5 187t-187.5 78t-188 -77.5t-78 -187.5t78 -187.5t188 -77.5zM475 355q64 -30 64 -99q0 -55 -41.5 -87.5
t-108.5 -32.5q-57 0 -100.5 27.5t-59.5 69.5l92 37q15 -44 61 -44q23 0 37 12t14 32q0 21 -16 33t-44 12h-28v76h35q22 0 35 10.5t13 27.5q0 19 -12.5 30.5t-33.5 11.5q-38 0 -51 -35l-85 45q14 36 51 58t85 22q62 0 103 -30t41 -83q0 -60 -51 -92v-1z" />
    <glyph glyph-name="uni2783" unicode="&#x2783;" horiz-adv-x="764" 
d="M382 -10q-148 0 -253 104.5t-105 252.5t105 253t253 105t253 -105t105 -253t-105 -252.5t-253 -104.5zM382 82q110 0 187.5 77.5t77.5 187.5q0 109 -77.5 187t-187.5 78t-188 -77.5t-78 -187.5t78 -187.5t188 -77.5zM380 143v63h-168v62l190 287h80v-262h54v-87h-54v-63
h-102zM312 287h76v118z" />
    <glyph glyph-name="uni2784" unicode="&#x2784;" horiz-adv-x="764" 
d="M382 705q148 0 253 -105t105 -253t-105 -252.5t-253 -104.5t-253 104.5t-105 252.5t105 253t253 105zM382 82q110 0 187.5 77.5t77.5 187.5q0 109 -77.5 187t-187.5 78t-188 -77.5t-78 -187.5t78 -187.5t188 -77.5zM407 409q54 0 91.5 -36.5t37.5 -93.5q0 -64 -44 -103.5
t-111 -39.5q-95 0 -153 62l76 63q26 -33 66 -33q26 0 44 14t18 38q0 27 -17 40.5t-43 13.5q-31 0 -54 -24l-56 22l14 223h237v-93h-152l-4 -61q29 8 50 8z" />
    <glyph glyph-name="uni2785" unicode="&#x2785;" horiz-adv-x="764" 
d="M382 705q148 0 253 -105t105 -253t-105 -252.5t-253 -104.5t-253 104.5t-105 252.5t105 253t253 105zM382 82q110 0 187.5 77.5t77.5 187.5q0 109 -77.5 187t-187.5 78t-188 -77.5t-78 -187.5t78 -187.5t188 -77.5zM407 407q51 0 88.5 -35.5t37.5 -95.5q0 -61 -45 -100.5
t-109 -39.5q-65 0 -111 48t-46 123q0 94 62 168t170 94l28 -81q-114 -30 -145 -98q34 17 70 17zM380 225q24 0 41 15t17 39q0 22 -15.5 36.5t-41.5 14.5q-35 0 -61 -29v-4q0 -35 17 -53.5t43 -18.5z" />
    <glyph glyph-name="uni2786" unicode="&#x2786;" horiz-adv-x="764" 
d="M382 705q148 0 253 -105t105 -253t-105 -252.5t-253 -104.5t-253 104.5t-105 252.5t105 253t253 105zM382 82q110 0 187.5 77.5t77.5 187.5q0 109 -77.5 187t-187.5 78t-188 -77.5t-78 -187.5t78 -187.5t188 -77.5zM252 461v94h268v-68l-136 -355l-103 20l126 309h-155z
" />
    <glyph glyph-name="uni2787" unicode="&#x2787;" horiz-adv-x="764" 
d="M382 705q148 0 253 -105t105 -253t-105 -252.5t-253 -104.5t-253 104.5t-105 252.5t105 253t253 105zM382 82q110 0 187.5 77.5t77.5 187.5q0 109 -77.5 187t-187.5 78t-188 -77.5t-78 -187.5t78 -187.5t188 -77.5zM474 367q32 -14 53.5 -42.5t21.5 -67.5
q0 -55 -45.5 -88t-113.5 -33t-113 33t-45 88q0 39 21.5 67.5t52.5 41.5v2q-20 9 -34.5 32t-14.5 51q0 53 37.5 81.5t95.5 28.5t95.5 -28.5t37.5 -81.5q0 -28 -14.5 -51.5t-34.5 -32.5zM390 482q-19 0 -32 -12t-13 -29q0 -16 12.5 -27t32.5 -11q19 0 31.5 10.5t12.5 27.5
q0 18 -12 29t-32 12zM390 221q25 0 40.5 14t15.5 35t-16 36t-40 14q-24 0 -39.5 -14.5t-15.5 -35.5q0 -22 15.5 -35.5t39.5 -13.5z" />
    <glyph glyph-name="uni2788" unicode="&#x2788;" horiz-adv-x="764" 
d="M382 705q148 0 253 -105t105 -253t-105 -252.5t-253 -104.5t-253 104.5t-105 252.5t105 253t253 105zM382 82q110 0 187.5 77.5t77.5 187.5q0 109 -77.5 187t-187.5 78t-188 -77.5t-78 -187.5t78 -187.5t188 -77.5zM392 561q66 0 111 -47.5t45 -123.5q0 -95 -60.5 -170
t-166.5 -93l-28 82q113 26 143 98l-1 1q-33 -18 -71 -18q-51 0 -88.5 35.5t-37.5 94.5q0 62 45 101.5t109 39.5zM333 418q0 -22 16 -36.5t41 -14.5q36 0 61 28v5q0 34 -17 53t-43 19q-24 0 -41 -15t-17 -39z" />
    <glyph glyph-name="uni278A" unicode="&#x278a;" horiz-adv-x="764" 
d="M382 -10q-148 0 -253 104.5t-105 252.5t105 253t253 105t253 -105t105 -253t-105 -252.5t-253 -104.5zM345 143h102v412h-79l-136 -92l50 -79l63 44v-285z" />
    <glyph glyph-name="uni278B" unicode="&#x278b;" horiz-adv-x="764" 
d="M382 -10q-148 0 -253 104.5t-105 252.5t105 253t253 105t253 -105t105 -253t-105 -252.5t-253 -104.5zM389 236v2l67 61q43 39 57.5 69t14.5 69q0 56 -41.5 90.5t-99.5 34.5q-51 0 -90 -22t-60 -57l76 -54q25 37 65 37q20 0 32.5 -11.5t12.5 -30.5q0 -31 -53 -84
l-129 -129l1 -68h290v93h-143z" />
    <glyph glyph-name="uni278C" unicode="&#x278c;" horiz-adv-x="764" 
d="M382 -10q-148 0 -253 104.5t-105 252.5t105 253t253 105t253 -105t105 -253t-105 -252.5t-253 -104.5zM476 354v3q50 31 50 91q0 53 -40.5 83.5t-102.5 30.5q-48 0 -85 -22.5t-52 -58.5l85 -45q14 35 51 35q22 0 34.5 -11.5t12.5 -30.5q0 -17 -13.5 -27.5t-35.5 -10.5
h-35v-76h29q28 0 43.5 -12t15.5 -32t-13.5 -32.5t-37.5 -12.5q-45 0 -60 45l-93 -38q16 -42 59.5 -69.5t101.5 -27.5q67 0 108.5 32.5t41.5 87.5q0 69 -64 98z" />
    <glyph glyph-name="uni278D" unicode="&#x278d;" horiz-adv-x="764" 
d="M382 -10q-148 0 -253 104.5t-105 252.5t105 253t253 105t253 -105t105 -253t-105 -252.5t-253 -104.5zM379 143h102v63h55v87h-55v262h-80l-189 -287v-62h167v-63zM312 287l76 118v-118h-76z" />
    <glyph glyph-name="uni278E" unicode="&#x278e;" horiz-adv-x="764" 
d="M382 -10q-148 0 -253 104.5t-105 252.5t105 253t253 105t253 -105t105 -253t-105 -252.5t-253 -104.5zM407 409q-23 0 -50 -9l4 62h153v93h-238l-14 -223l56 -21q23 23 55 23q26 0 42.5 -13.5t16.5 -40.5q0 -23 -18 -37t-43 -14q-42 0 -66 32l-76 -63q56 -62 152 -62
q68 0 112 39.5t44 103.5q0 57 -38 93.5t-92 36.5z" />
    <glyph glyph-name="uni278F" unicode="&#x278f;" horiz-adv-x="764" 
d="M382 -10q-148 0 -253 104.5t-105 252.5t105 253t253 105t253 -105t105 -253t-105 -252.5t-253 -104.5zM407 407q-37 0 -69 -17l-1 1q31 67 145 97l-28 81q-107 -20 -169 -94t-62 -168q0 -75 45.5 -123t110.5 -48q64 0 109 39.5t45 100.5q0 60 -37.5 95.5t-88.5 35.5z
M380 225q25 0 41.5 15t16.5 39q0 22 -15.5 36.5t-41.5 14.5q-37 0 -61 -30v-3q0 -34 17 -53t43 -19z" />
    <glyph glyph-name="uni2790" unicode="&#x2790;" horiz-adv-x="764" 
d="M382 -10q-148 0 -253 104.5t-105 252.5t105 253t253 105t253 -105t105 -253t-105 -252.5t-253 -104.5zM252 555v-94h154l-125 -309l103 -20l136 355v68h-268z" />
    <glyph glyph-name="uni2791" unicode="&#x2791;" horiz-adv-x="764" 
d="M382 -10q-148 0 -253 104.5t-105 252.5t105 253t253 105t253 -105t105 -253t-105 -252.5t-253 -104.5zM475 366v2q20 9 34 32t14 51q0 53 -37.5 82t-95.5 29t-95.5 -29t-37.5 -82q0 -28 14.5 -51t34.5 -33v-1q-31 -12 -52.5 -41t-21.5 -68q0 -55 45 -88t113 -33t113.5 33
t45.5 88q0 39 -21.5 67.5t-52.5 41.5zM390 482q-19 0 -32 -12t-13 -29q0 -16 12.5 -27t32.5 -11q19 0 31.5 10.5t12.5 27.5q0 18 -12 29t-32 12zM390 221q25 0 40.5 14t15.5 36q0 20 -16 35t-40 14q-24 0 -39.5 -14.5t-15.5 -34.5q0 -22 15.5 -36t39.5 -14z" />
    <glyph glyph-name="uni2792" unicode="&#x2792;" horiz-adv-x="764" 
d="M382 -10q-148 0 -253 104.5t-105 252.5t105 253t253 105t253 -105t105 -253t-105 -252.5t-253 -104.5zM392 562q-64 0 -109 -40t-45 -102q0 -59 37.5 -94t88.5 -35q40 0 71 18l1 -1q-30 -71 -143 -99l28 -82q106 18 166.5 93t60.5 170q0 76 -45 124t-111 48zM333 418
q0 -22 15.5 -36.5t41.5 -14.5q38 0 61 29v4q0 34 -17 53t-43 19q-24 0 -41 -15t-17 -39z" />
    <glyph glyph-name="uni2E18" unicode="&#x2e18;" horiz-adv-x="452" 
d="M266 337q-33 0 -57 23.5t-24 56.5t24 56t57 23q34 0 57.5 -23t23.5 -56t-23.5 -56.5t-57.5 -23.5zM359 -78l93 -87q-34 -42 -88.5 -67t-116.5 -25q-89 0 -150 50t-61 142q0 56 23 95.5t65 80.5q5 5 19.5 18t20 18t16 16t14.5 18t8 16t5 18l3 42h108l23 -312h-142l6 78h-2
q-33 -38 -33 -72q0 -40 22.5 -61.5t63.5 -21.5q63 0 103 54z" />
    <glyph glyph-name="Q.alt" horiz-adv-x="822" 
d="M773 355q0 -93 -36.5 -169t-101.5 -125l135 -110l-85 -104l-183 155q-40 -10 -90 -10q-160 0 -261.5 102.5t-101.5 260.5q0 159 101.5 261.5t261.5 102.5q157 0 259 -101.5t102 -262.5zM195 355q0 -98 61 -165t156 -67q92 0 153 66t61 166t-61 166t-153 66
q-95 0 -156 -67t-61 -165z" />
    <glyph glyph-name="i.loclTRK" horiz-adv-x="275" 
d="M138 557q-33 0 -57 23.5t-24 56.5t24 56.5t57 23.5q34 0 58 -23.5t24 -56.5t-24 -56.5t-58 -23.5zM72 0v488h131v-488h-131z" />
    <glyph glyph-name="a.alt" horiz-adv-x="517" 
d="M264 496q199 0 199 -206v-290h-121l-5 43h-2q-62 -51 -136 -51q-80 0 -121.5 42t-41.5 112q0 76 49 117t147 42h102q-6 80 -84 80q-68 0 -136 -34l-44 100q85 45 194 45zM231 99q45 0 74 21t29 40v53l-88 -1q-81 0 -81 -58q0 -25 17.5 -40t48.5 -15z" />
    <glyph glyph-name="aacute.alt" horiz-adv-x="517" 
d="M440 704l-124 -148h-126l113 147zM264 496q199 0 199 -206v-290h-121l-5 43h-2q-62 -51 -136 -51q-80 0 -121.5 42t-41.5 112q0 76 49 117t147 42h102q-6 80 -84 80q-68 0 -136 -34l-44 100q85 45 194 45zM231 99q45 0 74 21t29 40v53l-88 -1q-81 0 -81 -58
q0 -25 17.5 -40t48.5 -15z" />
    <glyph glyph-name="abreve.alt" horiz-adv-x="517" 
d="M265 551q-65 0 -111 40t-52 110h99q2 -27 19 -45t45 -18q27 0 45 17t19 46h100q-5 -66 -49.5 -108t-114.5 -42zM264 496q199 0 199 -206v-290h-121l-5 43h-2q-62 -51 -136 -51q-80 0 -121.5 42t-41.5 112q0 76 49 117t147 42h102q-6 80 -84 80q-68 0 -136 -34l-44 100
q85 45 194 45zM231 99q45 0 74 21t29 40v53l-88 -1q-81 0 -81 -58q0 -25 17.5 -40t48.5 -15z" />
    <glyph glyph-name="uni1EAF.alt" horiz-adv-x="517" 
d="M428 867l-124 -148h-126l113 147zM260 551q-65 0 -111 40t-52 110h99q2 -27 19 -45t45 -18q27 0 45 17t19 46h100q-5 -66 -49.5 -108t-114.5 -42zM264 496q199 0 199 -206v-290h-121l-5 43h-2q-62 -51 -136 -51q-80 0 -121.5 42t-41.5 112q0 76 49 117t147 42h102
q-6 80 -84 80q-68 0 -136 -34l-44 100q85 45 194 45zM231 99q45 0 74 21t29 40v53l-88 -1q-81 0 -81 -58q0 -25 17.5 -40t48.5 -15z" />
    <glyph glyph-name="uni1EB7.alt" horiz-adv-x="517" 
d="M265 551q-65 0 -111 40t-52 110h99q2 -27 19 -45t45 -18q27 0 45 17t19 46h100q-5 -66 -49.5 -108t-114.5 -42zM264 496q199 0 199 -206v-290h-121l-5 43h-2q-62 -51 -136 -51q-80 0 -121.5 42t-41.5 112q0 76 49 117t147 42h102q-6 80 -84 80q-68 0 -136 -34l-44 100
q85 45 194 45zM231 99q45 0 74 21t29 40v53l-88 -1q-81 0 -81 -58q0 -25 17.5 -40t48.5 -15zM265 -90q33 0 57 -23.5t24 -56.5t-24 -56.5t-57 -23.5q-34 0 -58 23.5t-24 56.5t24 56.5t58 23.5z" />
    <glyph glyph-name="uni1EB1.alt" horiz-adv-x="517" 
d="M316 719h-127l-123 148l137 -1zM264 638q27 0 45 17t19 46h100q-5 -66 -49.5 -108t-114.5 -42q-65 0 -111 40t-52 110h99q2 -27 19 -45t45 -18zM264 496q199 0 199 -206v-290h-121l-5 43h-2q-62 -51 -136 -51q-80 0 -121.5 42t-41.5 112q0 76 49 117t147 42h102
q-6 80 -84 80q-68 0 -136 -34l-44 100q85 45 194 45zM231 99q45 0 74 21t29 40v53l-88 -1q-81 0 -81 -58q0 -25 17.5 -40t48.5 -15z" />
    <glyph glyph-name="uni1EB3.alt" horiz-adv-x="517" 
d="M265 828q-35 0 -67 -30l-45 43q20 20 53.5 34t68.5 14q49 0 76 -22t27 -57q0 -64 -90 -81l-7 -24l-51 -2q-18 18 -18 30q0 15 41 37t41 39q0 19 -29 19zM265 551q-65 0 -111 40t-52 110h99q2 -27 19 -45t45 -18q27 0 45 17t19 46h100q-5 -66 -49.5 -108t-114.5 -42z
M264 496q199 0 199 -206v-290h-121l-5 43h-2q-62 -51 -136 -51q-80 0 -121.5 42t-41.5 112q0 76 49 117t147 42h102q-6 80 -84 80q-68 0 -136 -34l-44 100q85 45 194 45zM231 99q45 0 74 21t29 40v53l-88 -1q-81 0 -81 -58q0 -25 17.5 -40t48.5 -15z" />
    <glyph glyph-name="uni1EB5.alt" horiz-adv-x="517" 
d="M212 771q-26 0 -47 -50l-78 34q16 52 44.5 84t64.5 32q12 0 22 -1.5t19.5 -5t13.5 -5.5t14.5 -8t11.5 -7q36 -22 55 -22q35 0 56 49l77 -26q-15 -57 -46 -91t-71 -34t-88 30q-4 3 -12.5 8t-12 7t-10 4t-13.5 2zM265 638q27 0 45 17t19 46h100q-5 -66 -49.5 -108
t-114.5 -42q-65 0 -111 40t-52 110h99q2 -27 19 -45t45 -18zM264 496q199 0 199 -206v-290h-121l-5 43h-2q-62 -51 -136 -51q-80 0 -121.5 42t-41.5 112q0 76 49 117t147 42h102q-6 80 -84 80q-68 0 -136 -34l-44 100q85 45 194 45zM231 99q45 0 74 21t29 40v53l-88 -1
q-81 0 -81 -58q0 -25 17.5 -40t48.5 -15z" />
    <glyph glyph-name="acircumflex.alt" horiz-adv-x="517" 
d="M263 629l-50 -75h-120l111 150h116l117 -150h-121l-51 75h-2zM264 496q199 0 199 -206v-290h-121l-5 43h-2q-62 -51 -136 -51q-80 0 -121.5 42t-41.5 112q0 76 49 117t147 42h102q-6 80 -84 80q-68 0 -136 -34l-44 100q85 45 194 45zM231 99q45 0 74 21t29 40v53l-88 -1
q-81 0 -81 -58q0 -25 17.5 -40t48.5 -15z" />
    <glyph glyph-name="uni1EA5.alt" horiz-adv-x="517" 
d="M496 795h134l-149 -147h-98zM263 629l-50 -75h-120l111 150h116l117 -150h-121l-51 75h-2zM264 496q199 0 199 -206v-290h-121l-5 43h-2q-62 -51 -136 -51q-80 0 -121.5 42t-41.5 112q0 76 49 117t147 42h102q-6 80 -84 80q-68 0 -136 -34l-44 100q85 45 194 45zM231 99
q45 0 74 21t29 40v53l-88 -1q-81 0 -81 -58q0 -25 17.5 -40t48.5 -15z" />
    <glyph glyph-name="uni1EAD.alt" horiz-adv-x="517" 
d="M263 629l-50 -75h-120l111 150h116l117 -150h-121l-51 75h-2zM264 496q199 0 199 -206v-290h-121l-5 43h-2q-62 -51 -136 -51q-80 0 -121.5 42t-41.5 112q0 76 49 117t147 42h102q-6 80 -84 80q-68 0 -136 -34l-44 100q85 45 194 45zM231 99q45 0 74 21t29 40v53l-88 -1
q-81 0 -81 -58q0 -25 17.5 -40t48.5 -15zM265 -90q33 0 57 -23.5t24 -56.5t-24 -56.5t-57 -23.5q-34 0 -58 23.5t-24 56.5t24 56.5t58 23.5z" />
    <glyph glyph-name="uni1EA7.alt" horiz-adv-x="517" 
d="M519 649h-96l-121 147l132 -1zM263 629l-50 -75h-120l111 150h116l117 -150h-121l-51 75h-2zM264 496q199 0 199 -206v-290h-121l-5 43h-2q-62 -51 -136 -51q-80 0 -121.5 42t-41.5 112q0 76 49 117t147 42h102q-6 80 -84 80q-68 0 -136 -34l-44 100q85 45 194 45z
M231 99q45 0 74 21t29 40v53l-88 -1q-81 0 -81 -58q0 -25 17.5 -40t48.5 -15z" />
    <glyph glyph-name="uni1EA9.alt" horiz-adv-x="517" 
d="M454 807q45 0 71.5 -22t26.5 -57q0 -30 -23 -51t-62 -30l-8 -24l-50 -2q-19 19 -19 31q0 10 12.5 19.5t27 16.5t27 17.5t12.5 21.5q0 19 -25 19q-37 0 -67 -30l-46 43q20 20 54 34t69 14zM263 629l-50 -75h-120l111 150h116l117 -150h-121l-51 75h-2zM264 496
q199 0 199 -206v-290h-121l-5 43h-2q-62 -51 -136 -51q-80 0 -121.5 42t-41.5 112q0 76 49 117t147 42h102q-6 80 -84 80q-68 0 -136 -34l-44 100q85 45 194 45zM231 99q45 0 74 21t29 40v53l-88 -1q-81 0 -81 -58q0 -25 17.5 -40t48.5 -15z" />
    <glyph glyph-name="uni1EAB.alt" horiz-adv-x="517" 
d="M212 771q-26 0 -47 -50l-78 34q16 52 44.5 84t64.5 32q12 0 22 -1.5t19.5 -5t13.5 -5.5t14.5 -8t11.5 -7q36 -22 55 -22q35 0 56 49l77 -26q-15 -57 -46 -91t-71 -34t-88 30q-4 3 -12.5 8t-12 7t-10 4t-13.5 2zM204 704h116l117 -150h-121l-51 75h-2l-50 -75h-120z
M264 496q199 0 199 -206v-290h-121l-5 43h-2q-62 -51 -136 -51q-80 0 -121.5 42t-41.5 112q0 76 49 117t147 42h102q-6 80 -84 80q-68 0 -136 -34l-44 100q85 45 194 45zM231 99q45 0 74 21t29 40v53l-88 -1q-81 0 -81 -58q0 -25 17.5 -40t48.5 -15z" />
    <glyph glyph-name="adieresis.alt" horiz-adv-x="517" 
d="M159 557q-34 0 -57.5 23.5t-23.5 56.5t23.5 56.5t57.5 23.5q33 0 57 -23.5t24 -56.5t-24 -56.5t-57 -23.5zM369 558q-34 0 -57.5 23.5t-23.5 55.5t23.5 55.5t57.5 23.5q32 0 56 -23.5t24 -55.5t-24 -55.5t-56 -23.5zM264 496q199 0 199 -206v-290h-121l-5 43h-2
q-62 -51 -136 -51q-80 0 -121.5 42t-41.5 112q0 76 49 117t147 42h102q-6 80 -84 80q-68 0 -136 -34l-44 100q85 45 194 45zM231 99q45 0 74 21t29 40v53l-88 -1q-81 0 -81 -58q0 -25 17.5 -40t48.5 -15z" />
    <glyph glyph-name="uni1EA1.alt" horiz-adv-x="517" 
d="M264 496q199 0 199 -206v-290h-121l-5 43h-2q-62 -51 -136 -51q-80 0 -121.5 42t-41.5 112q0 76 49 117t147 42h102q-6 80 -84 80q-68 0 -136 -34l-44 100q85 45 194 45zM231 99q45 0 74 21t29 40v53l-88 -1q-81 0 -81 -58q0 -25 17.5 -40t48.5 -15zM265 -90
q33 0 57 -23.5t24 -56.5t-24 -56.5t-57 -23.5q-34 0 -58 23.5t-24 56.5t24 56.5t58 23.5z" />
    <glyph glyph-name="agrave.alt" horiz-adv-x="517" 
d="M362 556h-127l-123 148l137 -1zM264 496q199 0 199 -206v-290h-121l-5 43h-2q-62 -51 -136 -51q-80 0 -121.5 42t-41.5 112q0 76 49 117t147 42h102q-6 80 -84 80q-68 0 -136 -34l-44 100q85 45 194 45zM231 99q45 0 74 21t29 40v53l-88 -1q-81 0 -81 -58q0 -25 17.5 -40
t48.5 -15z" />
    <glyph glyph-name="uni1EA3.alt" horiz-adv-x="517" 
d="M265 660q-35 0 -67 -30l-45 43q20 20 53.5 34t68.5 14q49 0 76 -22t27 -57q0 -64 -90 -81l-7 -24l-51 -2q-18 18 -18 30q0 15 41 37t41 39q0 19 -29 19zM264 496q199 0 199 -206v-290h-121l-5 43h-2q-62 -51 -136 -51q-80 0 -121.5 42t-41.5 112q0 76 49 117t147 42h102
q-6 80 -84 80q-68 0 -136 -34l-44 100q85 45 194 45zM231 99q45 0 74 21t29 40v53l-88 -1q-81 0 -81 -58q0 -25 17.5 -40t48.5 -15z" />
    <glyph glyph-name="amacron.alt" horiz-adv-x="517" 
d="M417 688v-105h-304v105h304zM264 496q199 0 199 -206v-290h-121l-5 43h-2q-62 -51 -136 -51q-80 0 -121.5 42t-41.5 112q0 76 49 117t147 42h102q-6 80 -84 80q-68 0 -136 -34l-44 100q85 45 194 45zM231 99q45 0 74 21t29 40v53l-88 -1q-81 0 -81 -58q0 -25 17.5 -40
t48.5 -15z" />
    <glyph glyph-name="aogonek.alt" horiz-adv-x="517" 
d="M455 0q-37 -6 -59 -27t-22 -45q0 -41 41 -41q22 0 39 7l7 -71q-27 -12 -73 -12q-52 0 -82.5 25t-30.5 66q0 25 17 53t48 48l1 3l-4 37h-2q-62 -51 -136 -51q-80 0 -121.5 42t-41.5 112q0 76 49 117t147 42h102q-6 80 -84 80q-68 0 -136 -34l-44 100q85 45 194 45
q199 0 199 -206v-290h-8zM231 99q45 0 74 21t29 40v53l-88 -1q-81 0 -81 -58q0 -25 17.5 -40t48.5 -15z" />
    <glyph glyph-name="aring.alt" horiz-adv-x="517" 
d="M264 533q-44 0 -75.5 30t-31.5 74q0 43 30.5 74t76.5 31t77.5 -30t31.5 -75q0 -44 -30.5 -74t-78.5 -30zM264 676q-15 0 -26 -11.5t-11 -26.5q0 -16 10.5 -26.5t26.5 -10.5t27 11t11 27q0 15 -11 26t-27 11zM264 496q199 0 199 -206v-290h-121l-5 43h-2q-62 -51 -136 -51
q-80 0 -121.5 42t-41.5 112q0 76 49 117t147 42h102q-6 80 -84 80q-68 0 -136 -34l-44 100q85 45 194 45zM231 99q45 0 74 21t29 40v53l-88 -1q-81 0 -81 -58q0 -25 17.5 -40t48.5 -15z" />
    </font>
</defs>
</svg>
