<?xml version="1.0" encoding="UTF-8"?>
<svg width="258px" height="32px" viewBox="0 0 258 32" version="1.1" xmlns="http://www.w3.org/2000/svg" xmlns:xlink="http://www.w3.org/1999/xlink">
    <!-- Generator: Sketch 57.1 (83088) - https://sketch.com -->
    <title>Superusefulstudio_ol</title>
    <desc>Created with Sketch.</desc>
    <g id="Super-useful-studio" stroke="none" stroke-width="1" fill="none" fill-rule="evenodd">
        <g id="Desktop-Copy" transform="translate(-35.000000, -79.000000)" fill-rule="nonzero">
            <g id="Superusefulstudio_ol" transform="translate(35.079590, 79.427729)">
                <path d="M8.53987802,24.8463581 C5.52669442,24.8463581 2.46533203,23.6865242 0,21.156739 L2.78743661,17.7246101 C4.5441066,19.7386092 6.7838527,20.6570663 8.62060571,20.6570663 C10.8603518,20.6570663 11.9882815,19.6258163 11.9882815,18.175782 C11.9882815,16.4514998 10.7475588,15.8393562 7.91178238,14.8564461 C4.36653817,13.6157234 0.821616299,11.9723298 0.821616299,7.55729069 C0.821616299,3.78678288 4.14095224,0.902505532 8.34651864,0.853843354 C11.2469093,0.821777835 13.9539405,1.91748096 16.2420265,3.80273487 L13.5668994,7.2993169 C11.6171924,5.70410205 9.92529787,4.99479534 8.45898928,4.99479534 C6.84766115,4.99479534 5.65527834,5.86491253 5.63916506,7.34733441 C5.62305178,8.81380405 6.896001,9.42594769 9.5872413,10.473311 C13.6316749,12.0524125 16.8380568,13.1160501 16.8380568,17.6277689 C16.8380568,22.7517923 12.374839,24.8463581 8.53987802,24.8463581 Z M29.8727245,8.45882848 L34.1910839,8.45882848 L34.1910839,24.5721097 L29.8727245,24.5721097 L29.8727245,22.6062894 L29.8084325,22.6062894 C28.5514355,24.0890336 26.8435887,24.8460355 25.0227879,24.8460355 C21.5423192,24.8460355 19.0931004,23.0737356 19.0931004,18.1593459 L19.0931004,8.45882848 L23.4114598,8.45882848 L23.4114598,17.0314162 C23.4114598,19.9960989 24.281577,20.9628958 26.2955761,20.9628958 C28.18083,20.9628958 29.8727245,19.3999075 29.8727245,16.2739309 L29.8727245,8.45882848 Z M46.6940136,8.18506374 L46.6941749,8.18538632 C51.0125343,8.18538632 54.2835304,11.6658551 54.2835304,16.5642926 C54.2835304,21.5432965 51.0286475,24.8461968 46.5654297,24.8461968 C44.5348339,24.8461968 42.9236668,24.1051469 41.8115281,22.7679056 L41.747075,22.7679056 L41.747075,31.0979886 L37.4287156,31.0979886 L37.4287156,8.45898952 L41.747075,8.45898952 L41.747075,10.3123392 L41.8115281,10.3123392 C43.0042332,8.91048373 44.71208,8.18506374 46.6940136,8.18506374 Z M45.7756373,20.9794927 C48.2086996,20.9794927 49.9005568,19.1908897 49.9005568,16.5805669 C49.9005568,13.8251958 48.0799171,12.0688481 45.7757179,12.0688481 C43.2944336,12.0688481 41.5703125,14.0024419 41.5703125,16.5805669 C41.5703125,19.2231151 43.4070239,20.9794927 45.7756373,20.9794927 L45.7756373,20.9794927 Z M71.8138038,16.3707717 L71.8136428,16.370288 C71.8136428,16.885752 71.7814162,17.6272853 71.7008498,17.9171633 L60.4056007,17.9171633 C60.9210646,19.8346438 62.4518263,20.994961 64.5143263,21.0109133 C66.2062209,21.0270266 67.4791701,20.2697023 68.3654006,19.1902735 L71.1691115,21.8006251 C69.7993216,23.5406984 67.4469435,24.8458742 64.208174,24.8458742 C59.4869826,24.8458742 55.9099952,21.5268606 55.9099952,16.4995169 C55.9099952,11.6010794 59.3258498,8.18506374 63.9020217,8.18506374 C68.6394874,8.18506374 71.8138038,11.6494192 71.8138038,16.3707717 Z M64.0470412,11.9874755 C62.2906935,11.9874755 60.9209036,12.9381591 60.4213919,14.8072998 L67.5276712,14.8072998 C67.0922903,13.0992919 65.9161818,11.9874755 64.0470412,11.9874755 Z M83.4951172,8.18506374 L83.4954395,8.18506374 C83.6241847,8.18506374 83.7369777,8.18506374 83.8336574,8.20117702 L83.8336574,12.9386428 C83.3987598,12.9064162 82.9314747,12.8903029 82.6894531,12.8903029 C80.0309228,12.8903029 78.5805664,14.6949904 78.5805664,17.0958693 L78.5805664,24.5722708 L74.262207,24.5722708 L74.262207,8.45898952 L78.5805664,8.45898952 L78.5805664,10.8276419 L78.6289062,10.8276419 C79.8531933,9.11963405 81.59375,8.18506374 83.4951172,8.18506374 Z" id="Super" fill="#414141"></path>
                <path d="M96.1266308,8.45882848 L100.44499,8.45882848 L100.44499,24.5721097 L96.1266308,24.5721097 L96.1266308,22.6062894 L96.0623387,22.6062894 C94.8053417,24.0890336 93.097495,24.8460355 91.2766942,24.8460355 C87.7962254,24.8460355 85.3470067,23.0737356 85.3470067,18.1593459 L85.3470067,8.45882848 L89.6653661,8.45882848 L89.6653661,17.0314162 C89.6653661,19.9960989 90.5354832,20.9628958 92.5494824,20.9628958 C94.4347363,20.9628958 96.1266308,19.3999075 96.1266308,16.2739309 L96.1266308,8.45882848 Z M108.887695,24.8461966 L108.886568,24.8461966 C106.308443,24.8461966 104.117036,24.0244195 102.36085,22.4777055 L104.455576,19.4967485 C105.776865,20.7373101 107.162607,21.3821637 108.918955,21.3821637 C110.175952,21.3821637 110.90105,20.8339898 110.90105,20.0446 C110.90105,19.3033891 110.063159,18.9327836 107.968433,18.2560258 C105.309902,17.3859086 103.005703,16.1292337 103.005703,13.0193705 C103.005703,10.1028665 105.519697,8.18522503 108.806646,8.18522503 C111.046714,8.18522503 112.867354,8.79785205 114.704429,10.2158208 L112.609702,13.3740239 C111.36898,12.1974321 109.951011,11.6658548 108.758789,11.6658548 C108.049805,11.6658548 107.179688,12.0364603 107.179688,12.8743509 C107.179688,13.5511087 108.017578,14.0183939 109.59668,14.6145853 C113.093262,15.9036478 115.139648,16.660972 115.139648,19.8352884 C115.139648,22.6873392 113.109375,24.8461966 108.887695,24.8461966 Z M132.331382,16.3707717 L132.331221,16.370288 C132.331221,16.885752 132.298994,17.6272853 132.218428,17.9171633 L120.923179,17.9171633 C121.438643,19.8346438 122.969404,20.994961 125.031904,21.0109133 C126.723799,21.0270266 127.996748,20.2697023 128.882979,19.1902735 L131.68669,21.8006251 C130.3169,23.5406984 127.964522,24.8458742 124.725752,24.8458742 C120.004561,24.8458742 116.427573,21.5268606 116.427573,16.4995169 C116.427573,11.6010794 119.843428,8.18506374 124.4196,8.18506374 C129.157066,8.18506374 132.331382,11.6494192 132.331382,16.3707717 Z M124.564619,11.9874755 C122.808272,11.9874755 121.438482,12.9381591 120.93897,14.8072998 L128.045249,14.8072998 C127.609868,13.0992919 126.43376,11.9874755 124.564619,11.9874755 Z M135.134116,24.5722708 L135.133956,12.03646 L133.425948,12.03646 L133.425948,8.45931161 L135.133956,8.45931161 L135.133956,5.68798828 C135.133956,1.93359375 137.003096,0 140.193526,0 C142.143233,0 143.641768,0.676596768 144.366866,1.15999521 L143.49691,4.54378427 C142.57813,4.09261239 141.692061,3.83479989 141.079756,3.83479989 C140.064619,3.83479989 139.452476,4.43083026 139.452476,6.00993182 L139.452476,8.45915057 L143.045576,8.45915057 L143.045576,12.036299 L139.452476,12.036299 L139.452476,24.5722708 L135.134116,24.5722708 Z M155.22624,8.45882848 L159.5446,8.45882848 L159.5446,24.5721097 L155.22624,24.5721097 L155.22624,22.6062894 L155.161948,22.6062894 C153.904951,24.0890336 152.197104,24.8460355 150.376304,24.8460355 C146.895835,24.8460355 144.446616,23.0737356 144.446616,18.1593459 L144.446616,8.45882848 L148.764975,8.45882848 L148.764975,17.0314162 C148.764975,19.9960989 149.635093,20.9628958 151.649092,20.9628958 C153.534346,20.9628958 155.22624,19.3999075 155.22624,16.2739309 L155.22624,8.45882848 Z M162.975913,24.5722708 L162.975913,0.273764983 L167.294273,0.273764983 L167.294273,24.5722708 L162.975913,24.5722708 Z" id="useful" fill="#50C27B"></path>
                <path d="M176.059082,24.8461966 L176.057954,24.8461966 C173.479829,24.8461966 171.288423,24.0244195 169.532236,22.4777055 L171.626963,19.4967485 C172.948252,20.7373101 174.333994,21.3821637 176.090342,21.3821637 C177.347339,21.3821637 178.072436,20.8339898 178.072436,20.0446 C178.072436,19.3033891 177.234546,18.9327836 175.139819,18.2560258 C172.481289,17.3859086 170.17709,16.1292337 170.17709,13.0193705 C170.17709,10.1028665 172.691084,8.18522503 175.978032,8.18522503 C178.218101,8.18522503 180.03874,8.79785205 181.875816,10.2158208 L179.781089,13.3740239 C178.540366,12.1974321 177.122398,11.6658548 175.930176,11.6658548 C175.221191,11.6658548 174.351074,12.0364603 174.351074,12.8743509 C174.351074,13.5511087 175.188965,14.0183939 176.768066,14.6145853 C180.264648,15.9036478 182.311035,16.660972 182.311035,19.8352884 C182.311035,22.6873392 180.280762,24.8461966 176.059082,24.8461966 Z M189.641602,24.8461966 L189.641279,24.8461966 C186.869473,24.8461966 185.03272,23.1059619 185.03272,19.4804737 L185.03272,12.0361377 L183.131352,12.0361377 L183.131352,8.45898928 L185.03272,8.45898928 L185.03272,3.19026864 L189.351079,2.72298349 L189.351079,8.45915057 L193.733891,8.45915057 L193.733891,12.036299 L189.351079,12.036299 L189.351079,18.8844435 C189.351079,20.2701857 189.75375,20.9469435 190.769209,20.9469435 C191.26856,20.9469435 192.074546,20.7535842 192.799644,20.3829787 L193.91146,23.8312209 C192.88021,24.3951857 191.816733,24.8461966 189.641602,24.8461966 Z M206.430342,8.45882848 L210.748701,8.45882848 L210.748701,24.5721097 L206.430342,24.5721097 L206.430342,22.6062894 L206.36605,22.6062894 C205.109053,24.0890336 203.401206,24.8460355 201.580405,24.8460355 C198.099936,24.8460355 195.650718,23.0737356 195.650718,18.1593459 L195.650718,8.45882848 L199.969077,8.45882848 L199.969077,17.0314162 C199.969077,19.9960989 200.839194,20.9628958 202.853193,20.9628958 C204.738447,20.9628958 206.430342,19.3999075 206.430342,16.2739309 L206.430342,8.45882848 Z M225.620444,0.273603939 L229.939126,0.273603939 L229.939126,24.5721097 L225.830239,24.5721097 L225.830239,22.6224027 L225.73356,22.6224027 C224.60563,24.0566458 222.945962,24.8458742 220.802573,24.8458742 C216.339194,24.8458742 213.084312,21.5429739 213.084312,16.56397 C213.084312,11.6655325 216.355308,8.18506374 220.673667,8.18506374 C222.639487,8.18506374 224.331382,8.89437045 225.539878,10.2801126 L225.620444,10.2801126 L225.620444,0.273603939 Z M221.592446,20.9791703 L221.592607,20.9791703 C223.96126,20.9791703 225.846514,19.2228227 225.846514,16.5802446 C225.846514,14.0021196 224.074053,12.0685258 221.608721,12.0685258 C219.288408,12.0685258 217.467446,13.8248735 217.467446,16.5802446 C217.467446,19.1905961 219.175454,20.9791703 221.592446,20.9791703 Z M235.657881,6.1873392 C234.175459,6.1873392 232.983076,5.01090863 232.983076,3.54460003 C232.983076,2.110518 234.175459,0.918135189 235.657881,0.918135189 C237.124189,0.918135189 238.333008,2.110518 238.333008,3.54460003 C238.333008,5.01090863 237.124189,6.1873392 235.657881,6.1873392 Z M233.498701,24.5722708 L233.498701,8.45898952 L237.81706,8.45898952 L237.81706,24.5722708 L233.498701,24.5722708 Z M249.079429,24.8461966 C243.955405,24.8461966 240.507163,21.3335012 240.507163,16.5317434 C240.507163,11.7141947 243.955405,8.18506374 249.079429,8.18506374 C254.09082,8.18506374 257.651855,11.5849661 257.651855,16.5317434 C257.651855,21.4627298 254.09082,24.8461966 249.079429,24.8461966 Z M249.079429,20.9791703 L249.079268,20.9790091 C251.415694,20.9790091 253.268721,19.1419339 253.268721,16.5315824 C253.268721,13.8890043 251.464194,12.0683645 249.079429,12.0683645 C246.565757,12.0683645 244.873862,13.9856839 244.873862,16.5315824 C244.873862,19.0294633 246.614097,20.9791703 249.079429,20.9791703 Z" id="studio" fill="#414141"></path>
            </g>
        </g>
    </g>
</svg>